<svg width="1512" height="535" viewBox="0 0 1512 535" fill="none" xmlns="http://www.w3.org/2000/svg">
<path fill-rule="evenodd" clip-rule="evenodd" d="M72.7386 276.973C73.6912 277.225 74.1077 277.864 74.2124 278.507C74.3304 279.226 74.0694 280.002 73.3458 280.465C72.5831 280.952 72.5831 281.743 73.3458 282.23C74.1085 282.718 75.3463 282.718 76.109 282.23C77.5954 281.28 78.3409 279.724 78.0986 278.247C77.8446 276.693 76.5357 275.275 74.2335 274.666C73.2372 274.402 72.0931 274.705 71.6813 275.342C71.2687 275.978 71.7422 276.71 72.7386 276.973Z" fill="url(#paint0_linear_831_1395)"/>
<path fill-rule="evenodd" clip-rule="evenodd" d="M305.405 176.533C305.006 177.05 304.808 177.27 304.127 177.723C303.303 178.272 303.331 179.157 304.189 179.7C305.046 180.242 306.41 180.238 307.234 179.69C308.309 178.974 308.632 178.632 309.262 177.816C309.792 177.131 309.357 176.287 308.293 175.933C307.229 175.579 305.935 175.848 305.405 176.533Z" fill="url(#paint1_linear_831_1395)"/>
<path fill-rule="evenodd" clip-rule="evenodd" d="M302.302 161.085C304.27 161.088 305.945 162.167 307.256 163.538C309.53 165.912 310.64 169.337 309.085 171.684C308.619 172.386 309.124 173.211 310.211 173.525C311.299 173.838 312.56 173.523 313.026 172.82C315.069 169.735 313.875 165.211 310.886 162.089C308.689 159.795 305.544 158.302 302.247 158.296C301.065 158.295 300.116 158.918 300.131 159.687C300.146 160.457 301.119 161.083 302.302 161.085Z" fill="url(#paint2_linear_831_1395)"/>
<path fill-rule="evenodd" clip-rule="evenodd" d="M1066.04 506.375C1061.82 508.674 1062.66 512.239 1065.86 514.543C1069.08 516.843 1074.45 517.812 1078.85 515.068C1083.63 512.092 1082.84 508.543 1079.74 506.445C1076.67 504.365 1071.13 503.605 1066.04 506.375ZM1068.8 508.444C1071.71 506.857 1074.88 507.12 1076.65 508.311C1078.39 509.485 1078.56 511.456 1075.88 513.121C1073.56 514.57 1070.74 513.949 1069.04 512.735C1067.36 511.524 1066.58 509.652 1068.8 508.444Z" fill="url(#paint3_linear_831_1395)"/>
<path fill-rule="evenodd" clip-rule="evenodd" d="M954.99 501.859C953.544 502.129 952.542 502.608 951.871 503.165C950.501 504.317 950.548 505.872 951.626 507.072C952.703 508.285 954.782 509.104 957.23 508.827C959.744 508.544 961.162 507.647 961.805 506.637C963.345 504.221 960.236 500.883 954.99 501.859ZM956.049 504.179C957.278 503.951 958.157 504.429 958.365 505.016C958.487 505.355 958.421 505.732 958.024 506.008C957.712 506.229 957.221 506.375 956.578 506.448C955.832 506.532 955.236 506.241 954.905 505.873C954.565 505.491 954.442 504.995 954.886 504.628C955.123 504.425 955.52 504.277 956.049 504.179Z" fill="url(#paint4_linear_831_1395)"/>
<path fill-rule="evenodd" clip-rule="evenodd" d="M1475.03 501.411C1474.95 501.425 1474.87 501.442 1474.81 501.462C1467.65 503.347 1466.37 507.011 1468.19 509.78C1470 512.549 1475.12 514.562 1481.3 513.173C1485.39 512.254 1487.32 509.837 1487.26 507.38C1487.21 505.208 1485.55 503.043 1482.63 501.93C1480.67 501.184 1478.12 500.881 1475.03 501.411ZM1476.13 503.725C1477.68 503.472 1479.01 503.523 1480.1 503.814C1481.73 504.251 1482.77 505.208 1483.23 506.268C1483.98 508.047 1483.11 510.203 1480.04 510.894C1475.37 511.943 1471.56 510.053 1471.26 507.789C1471.06 506.269 1472.54 504.697 1476.13 503.726V503.725Z" fill="url(#paint5_linear_831_1395)"/>
<path fill-rule="evenodd" clip-rule="evenodd" d="M1116.53 441.49C1118.21 442.584 1120.63 444.282 1121.87 446.199C1122.93 447.845 1123.03 449.673 1120.44 451.326C1119.7 451.798 1119.7 452.563 1120.44 453.035C1121.17 453.506 1122.37 453.506 1123.11 453.035C1127.02 450.53 1126.98 447.771 1125.37 445.279C1123.93 443.058 1121.17 441.068 1119.24 439.802C1118.51 439.325 1117.31 439.316 1116.56 439.782C1115.81 440.248 1115.81 441.014 1116.53 441.49Z" fill="url(#paint6_linear_831_1395)"/>
<path fill-rule="evenodd" clip-rule="evenodd" d="M1190.47 385.589C1191.2 385.516 1191.96 385.838 1192.68 386.223C1194.01 386.938 1195.2 388.025 1195.2 388.892C1195.2 389.559 1196.04 390.1 1197.09 390.1C1198.13 390.1 1198.98 389.559 1198.98 388.892C1198.98 387.458 1197.32 385.552 1195.11 384.37C1193.46 383.49 1191.54 383.036 1189.88 383.203C1188.85 383.307 1188.15 383.927 1188.32 384.585C1188.48 385.244 1189.45 385.694 1190.47 385.589Z" fill="url(#paint7_linear_831_1395)"/>
<path fill-rule="evenodd" clip-rule="evenodd" d="M1195.02 393.261C1194.88 393.329 1194.07 393.755 1193.73 393.955C1193 394.377 1192.7 394.855 1192.7 395.274C1192.7 395.941 1193.54 396.482 1194.59 396.482C1195.4 396.482 1196.08 396.16 1196.35 395.707C1196.58 395.593 1197.09 395.335 1197.38 395.164C1197.98 394.825 1198.42 394.43 1198.61 394.016C1198.89 393.375 1198.32 392.705 1197.31 392.519C1196.36 392.341 1195.36 392.67 1195.02 393.261Z" fill="url(#paint8_linear_831_1395)"/>
<path fill-rule="evenodd" clip-rule="evenodd" d="M1349.28 246.985C1350.52 247.127 1351.56 247.905 1352.4 248.678C1353.26 249.48 1353.9 250.32 1353.91 250.738C1353.93 251.405 1354.79 251.939 1355.83 251.93C1356.88 251.921 1357.71 251.372 1357.69 250.705C1357.68 250.031 1356.9 248.601 1355.51 247.308C1354.09 245.987 1352.06 244.85 1349.95 244.607C1348.93 244.489 1347.95 244.925 1347.76 245.581C1347.57 246.237 1348.26 246.867 1349.28 246.985Z" fill="url(#paint9_linear_831_1395)"/>
<path fill-rule="evenodd" clip-rule="evenodd" d="M59.5496 274.663C59.5114 274.702 59.4762 274.742 59.4449 274.783C57.8312 276.92 57.5171 278.862 58.043 280.53C59.1089 283.914 63.682 286.232 68.713 286.822C73.7886 287.417 79.2542 286.273 81.9807 282.852C84.3938 279.824 84.0422 277.11 82.2378 275.025C78.0343 270.17 65.5411 268.714 59.5496 274.663ZM62.5661 275.821C66.986 271.522 76.0892 272.566 79.1604 276.114C80.4795 277.637 80.6108 279.619 78.847 281.832C76.9027 284.272 72.9673 285.036 69.3476 284.611C65.6825 284.181 62.2668 282.552 61.49 280.087C61.0993 278.846 61.3869 277.41 62.5637 275.824L62.5661 275.821Z" fill="url(#paint10_linear_831_1395)"/>
<path fill-rule="evenodd" clip-rule="evenodd" d="M89.4686 251.018C89.3403 253.45 92.5306 254.799 95.9134 254.812C99.2327 254.824 102.543 253.548 102.703 251.019C102.927 247.478 96.5557 245.843 92.5763 247.345C90.8836 247.983 89.5662 249.162 89.4686 251.018ZM92.5381 251.084C92.5756 250.384 92.8698 249.842 93.3674 249.456C94.3169 248.718 95.9346 248.59 97.2826 248.878C98.6034 249.16 99.701 249.876 99.6341 250.94C99.5495 252.274 97.6819 252.855 95.9312 252.848C94.2425 252.842 92.4746 252.298 92.5381 251.084Z" fill="url(#paint11_linear_831_1395)"/>
<path fill-rule="evenodd" clip-rule="evenodd" d="M75.9592 356.914C76.0386 356.968 76.1869 357.071 76.2663 357.143C76.5735 357.417 76.8372 357.723 77.0867 357.963C78.7965 359.602 79.1197 361.79 77.9761 363.618C77.5886 364.237 78.0602 364.941 79.029 365.188C79.9977 365.436 81.0988 365.135 81.4863 364.515C83.0827 361.964 82.6186 358.91 80.2321 356.623C79.7775 356.186 79.2539 355.582 78.6065 355.181C77.8183 354.693 76.876 354.432 75.7843 354.505C74.7466 354.574 73.9923 355.169 74.1001 355.832C74.2012 356.448 75.0121 356.908 75.9592 356.914Z" fill="url(#paint12_linear_831_1395)"/>
<path fill-rule="evenodd" clip-rule="evenodd" d="M74.8439 367.462C74.5708 367.624 73.068 368.519 72.6786 368.768C71.9405 369.24 71.9405 370.005 72.6786 370.477C73.4158 370.948 74.6133 370.948 75.3515 370.477C75.8637 370.149 77.3504 369.38 77.9449 368.857C78.3626 368.489 78.5158 368.134 78.5299 367.878C78.5659 367.212 77.7483 366.652 76.7058 366.629C75.8448 366.61 75.0982 366.963 74.8439 367.462Z" fill="url(#paint13_linear_831_1395)"/>
<path fill-rule="evenodd" clip-rule="evenodd" d="M42.096 452.464C42.0847 452.595 42.0696 452.79 42.0696 452.91C42.0696 453.576 42.9164 454.118 43.9598 454.118C45.0033 454.118 45.8501 453.576 45.8501 452.91C45.8501 452.575 45.9191 452.218 45.8303 451.908C45.6998 451.448 45.3653 451.041 44.663 450.722C43.8143 450.334 42.6329 450.46 42.027 451.003C41.5223 451.454 41.5743 452.054 42.096 452.464Z" fill="url(#paint14_linear_831_1395)"/>
<path fill-rule="evenodd" clip-rule="evenodd" d="M54.6029 409.125C55.0094 409.242 55.1247 409.455 55.1247 409.745C55.1247 410.412 55.9715 410.953 57.0149 410.953C58.0584 410.953 58.9052 410.412 58.9052 409.745C58.9052 408.376 58.0773 407.476 56.1586 406.923C55.2078 406.648 54.0878 406.919 53.6578 407.527C53.2287 408.134 53.6521 408.85 54.6029 409.125Z" fill="url(#paint15_linear_831_1395)"/>
<path fill-rule="evenodd" clip-rule="evenodd" d="M434.6 449.665C435.352 450.339 436.589 450.983 437.539 451.591C439.857 453.072 441.025 455.224 442.004 457.102C442.156 457.394 442.253 457.811 442.222 458.213C442.204 458.457 442.208 458.712 441.981 458.857C441.243 459.329 441.243 460.094 441.981 460.566C442.719 461.037 443.916 461.037 444.654 460.566C445.34 460.128 445.776 459.489 445.934 458.773C446.12 457.924 445.921 456.971 445.591 456.338C444.436 454.125 442.944 451.628 440.213 449.883C439.403 449.365 438.319 448.835 437.678 448.261C437.072 447.718 435.891 447.592 435.041 447.979C434.193 448.367 433.994 449.122 434.6 449.665Z" fill="url(#paint16_linear_831_1395)"/>
<path fill-rule="evenodd" clip-rule="evenodd" d="M690.531 437.487C690.77 437.956 690.327 438.305 689.849 438.6C689.109 439.055 688.08 439.35 687.271 439.409C686.297 439.48 685.695 440.106 685.928 440.807C686.161 441.507 687.141 442.018 688.115 441.947C689.751 441.828 691.932 441.148 693.148 440.099C694.157 439.229 694.551 438.136 693.931 436.921C693.582 436.235 692.536 435.804 691.597 435.96C690.659 436.116 690.181 436.801 690.531 437.487Z" fill="url(#paint17_linear_831_1395)"/>
<path fill-rule="evenodd" clip-rule="evenodd" d="M1250.81 303.333C1251.85 303.973 1252.06 305.148 1251.78 306.048C1251.02 308.43 1247.44 310.141 1244.27 311.269C1243.28 311.622 1242.94 312.443 1243.5 313.101C1244.06 313.76 1245.32 314.008 1246.31 313.656C1250.45 312.182 1254.82 309.773 1255.82 306.661C1256.38 304.897 1255.64 302.643 1253.61 301.388C1252.77 300.868 1251.47 300.882 1250.69 301.419C1249.92 301.956 1249.98 302.814 1250.81 303.333Z" fill="url(#paint18_linear_831_1395)"/>
<path fill-rule="evenodd" clip-rule="evenodd" d="M1236.26 316.73L1236.39 316.699C1237.25 316.499 1238.03 316.127 1238.86 315.902C1239.91 315.617 1240.39 314.821 1239.93 314.124C1239.47 313.428 1238.24 313.094 1237.19 313.379C1236.41 313.588 1235.71 313.943 1234.92 314.128C1234.76 314.164 1234.2 314.298 1233.9 314.421C1233.58 314.555 1233.35 314.715 1233.21 314.847C1232.91 315.129 1232.82 315.42 1232.84 315.689C1232.89 316.44 1233.86 317.041 1235 317.029C1235.49 317.024 1235.92 316.913 1236.26 316.73Z" fill="url(#paint19_linear_831_1395)"/>
<path fill-rule="evenodd" clip-rule="evenodd" d="M1272.14 123.737C1272.74 123.696 1273.33 123.984 1273.9 124.311C1275 124.956 1275.94 125.923 1275.94 126.691C1275.94 127.358 1276.79 127.899 1277.83 127.899C1278.88 127.899 1279.72 127.358 1279.72 126.691C1279.72 125.372 1278.34 123.632 1276.44 122.524C1274.99 121.683 1273.27 121.228 1271.73 121.336C1270.69 121.408 1269.95 122.004 1270.05 122.668C1270.16 123.33 1271.1 123.81 1272.14 123.737Z" fill="url(#paint20_linear_831_1395)"/>
<path fill-rule="evenodd" clip-rule="evenodd" d="M227.045 149.446C224.789 148.71 223.008 147.48 220.857 146.428C217.151 144.615 212.538 143.188 203.84 144.705C197.698 145.776 190.828 147.757 185.959 151.903C182.71 154.672 180.325 158.411 179.708 163.531C179.392 166.165 180.099 176.902 192.693 183.537C203.738 189.356 225.112 191.307 246.646 194.359C263.565 196.757 283.382 196.707 298.673 190.753C322.834 181.345 325.522 165.881 319.964 158.5C315.971 153.197 308.736 150.944 300.909 150.22C293.467 149.532 285.505 150.241 279.623 150.846C276.062 151.212 267.2 152.974 240.777 151.559C236.065 151.306 231.21 150.805 227.045 149.446ZM225.213 151.81C229.782 153.3 235.092 153.885 240.26 154.162C267.288 155.609 276.353 153.802 279.995 153.427C285.572 152.853 293.122 152.154 300.179 152.807C306.85 153.425 313.098 155.264 316.502 159.785C321.478 166.393 318.518 180.085 296.888 188.508C282.415 194.144 263.651 194.072 247.638 191.802C226.727 188.838 205.896 187.094 195.169 181.444C183.93 175.523 183.275 165.949 183.558 163.599C184.094 159.139 186.101 155.867 188.933 153.455C193.186 149.833 199.241 148.166 204.608 147.231C212.929 145.78 216.701 147.579 220.038 149.381C221.726 150.293 223.332 151.196 225.213 151.81Z" fill="url(#paint21_linear_831_1395)"/>
<path fill-rule="evenodd" clip-rule="evenodd" d="M317.638 139.675C316.281 132.191 311.333 130.166 305.398 127.625C302.478 126.376 298.866 125.953 295.218 126.106C289.991 126.323 284.717 127.725 281.572 129.29C279.992 130.077 278.925 130.929 278.466 131.699C278.012 132.458 278.056 133.182 278.562 133.829C279.533 135.07 281.903 135.876 284.771 136.344C286.806 136.675 289.081 136.874 290.937 137.141C291.868 137.275 292.676 137.4 293.179 137.625C303.75 142.34 309.551 144.731 312.602 145.339C314.961 145.808 316.359 145.427 317.211 144.76C319.126 143.263 318.86 141.869 318.263 140.735C318.034 140.302 317.687 139.945 317.638 139.675ZM314.369 143.035C314.045 142.987 313.237 142.857 312.553 142.656C309.376 141.723 304.086 139.455 295.409 135.584C293.883 134.903 290.576 134.58 287.359 134.165C286.044 133.996 284.749 133.799 283.679 133.501C282.961 133.301 282.333 133.083 282.046 132.715C282.007 132.666 282.083 132.618 282.121 132.559C282.189 132.455 282.287 132.35 282.406 132.243C282.77 131.913 283.308 131.581 283.965 131.254C286.615 129.935 291.068 128.773 295.473 128.589C298.246 128.474 301.01 128.744 303.231 129.694C308.304 131.865 312.609 133.565 313.769 139.961C313.829 140.292 314.083 140.719 314.383 141.205C314.684 141.694 315.101 142.338 314.369 143.035Z" fill="url(#paint22_linear_831_1395)"/>
<path fill-rule="evenodd" clip-rule="evenodd" d="M234.512 122.327C232.181 122.327 227.833 123.099 224.348 123.99C221.864 124.625 219.821 125.346 219.052 125.837C217.9 126.573 214.881 127.85 213.125 129.373C211.535 130.752 210.88 132.305 212.123 133.892C212.486 134.357 213.104 134.741 213.983 135.009C214.827 135.267 215.984 135.421 217.313 135.463C221.468 135.595 227.632 134.678 228.48 134.574C234.846 133.797 240.203 134.64 243.608 134.712C245.803 134.76 247.403 134.466 248.407 133.824C250.357 132.578 251.109 131.318 251.126 130.138C251.142 128.952 250.396 127.808 249.087 126.781C245.749 124.162 238.525 122.327 234.512 122.327ZM215.641 132.683C215.034 131.802 216.06 131.013 217.121 130.291C218.786 129.155 220.958 128.225 221.873 127.64C222.438 127.279 224.003 126.825 225.831 126.357C228.814 125.595 232.515 124.877 234.512 124.877C237.17 124.877 241.583 125.92 244.522 127.463C245.991 128.235 247.149 129.113 247.136 130.115C247.127 130.738 246.613 131.364 245.586 132.022C245.417 132.129 245.149 132.128 244.845 132.148C244.123 132.196 243.248 132.158 242.24 132.097C238.621 131.879 233.572 131.357 227.731 132.069C227.058 132.152 222.763 132.806 219.124 132.913C218.062 132.944 217.063 132.932 216.267 132.822C216.047 132.791 215.748 132.712 215.641 132.683Z" fill="url(#paint23_linear_831_1395)"/>
<path fill-rule="evenodd" clip-rule="evenodd" d="M39.6012 447.533C39.5023 447.549 39.4052 447.571 39.3119 447.597C37.6582 448.065 35.5802 448.825 34.2935 449.474C33.5115 449.868 32.9855 450.264 32.7554 450.559C31.1544 452.605 30.902 454.456 32.1028 455.78C33.2712 457.068 35.9749 458.053 41.0229 458.053C42.0415 458.053 44.8581 458.106 47.6801 457.054C52.7041 455.184 53.2272 452.281 51.2482 450.126C49.3874 448.099 45.0374 446.639 39.6012 447.533ZM36.0359 451.649C36.1053 451.608 36.622 451.301 37.0546 451.106C38.0936 450.637 39.4894 450.14 40.6633 449.799L40.6707 449.798C43.4355 449.372 45.7907 449.795 47.23 450.663C48.1747 451.232 48.708 451.989 48.5694 452.761C48.4215 453.588 47.5156 454.381 45.8185 455.013C43.7914 455.768 41.755 455.69 41.0229 455.69C39.2555 455.69 37.8754 455.567 36.8383 455.316C36.1099 455.14 35.5886 454.911 35.302 454.595C35.021 454.285 34.9803 453.911 35.0617 453.499C35.1744 452.93 35.5248 452.308 36.0359 451.649Z" fill="url(#paint24_linear_831_1395)"/>
<path fill-rule="evenodd" clip-rule="evenodd" d="M308.713 305.696C307.71 306.312 307.075 307.347 307.045 308.531C306.999 310.413 308.452 312.502 310.855 313.146C312.519 313.592 314.807 313.509 317.534 311.998C319.583 310.862 320.33 309.703 320.384 308.675C320.436 307.653 319.798 306.709 318.745 305.938C317.336 304.906 315.174 304.206 313.355 304.043C311.842 303.908 310.536 304.143 309.706 304.629C309.248 304.898 308.89 305.247 308.713 305.696ZM312.29 306.383C312.4 306.374 312.554 306.365 312.666 306.371C313.061 306.39 313.49 306.466 313.919 306.579C315.183 306.912 316.535 307.559 316.679 308.433C316.77 308.993 316.26 309.576 315.111 310.212C313.904 310.882 313.022 311.164 312.285 310.967C311.793 310.835 311.477 310.518 311.232 310.168C310.89 309.68 310.729 309.104 310.742 308.568C310.751 308.229 310.825 307.906 310.999 307.644C311.06 307.552 311.097 307.454 311.219 307.419C311.855 307.23 312.269 306.829 312.29 306.383Z" fill="url(#paint25_linear_831_1395)"/>
<path fill-rule="evenodd" clip-rule="evenodd" d="M365.338 303.812L365.3 303.794C364.86 303.605 364.167 303.478 363.304 303.591C362.408 303.709 361.073 304.155 360.281 304.527C359.695 304.802 359.347 305.093 359.224 305.251C358.224 306.529 357.735 307.959 358.631 309.086C359.063 309.629 359.796 310.134 361.012 310.523C364.659 311.688 368.044 310.172 369.25 308.265C370.039 307.019 369.836 305.671 368.551 304.782C367.863 304.307 366.83 303.924 365.338 303.812ZM363.659 306.04C363.886 306.105 364.139 306.141 364.404 306.141C365.074 306.141 365.56 306.196 365.836 306.386C366.199 306.637 366.046 307.027 365.823 307.379C365.346 308.133 364.108 308.87 362.666 308.409C361.302 307.973 361.846 307.184 362.398 306.478L363.659 306.04ZM362.562 305.06L362.562 305.065L362.562 305.06Z" fill="url(#paint26_linear_831_1395)"/>
<path fill-rule="evenodd" clip-rule="evenodd" d="M340.946 325.098C340.858 325.044 340.759 324.992 340.651 324.943C340.33 324.799 339.808 324.671 339.214 324.635C338.599 324.598 337.909 324.654 337.534 324.734C333.469 325.6 331.814 327.241 330.595 329.578C329.092 332.46 332.265 335.355 336.926 336.903C341.477 338.414 347.172 338.538 350.325 336.523C354.378 333.932 355.517 332.001 355.261 330.629C354.99 329.173 353.255 328.076 350.623 327.283C347.825 326.441 343.939 325.9 340.946 325.097V325.098ZM338.616 326.995C338.716 327.042 338.826 327.084 338.942 327.117C341.973 327.991 346.112 328.538 349.047 329.421C350.344 329.812 351.456 330.191 351.589 330.909C351.661 331.294 351.436 331.734 350.973 332.269C350.337 333.006 349.273 333.853 347.711 334.852C346.732 335.477 345.337 335.706 343.853 335.698C342.126 335.689 340.276 335.353 338.631 334.807C337.021 334.271 335.599 333.535 334.725 332.671C334.001 331.956 333.673 331.15 334.103 330.325C334.921 328.757 335.922 327.589 338.616 326.995ZM337.854 326.055L337.859 326.119C337.856 326.098 337.854 326.077 337.854 326.055ZM337.854 326.008V326.014V326.008Z" fill="url(#paint27_linear_831_1395)"/>
<path fill-rule="evenodd" clip-rule="evenodd" d="M194.327 336.364C192.325 337.135 191.419 338.135 191.165 339.124C190.78 340.624 191.997 342.205 193.865 343.182C196.145 344.374 199.193 344.613 201.274 343.283C203.463 341.884 203.637 339.283 202.363 337.492C201.454 336.213 199.859 335.392 198.077 335.341C196.954 335.309 195.654 335.564 194.327 336.364ZM196.368 338.338C196.512 338.286 196.644 338.221 196.761 338.147C197.194 337.87 197.546 337.691 197.912 337.702C198.128 337.708 198.293 337.808 198.452 337.919C198.669 338.069 198.848 338.26 198.998 338.47C199.686 339.437 199.842 340.857 198.659 341.612C197.961 342.058 196.971 341.753 196.206 341.353C195.337 340.898 194.635 340.204 194.814 339.507C194.927 339.067 195.443 338.674 196.368 338.338Z" fill="url(#paint28_linear_831_1395)"/>
<path fill-rule="evenodd" clip-rule="evenodd" d="M218.941 339.832C215.816 339.717 213.833 340.525 212.817 341.53C211.154 343.174 211.943 345.547 215.167 346.578C216.591 347.032 217.867 347.064 218.953 346.867C221.3 346.441 222.886 344.756 223.039 343.145C223.209 341.354 221.769 339.851 218.932 339.832H218.941ZM218.762 342.193C218.801 342.195 218.84 342.195 218.879 342.195C219.171 342.195 219.252 342.37 219.306 342.535C219.457 343.008 219.278 343.592 218.862 344.051C218.624 344.313 218.313 344.551 217.861 344.606C217.554 344.644 217.21 344.588 216.821 344.464C215.751 344.122 215.37 343.359 215.922 342.812C216.378 342.361 217.353 342.136 218.762 342.193Z" fill="url(#paint29_linear_831_1395)"/>
<path fill-rule="evenodd" clip-rule="evenodd" d="M186.623 346.212C186.408 346.198 186.191 346.208 185.982 346.241C181.542 346.95 179.005 349.245 178.183 351.583C177.627 353.168 177.882 354.759 178.76 355.882C185.566 364.581 202.14 364.035 211.532 358.033C213.394 356.842 214.001 355.742 213.922 354.797C213.807 353.418 212.113 352.167 209.368 351.204C206.167 350.082 201.517 349.249 197.944 348.54C196.636 348.282 195.486 348.042 194.644 347.805C194.315 347.712 194.045 347.644 193.902 347.553C192.488 346.649 192.154 346.583 186.623 346.212ZM186.582 348.585C188.198 348.692 189.243 348.75 189.981 348.823C190.658 348.89 190.89 348.97 191.287 349.224C191.89 349.609 193.284 350.048 195.172 350.454C198.641 351.199 204.056 352.037 207.589 353.276C208.43 353.57 209.153 353.883 209.665 354.235C209.974 354.449 210.209 354.667 210.23 354.922C210.266 355.362 209.785 355.807 208.917 356.362C201.232 361.273 187.637 361.943 182.068 354.825C181.512 354.114 181.439 353.103 181.791 352.1C182.315 350.609 183.836 349.109 186.58 348.586L186.582 348.585Z" fill="url(#paint30_linear_831_1395)"/>
<path fill-rule="evenodd" clip-rule="evenodd" d="M1512 0.08385C1498.77 -0.236339 1451.56 0.424122 1436.93 0.991247C1370.53 3.56576 1295.47 14.2543 1264.81 23.9492C1116.13 70.9626 988.847 73.6984 819.43 61.956C770.986 58.5981 698.215 49.6039 653.12 36.0667C638.196 31.5864 630.986 23.9574 623.673 18.0469C618.413 13.7959 613.067 10.4055 605.294 9.30139C553.085 1.88683 448.493 18.0422 395.838 23.844C294.103 35.0542 185.589 49.9016 82.0927 49.9016C54.9784 49.9016 27.1994 50.0924 0 48.5092L0.0175629 50.8823C27.2216 52.4483 54.9802 52.2646 82.0927 52.2646C185.795 52.2646 294.529 37.4048 396.466 26.1728C448.767 20.4094 552.634 4.24335 604.492 11.6083C613.265 12.8542 618.417 17.4845 624.514 22.63C631.061 28.1553 638.538 34.2998 651.548 38.2053C696.965 51.8387 770.243 60.9239 819.031 64.3054C989.226 76.1016 1117.08 73.2973 1266.45 26.067C1296.85 16.4531 1371.3 5.90278 1437.15 3.34954C1451.7 2.78537 1498.86 2.11309 1511.99 2.42265L1512 0.08385Z" fill="url(#paint31_linear_831_1395)"/>
<path fill-rule="evenodd" clip-rule="evenodd" d="M0.00462182 27.0561C40.0952 31.4944 81.1415 30.8227 121.714 34.0636C186.183 39.2138 260.809 35.6131 324.303 29.8161C384.694 24.3026 440.275 12.8496 501.471 12.8496C502.491 12.8496 503.32 12.3203 503.32 11.6681C503.32 11.0159 502.491 10.4866 501.471 10.4866C440.097 10.4866 384.348 21.9472 323.78 27.4773C260.594 33.246 186.329 36.8443 122.172 31.7189C81.4484 28.4656 40.2301 29.1721 0 24.6582L0.00462182 27.0561Z" fill="url(#paint32_linear_831_1395)"/>
<path fill-rule="evenodd" clip-rule="evenodd" d="M0.00934803 9.88151C3.77798 10.0215 7.28317 10.0457 10.2763 9.80648C71.9812 4.87722 111.24 12.2061 169.523 16.8619C219.577 20.8607 272.28 23.8706 323.018 20.6279C387.54 16.5045 451.277 12.5736 515.814 12.5736C516.835 12.5736 517.663 12.0443 517.663 11.3921C517.663 10.7399 516.835 10.2106 515.814 10.2106C451.154 10.2106 387.296 14.1456 322.65 18.2767C272.185 21.5022 219.767 18.4941 169.981 14.5172C111.365 9.83425 71.8759 2.50416 9.81777 7.46177C6.94947 7.69099 3.60143 7.66913 0.00195312 7.53385L0.00934803 9.88151Z" fill="url(#paint33_linear_831_1395)"/>
<path fill-rule="evenodd" clip-rule="evenodd" d="M176.071 17.3391L176.21 17.3385C177.295 17.3361 182.632 17.3397 183.546 17.3397C188.13 17.3397 192.737 17.0466 197.322 17.0466C212.421 17.0466 227.412 15.2886 242.708 15.2886C286.315 15.2886 330.098 17.3397 373.825 17.3397C374.845 17.3397 375.673 16.8103 375.673 16.1581C375.673 15.506 374.845 14.9766 373.825 14.9766C330.098 14.9766 286.315 12.9255 242.708 12.9255C227.412 12.9255 212.421 14.6836 197.322 14.6836C192.737 14.6836 188.13 14.9766 183.546 14.9766C182.484 14.9766 175.711 14.992 175.674 14.9967C174.67 15.1155 174.007 15.7328 174.194 16.3738C174.363 16.9557 175.173 17.3586 176.071 17.3391Z" fill="url(#paint34_linear_831_1395)"/>
<path fill-rule="evenodd" clip-rule="evenodd" d="M1347.39 239.788C1342.54 239.376 1337.94 239.74 1334.6 240.774C1332.11 241.546 1330.27 242.688 1329.35 244.137C1326.31 248.969 1326.8 252.431 1329.26 254.819C1330.79 256.296 1333.09 257.393 1335.95 258.14C1339.91 259.17 1344.98 259.534 1350.36 259.396C1355.53 259.263 1359.26 257.766 1361.48 255.678C1364.77 252.583 1364.73 248.111 1360.92 244.654C1358.28 242.258 1353.82 240.334 1347.39 239.788ZM1346.91 242.13C1352.11 242.572 1355.76 244.075 1357.9 246.015C1360.78 248.629 1360.9 252.009 1358.42 254.349C1356.78 255.884 1354.01 256.937 1350.21 257.034C1346.19 257.138 1342.35 256.95 1339.12 256.346C1336.19 255.796 1333.78 254.909 1332.35 253.52C1330.4 251.619 1330.36 248.867 1332.78 245.021C1333.37 244.091 1334.6 243.397 1336.21 242.902C1339 242.038 1342.85 241.786 1346.91 242.13Z" fill="url(#paint35_linear_831_1395)"/>
<path fill-rule="evenodd" clip-rule="evenodd" d="M1242.95 120.386C1242.91 120.401 1242.87 120.416 1242.82 120.433C1242.39 120.603 1238.67 121.713 1236.01 123.377C1234.11 124.571 1232.77 126.045 1232.91 127.636C1233 128.715 1233.74 129.885 1235.6 131.074C1236.45 131.627 1237.59 131.971 1238.93 132.122C1240.54 132.304 1242.51 132.199 1244.62 131.928C1249.13 131.347 1254.4 129.954 1257.55 129.954C1261.04 129.954 1266.03 131.55 1270.5 132.467C1274.15 133.216 1277.5 133.491 1279.78 132.762C1283.53 131.564 1285.55 129.834 1286.19 127.989C1286.82 126.136 1286.07 124.121 1284 122.306C1278.52 117.489 1263.16 113.93 1242.95 120.386ZM1244.62 122.497C1262.5 116.783 1276.16 119.43 1281.01 123.696C1282.4 124.91 1283 126.241 1282.57 127.481C1282.15 128.729 1280.67 129.837 1278.13 130.648C1277.44 130.868 1276.59 130.883 1275.64 130.82C1274.41 130.739 1273.05 130.51 1271.64 130.218C1266.79 129.224 1261.33 127.591 1257.55 127.591C1254.22 127.591 1248.65 128.998 1243.89 129.611C1242.53 129.787 1241.24 129.893 1240.12 129.839C1239.35 129.801 1238.67 129.701 1238.21 129.403C1237.17 128.736 1236.65 128.115 1236.59 127.51C1236.52 126.575 1237.48 125.767 1238.6 125.066C1240.82 123.677 1243.89 122.743 1244.62 122.497V122.497Z" fill="url(#paint36_linear_831_1395)"/>
<path fill-rule="evenodd" clip-rule="evenodd" d="M656.33 437.142C656.297 437.164 656.273 437.186 656.242 437.212C655.953 437.461 653.276 439.218 651.897 441.424C650.913 443.005 650.614 444.807 651.726 446.519C652.48 447.68 653.875 448.844 656.295 449.864C657.417 450.339 658.66 450.545 659.968 450.512C661.537 450.471 674.602 449.808 677.457 449.342C680.622 448.825 692.5 448.119 697.361 445.168C700.196 443.447 700.769 441.128 700.203 439.026C699.631 436.915 697.694 434.833 694.702 433.162C686.749 428.729 670.627 427.126 656.33 437.142ZM659.146 439.194C671.802 430.329 685.81 431.192 692.851 435.118C694.86 436.234 696.23 437.595 696.614 439.007C697.003 440.429 696.611 442.068 694.551 443.112C689.806 445.511 678.874 446.015 675.45 446.574C672.436 447.066 660.678 447.743 659.631 447.849C658.905 447.923 658.231 447.914 657.628 447.658C656.268 447.087 655.414 446.487 654.988 445.836C654.342 444.83 654.711 443.808 655.289 442.879C656.437 441.04 658.637 439.569 659.146 439.193L659.146 439.194Z" fill="url(#paint37_linear_831_1395)"/>
<path fill-rule="evenodd" clip-rule="evenodd" d="M1242.75 149.018C1241.95 151.115 1242.51 152.607 1243.63 153.601C1245.47 155.238 1249.11 155.677 1252.53 154.989C1255.42 154.406 1258.06 153.041 1259.06 151.204C1259.75 149.947 1259.72 148.456 1258.44 146.813C1256.38 144.196 1252.73 143.722 1249.39 144.466C1246.31 145.149 1243.53 146.958 1242.75 149.018ZM1246.35 149.574C1246.84 148.263 1248.64 147.133 1250.6 146.699C1252.27 146.326 1254.1 146.56 1255.13 147.87C1255.88 148.828 1255.97 149.691 1255.57 150.424C1254.94 151.572 1253.22 152.372 1251.41 152.735C1249.61 153.1 1247.6 153.089 1246.63 152.222C1245.98 151.65 1245.88 150.779 1246.35 149.574Z" fill="url(#paint38_linear_831_1395)"/>
<path fill-rule="evenodd" clip-rule="evenodd" d="M1282.46 147.406C1279.96 148.288 1279.06 149.945 1279.4 151.516C1279.73 153.075 1281.32 154.488 1283.5 154.95C1285.33 155.338 1287.71 155.145 1290.2 153.553C1291.32 152.835 1291.89 151.516 1291.58 150.205C1291.3 148.919 1290.21 147.699 1288.49 147.118C1287.02 146.621 1285 146.513 1282.46 147.406ZM1284.24 149.476C1285.32 149.099 1286.14 148.997 1286.76 149.207C1287.48 149.45 1287.8 150.008 1287.93 150.545C1288.04 151.058 1288.02 151.601 1287.59 151.881C1286.45 152.603 1285.49 152.884 1284.67 152.708C1283.74 152.512 1283.2 151.854 1283.06 151.194C1282.92 150.547 1283.21 149.84 1284.24 149.476Z" fill="url(#paint39_linear_831_1395)"/>
<path fill-rule="evenodd" clip-rule="evenodd" d="M1110.07 435.041C1110.03 435.048 1109.99 435.055 1109.96 435.064C1100.41 437.206 1096.01 440.645 1094.81 444.203C1093.4 448.376 1096.44 452.853 1101.42 455.977C1106.44 459.13 1113.37 460.853 1119.37 459.701C1143.8 455.01 1135.07 430.556 1110.07 435.041ZM1111.12 437.306C1131.43 433.703 1138.18 453.623 1118.3 457.437C1113.5 458.36 1108.03 456.818 1104 454.291C1099.94 451.735 1097.27 448.115 1098.42 444.701C1099.41 441.765 1103.26 439.081 1111.11 437.309L1111.12 437.306Z" fill="url(#paint40_linear_831_1395)"/>
<path fill-rule="evenodd" clip-rule="evenodd" d="M427.95 458.009C431.52 461.647 434.916 463.842 437.888 464.992C441.401 466.353 444.462 466.361 446.838 465.6C448.719 465 450.209 463.881 451.129 462.421C452.383 460.432 452.579 457.787 451.328 455.146C450.131 452.62 446.37 445.466 430.29 441.456C425.565 440.278 416.323 440.752 410.74 443.112C406.628 444.845 404.374 447.502 406.506 451.098C407.893 453.439 409.516 454.561 411.165 455.113C412.365 455.515 413.634 455.64 414.981 455.613C418.401 455.557 422.635 454.217 427.95 458.009ZM430.971 456.723C430.915 456.666 430.848 456.609 430.779 456.559C425.129 452.467 420.496 452.862 416.59 453.155C415.237 453.258 414.007 453.404 412.882 453.063C411.765 452.727 410.877 451.906 409.946 450.33C408.539 447.96 410.132 446.235 412.839 445.092C417.477 443.133 425.134 442.671 429.054 443.646C443.334 447.209 446.74 453.514 447.806 455.759C448.789 457.833 448.694 459.914 447.71 461.476C447.137 462.383 446.271 463.111 445.099 463.482C443.664 463.942 441.839 463.811 439.718 462.99C437.081 461.969 434.139 459.971 430.971 456.723Z" fill="url(#paint41_linear_831_1395)"/>
<path fill-rule="evenodd" clip-rule="evenodd" d="M1419.74 462.352C1414.72 462.224 1411.66 463.983 1410.8 466.006C1409.92 468.063 1411.24 470.538 1415.47 471.889C1417.22 472.45 1419.03 472.382 1420.67 471.884C1422.77 471.254 1424.62 469.864 1425.56 468.346C1426.61 466.676 1426.52 464.896 1425.03 463.733C1424.03 462.942 1422.36 462.357 1419.74 462.352ZM1419.63 464.714C1419.66 464.714 1419.68 464.715 1419.7 464.715C1420.89 464.715 1421.71 464.866 1422.16 465.223C1422.88 465.788 1422.64 466.658 1422.14 467.47C1421.63 468.288 1420.74 469.065 1419.68 469.534C1418.89 469.878 1417.99 470.056 1417.13 469.776C1414.81 469.037 1413.88 467.754 1414.36 466.63C1414.86 465.476 1416.76 464.635 1419.63 464.714Z" fill="url(#paint42_linear_831_1395)"/>
<path fill-rule="evenodd" clip-rule="evenodd" d="M679.901 422.414C680.005 422.703 680.268 422.934 680.634 423.072C683.222 424.039 683.299 424.076 683.697 424.266C686.436 425.594 688.41 425.3 689.5 424.681C690.12 424.331 690.608 423.82 690.88 423.151C691.273 422.185 691.184 420.765 690.657 419.365C690.06 417.773 688.928 416.212 687.63 415.36C686.494 414.605 685.178 414.358 683.921 414.596C683.067 414.761 682.163 415.161 681.327 415.941C680.245 416.954 679.673 417.759 679.408 418.534C679.033 419.628 679.289 420.708 679.901 422.414ZM687.518 422.749C687.452 422.738 687.38 422.727 687.317 422.717C686.915 422.62 686.455 422.444 685.921 422.188C685.518 421.991 685.422 421.935 683.14 421.082C682.794 420.133 682.576 419.486 682.808 418.808C682.97 418.338 683.371 417.865 684.03 417.248C684.179 417.108 684.281 416.99 684.431 416.963C684.49 416.955 684.534 416.989 684.593 417.006C684.757 417.061 684.913 417.147 685.067 417.251C686.036 417.888 686.817 419.08 687.263 420.268C687.392 420.608 687.49 420.953 687.552 421.288C687.644 421.757 687.666 422.203 687.579 422.578C687.567 422.628 687.543 422.695 687.518 422.749Z" fill="url(#paint43_linear_831_1395)"/>
<path fill-rule="evenodd" clip-rule="evenodd" d="M1345.84 346.648C1342.4 346.648 1339.85 347.202 1338.24 348.193C1336.55 349.243 1335.75 350.814 1336.31 352.994C1336.72 354.588 1337.8 355.622 1339.14 356.274C1341.12 357.234 1343.79 357.37 1346.18 357.02C1348.92 356.62 1351.18 355.562 1351.8 354.736C1353.93 351.939 1351.99 349.15 1349.56 347.731C1348.32 347.008 1346.93 346.648 1345.84 346.648ZM1345.84 349.011C1346.03 349.011 1346.25 349.092 1346.48 349.185C1346.89 349.352 1347.3 349.596 1347.67 349.892C1348.83 350.815 1349.57 352.256 1348.48 353.706C1348.39 353.817 1348.18 353.91 1347.94 354.019C1347.28 354.314 1346.36 354.571 1345.36 354.716C1344.01 354.913 1342.48 354.932 1341.37 354.392C1340.66 354.045 1340.17 353.464 1339.96 352.615C1339.65 351.393 1339.87 350.479 1340.82 349.891C1341.86 349.244 1343.59 349.011 1345.84 349.011Z" fill="url(#paint44_linear_831_1395)"/>
<path fill-rule="evenodd" clip-rule="evenodd" d="M1336.74 296.383C1333.03 295.865 1330.01 297.224 1328.45 299.309C1326.22 302.286 1327.2 306.639 1333.18 308.067C1338.74 309.394 1343.01 306.596 1344.08 303.287C1344.71 301.347 1344.18 299.304 1342.38 297.97C1341.14 297.048 1339.3 296.417 1336.74 296.383ZM1336.07 298.709C1336.21 298.733 1336.37 298.744 1336.52 298.744C1337.9 298.744 1338.92 299.023 1339.58 299.513C1340.69 300.335 1340.85 301.613 1340.46 302.807C1339.84 304.723 1337.69 306.622 1334.47 305.854C1330.74 304.962 1330.39 302.187 1331.78 300.328C1332.61 299.23 1334.1 298.397 1336.07 298.709Z" fill="url(#paint45_linear_831_1395)"/>
<path fill-rule="evenodd" clip-rule="evenodd" d="M1205.98 274.722C1205.78 274.621 1205.55 274.547 1205.3 274.506C1196.8 273.102 1190.37 275.526 1187.32 278.367C1185.91 279.679 1185.21 281.093 1185.26 282.308C1185.32 283.916 1185.61 284.938 1185.99 285.545C1186.49 286.326 1187.23 286.682 1187.98 286.839C1188.94 287.04 1190.24 286.861 1191.7 286.269C1192.74 285.848 1194 285.216 1195.43 284.752C1196.58 284.382 1197.87 284.113 1199.3 284.293C1203.15 284.78 1206.11 284.616 1208.13 284.079C1209.81 283.629 1210.92 282.917 1211.49 282.062C1212.05 281.222 1212.1 280.216 1211.49 279.111C1210.76 277.777 1208.99 276.237 1205.98 274.722ZM1189.32 284.436C1189.28 284.366 1189.25 284.289 1189.23 284.215C1189.08 283.738 1188.99 283.095 1188.96 282.247C1188.93 281.458 1189.45 280.556 1190.36 279.705C1192.69 277.541 1197.58 275.772 1204 276.735L1204.01 276.736C1205.79 277.666 1207.02 278.58 1207.69 279.435C1208.21 280.082 1208.41 280.663 1208.09 281.136C1207.79 281.591 1207.03 281.876 1205.99 282.05C1204.5 282.302 1202.49 282.288 1200.01 281.975C1198.15 281.739 1196.42 281.931 1194.84 282.332C1193.45 282.686 1192.18 283.207 1191.07 283.691C1190.41 283.98 1189.83 284.26 1189.32 284.436Z" fill="url(#paint46_linear_831_1395)"/>
<path fill-rule="evenodd" clip-rule="evenodd" d="M1266.5 274.14C1263.88 272.911 1258.84 273.621 1255.34 275.385C1252.67 276.732 1250.92 278.619 1251.19 280.602C1251.41 282.195 1252.68 282.756 1254.37 282.917C1255.27 283.003 1256.31 282.95 1257.29 282.96C1257.89 282.965 1258.48 282.964 1258.85 283.187C1259.26 283.437 1260.22 284.609 1261.63 285.306C1262.9 285.933 1264.48 286.2 1266.27 285.68C1268.73 284.967 1270.19 283.93 1271 282.829C1271.82 281.726 1272.01 280.487 1271.63 279.263C1271.01 277.241 1268.82 275.226 1266.5 274.14ZM1264.31 276.325C1265.81 277.027 1267.26 278.199 1268.04 279.478C1268.59 280.387 1268.89 281.322 1268.23 282.153C1267.81 282.671 1267.03 283.069 1265.86 283.407C1264.8 283.717 1264 283.273 1263.33 282.835C1262.3 282.161 1261.59 281.319 1261.24 281.113C1260.3 280.546 1258.77 280.488 1257.2 280.508C1256.55 280.516 1255.9 280.531 1255.34 280.447C1254.87 280.377 1254.49 280.205 1254.43 279.733C1254.29 278.791 1255.32 277.964 1256.59 277.324C1259.01 276.106 1262.51 275.477 1264.31 276.325Z" fill="url(#paint47_linear_831_1395)"/>
<path fill-rule="evenodd" clip-rule="evenodd" d="M1229.99 296.109C1218.17 297.317 1214.43 294.236 1212.59 293.147C1211.15 292.289 1208.68 291.586 1206.08 291.26C1203.44 290.929 1200.68 290.989 1198.72 291.521C1179.58 296.703 1185.06 309.89 1186.84 312.498C1189.63 316.623 1197.8 327.709 1221.25 324.795C1233.17 323.314 1250.43 317.878 1259.11 311.59C1262.88 308.858 1265.05 305.945 1264.86 303.124C1264.73 301.179 1263.52 299.248 1260.83 297.426C1258.31 295.713 1253.63 294.99 1248.47 294.904C1241.4 294.786 1233.44 295.757 1229.99 296.109ZM1230.41 298.565C1233.73 298.225 1241.41 297.274 1248.22 297.388C1252.31 297.456 1256.11 297.844 1258.11 299.201C1260.07 300.531 1261.03 301.914 1261.12 303.332C1261.27 305.556 1259.37 307.798 1256.4 309.951C1248.23 315.875 1231.94 320.959 1220.72 322.354C1199.92 324.936 1192.73 315.059 1190.25 311.402C1188.77 309.221 1184.01 298.15 1200.01 293.816C1201.4 293.438 1203.37 293.467 1205.24 293.702C1207.15 293.941 1208.98 294.402 1210.04 295.028C1212.19 296.307 1216.55 299.98 1230.41 298.565Z" fill="url(#paint48_linear_831_1395)"/>
<path fill-rule="evenodd" clip-rule="evenodd" d="M1188.47 378.446C1181.49 377.979 1173.27 377.604 1166.18 378.409C1161.14 378.981 1156.65 380.151 1153.43 382.212C1149.02 385.028 1147.59 387.794 1148.09 390.318C1148.59 392.818 1151.03 395.139 1154.78 397.093C1161.03 400.357 1170.94 402.628 1180.19 403.168C1186.49 403.535 1192.48 403.093 1196.85 401.697C1207.45 398.309 1211.37 392.484 1209.72 387.569C1208.07 382.657 1200.82 378.466 1188.47 378.446H1188.47ZM1188.18 380.803C1188.25 380.807 1188.31 380.809 1188.38 380.809C1198.55 380.809 1204.75 384.028 1206.11 388.065C1207.47 392.113 1203.93 396.793 1195.2 399.583C1191.35 400.812 1186.07 401.138 1180.53 400.814C1172.02 400.317 1162.87 398.267 1157.12 395.263C1154.19 393.736 1152.15 391.975 1151.76 390.022C1151.38 388.093 1152.67 386.035 1156.04 383.884C1158.76 382.147 1162.58 381.218 1166.82 380.736C1173.62 379.965 1181.5 380.354 1188.18 380.803Z" fill="url(#paint49_linear_831_1395)"/>
<path fill-rule="evenodd" clip-rule="evenodd" d="M57.1651 403.257C57.0957 403.244 57.0255 403.233 56.9543 403.225C51.019 402.567 47.3104 405.22 46.5025 408.169C45.9627 410.142 46.7826 412.213 48.9613 413.493C51.202 414.808 55.0233 415.416 60.6518 413.866C62.8592 413.258 64.3224 411.673 64.4694 409.801C64.6672 407.271 62.5116 404.272 57.1651 403.257ZM56.2204 405.543C59.5453 406.209 60.9014 408.089 60.7766 409.682C60.7063 410.573 60.2377 411.407 59.1885 411.696C55.4735 412.719 52.9417 412.621 51.4627 411.753C50.1732 410.995 49.8256 409.744 50.1455 408.576C50.6234 406.83 52.7272 405.194 56.213 405.542L56.2204 405.543Z" fill="url(#paint50_linear_831_1395)"/>
<path fill-rule="evenodd" clip-rule="evenodd" d="M26.7864 473.088C26.7388 473.08 26.6907 473.072 26.6419 473.067C22.5733 472.616 20.0312 474.435 19.4774 476.456C19.1073 477.808 19.6694 479.228 21.1628 480.105C22.6988 481.007 25.3182 481.424 29.1764 480.361C30.6896 479.944 31.6926 478.857 31.7934 477.574C31.929 475.84 30.4513 473.784 26.7864 473.088ZM26.1388 474.656C28.418 475.112 29.3475 476.401 29.262 477.493C29.2138 478.103 28.8926 478.675 28.1734 478.873C25.6268 479.575 23.8913 479.507 22.8775 478.913C21.9935 478.393 21.7553 477.536 21.9745 476.735C22.3021 475.538 23.7443 474.416 26.1337 474.655L26.1388 474.656Z" fill="url(#paint51_linear_831_1395)"/>
<path fill-rule="evenodd" clip-rule="evenodd" d="M371.796 436.331C371.641 436.366 371.492 436.414 371.356 436.474C369.291 437.385 368.583 438.498 368.588 439.54C368.594 441.039 370.266 442.487 372.236 443.159C373.939 443.741 375.785 443.737 377.111 443.103C378.096 442.631 378.95 441.738 378.95 440.18C378.95 438.403 378.096 437.057 376.569 436.45C375.473 436.015 373.925 435.856 371.796 436.331ZM373.271 438.507C373.857 438.383 374.292 438.328 374.616 438.457C374.821 438.538 374.911 438.695 375.001 438.87C375.189 439.235 375.253 439.682 375.253 440.18C375.253 440.481 375.208 440.733 375.112 440.939C375.055 441.062 375.009 441.164 374.89 441.213C374.792 441.254 374.668 441.229 374.544 441.213C374.316 441.183 374.085 441.118 373.861 441.033C373.211 440.786 372.618 440.372 372.38 439.894C372.149 439.433 372.396 438.939 373.267 438.508L373.271 438.507Z" fill="url(#paint52_linear_831_1395)"/>
<path fill-rule="evenodd" clip-rule="evenodd" d="M209.13 417.341C208.975 417.376 208.826 417.425 208.69 417.484C206.625 418.395 205.917 419.508 205.922 420.55C205.928 422.05 207.6 423.498 209.57 424.17C211.273 424.751 213.119 424.748 214.445 424.113C215.43 423.642 216.284 422.748 216.284 421.19C216.284 419.413 215.43 418.068 213.903 417.461C212.807 417.025 211.259 416.866 209.13 417.341ZM210.605 419.517C211.191 419.394 211.626 419.339 211.95 419.467C212.155 419.549 212.245 419.705 212.335 419.881C212.523 420.245 212.587 420.693 212.587 421.19C212.587 421.491 212.542 421.744 212.446 421.949C212.389 422.073 212.343 422.174 212.224 422.223C212.126 422.265 212.002 422.239 211.878 422.223C211.65 422.193 211.419 422.128 211.195 422.044C210.545 421.797 209.952 421.383 209.714 420.905C209.483 420.444 209.73 419.949 210.601 419.518L210.605 419.517Z" fill="url(#paint53_linear_831_1395)"/>
<path fill-rule="evenodd" clip-rule="evenodd" d="M408.309 470.031C408.134 470.031 407.958 470.047 407.789 470.079C405.485 470.511 404.513 471.36 404.212 472.231C403.813 473.385 404.813 474.818 406.419 475.801C407.464 476.442 408.717 476.875 409.775 476.989C410.925 477.112 411.93 476.922 412.675 476.446C414.675 475.167 415.152 473.572 414.415 472.323C413.682 471.079 411.709 470.031 408.309 470.031ZM410.285 474.62C410.001 474.533 409.345 474.321 408.978 474.095C408.525 473.818 408.125 473.48 407.921 473.132C407.83 472.977 407.732 472.823 407.853 472.69C407.975 472.554 408.226 472.472 408.574 472.397L408.574 472.397C409.823 472.427 410.674 472.68 410.955 473.156C411.222 473.61 410.934 474.143 410.285 474.62Z" fill="url(#paint54_linear_831_1395)"/>
<path fill-rule="evenodd" clip-rule="evenodd" d="M360.683 393.962C360.642 393.955 360.602 393.949 360.561 393.943C356.015 393.362 352.761 394.293 350.879 395.739C347.97 397.972 348.265 401.593 352.417 403.688C354.837 404.909 357.3 405.295 359.513 405.16C364.775 404.841 368.695 401.464 367.959 398.442C367.509 396.595 365.428 394.786 360.683 393.962ZM359.774 396.253C362.597 396.753 364.036 397.699 364.305 398.805C364.943 401.421 359.689 404.346 354.708 401.834C352.309 400.624 352.041 398.54 353.722 397.25C354.889 396.353 356.959 395.904 359.769 396.252L359.774 396.253Z" fill="url(#paint55_linear_831_1395)"/>
<path fill-rule="evenodd" clip-rule="evenodd" d="M652.722 420.033C652.681 420.026 652.64 420.02 652.6 420.015C648.054 419.433 644.8 420.365 642.918 421.81C640.009 424.044 640.304 427.665 644.455 429.76C646.876 430.981 649.339 431.366 651.551 431.232C656.814 430.913 660.733 427.535 659.997 424.514C659.547 422.666 657.466 420.858 652.722 420.033ZM651.812 422.324C654.636 422.825 656.074 423.77 656.343 424.877C656.981 427.493 651.728 430.418 646.747 427.905C644.348 426.695 644.08 424.612 645.76 423.321C646.928 422.424 648.997 421.975 651.807 422.324L651.812 422.324Z" fill="url(#paint56_linear_831_1395)"/>
<path fill-rule="evenodd" clip-rule="evenodd" d="M1369.62 418.843C1365.64 420.103 1363.88 421.89 1363.43 423.533C1362.99 425.108 1363.77 426.656 1365.34 427.721C1367.63 429.28 1371.54 429.782 1375.19 427.96C1378.75 426.187 1380.08 424.433 1380.27 423.007C1380.46 421.563 1379.49 420.318 1377.87 419.483C1375.64 418.338 1372.18 418.027 1369.62 418.843ZM1370.59 421.104C1372.14 420.614 1374.17 420.907 1375.51 421.595C1376.27 421.984 1376.84 422.509 1376.75 423.183C1376.65 424.027 1375.6 424.938 1373.5 425.986C1371.44 427.01 1369.28 426.658 1367.99 425.782C1367.17 425.224 1366.66 424.445 1366.89 423.62C1367.15 422.689 1368.34 421.818 1370.59 421.104Z" fill="url(#paint57_linear_831_1395)"/>
<path fill-rule="evenodd" clip-rule="evenodd" d="M976.722 465.225C980.207 464.782 981.251 462.843 980.623 461.128C980.253 460.119 979.31 459.17 977.822 458.663C976.824 458.324 975.557 458.165 973.986 458.371C969.66 458.942 969.004 461.263 969.512 462.456C970.002 463.601 970.797 464.385 971.934 464.851C973.043 465.31 974.568 465.499 976.722 465.225ZM976.001 462.907C975.077 463.025 974.411 463.061 973.93 462.864C973.468 462.673 973.274 462.302 973.08 461.834C972.914 461.46 973.376 460.864 974.735 460.686C975.28 460.613 975.733 460.631 976.084 460.75C976.62 460.932 976.888 461.305 977.018 461.667C977.203 462.168 977.018 462.778 976.001 462.907Z" fill="url(#paint58_linear_831_1395)"/>
<path fill-rule="evenodd" clip-rule="evenodd" d="M185.414 438.812C180.936 439.711 177.37 441.724 176.148 443.767C175.179 445.387 175.506 447.049 177.642 448.413C179.134 449.367 181.48 449.722 184.229 449.52C189.515 449.132 196.432 446.705 199.408 444.803C202.59 442.77 202.965 440.284 200.509 438.873C199.58 438.338 198.164 437.917 196.148 437.78C193.688 437.611 190.166 437.86 185.414 438.812ZM186.521 441.067C190.614 440.246 193.636 439.985 195.755 440.129C197.141 440.224 198.04 440.435 198.341 440.894C198.507 441.147 198.436 441.442 198.266 441.747C198.005 442.213 197.49 442.687 196.794 443.132C194.598 444.536 189.901 446.261 185.741 446.938C184.462 447.147 183.24 447.257 182.174 447.201C181.404 447.16 180.725 447.043 180.256 446.743C178.983 445.929 179.194 444.888 180.132 443.948C181.364 442.711 183.737 441.626 186.521 441.067Z" fill="url(#paint59_linear_831_1395)"/>
<path fill-rule="evenodd" clip-rule="evenodd" d="M174.802 468.659C174.556 468.758 174.355 468.894 174.216 469.057C171.179 472.594 171.699 477.183 175.316 479.373C177.821 480.89 181.844 481.455 187.387 479.684C190.71 478.622 192.567 476.075 192.605 473.488C192.641 470.888 190.848 468.33 187.355 467.263C184.488 466.388 180.301 466.454 174.802 468.659ZM176.992 470.347C180.896 468.838 183.821 468.59 185.89 469.222C188.235 469.938 189.233 471.723 189.208 473.468C189.183 475.225 188.125 477.021 185.867 477.743C182.099 478.947 179.356 478.829 177.652 477.797C176.639 477.184 176.028 476.29 175.757 475.293C175.334 473.734 175.749 471.923 176.99 470.348L176.992 470.347Z" fill="url(#paint60_linear_831_1395)"/>
<path fill-rule="evenodd" clip-rule="evenodd" d="M61.4484 350.287C61.4059 350.293 61.3633 350.3 61.3218 350.309C47.5617 353.092 43.1377 358.387 44.1018 363.306C45.5318 370.602 59.4388 377.476 74.5623 375.06C90.4346 372.524 94.1792 362.299 87.5922 355.63C83.2597 351.243 74.42 348.297 61.4484 350.287ZM62.3746 352.575C73.2839 350.915 80.8175 353.198 84.465 356.891C89.8596 362.353 86.6641 370.691 73.6648 372.767C60.8901 374.809 48.9778 369.176 47.7706 363.012C46.9775 358.966 51.077 354.874 62.3644 352.577L62.3746 352.575Z" fill="url(#paint61_linear_831_1395)"/>
<path fill-rule="evenodd" clip-rule="evenodd" d="M742.044 55.8627C761.808 56.6041 826.373 57.5351 936.39 61.8518C1019.73 65.1216 1191.17 49.4241 1236.96 34.7922C1237.87 34.5004 1238.24 33.7903 1237.79 33.2072C1237.33 32.6242 1236.22 32.3873 1235.3 32.6785C1189.8 47.2182 1019.43 62.742 936.621 59.4929C826.594 55.1762 762.025 54.2452 742.261 53.5038C741.242 53.4654 740.367 53.9628 740.307 54.6138C740.247 55.2649 741.026 55.8243 742.044 55.8627Z" fill="url(#paint62_linear_831_1395)"/>
<path fill-rule="evenodd" clip-rule="evenodd" d="M1279.68 19.848C1264.75 18.0326 1245.8 23.2242 1232.53 26.0521C1227.71 27.0777 1220.49 26.7729 1213.3 26.5035C1205.58 26.2146 1197.9 25.9623 1192.85 27.0393C1175.33 30.7699 1188.52 28.4778 1103.95 43.8918C1075.93 48.9994 1050.94 51.6974 1025.51 52.987C1024.49 53.0384 1023.72 53.6085 1023.81 54.2583C1023.89 54.9081 1024.78 55.3943 1025.79 55.3429C1051.46 54.0415 1076.69 51.3187 1104.97 46.1644C1189.67 30.7232 1176.47 33.0183 1194.01 29.2812C1198.72 28.2769 1205.9 28.5936 1213.09 28.8624C1220.8 29.1512 1228.54 29.3934 1233.7 28.2935C1246.47 25.5742 1264.63 20.4234 1278.99 22.1691C1279.99 22.2908 1280.96 21.8702 1281.15 21.2292C1281.34 20.5888 1280.69 19.9697 1279.68 19.848Z" fill="url(#paint63_linear_831_1395)"/>
<path fill-rule="evenodd" clip-rule="evenodd" d="M928.736 34.7388C948.027 39.4058 971.497 40.6617 993.303 42.2101C1062.94 47.1553 1125.81 43.4436 1192.24 29.2932C1193.21 29.087 1193.72 28.4171 1193.41 27.7986C1193.09 27.1801 1192.03 26.8451 1191.07 27.0513C1125.17 41.09 1062.81 44.7674 993.71 39.8612C972.218 38.3347 949.063 37.1302 930.049 32.5288C929.097 32.2984 928.024 32.6056 927.664 33.2158C927.303 33.8255 927.784 34.5084 928.736 34.7388Z" fill="url(#paint64_linear_831_1395)"/>
<path fill-rule="evenodd" clip-rule="evenodd" d="M1192.27 29.2991C1196.45 28.5813 1204.77 28.9565 1213.57 29.6151C1227.29 30.6431 1242.13 32.4206 1245.23 32.4206C1246.25 32.4206 1247.08 31.8907 1247.08 31.2391C1247.08 30.5869 1246.25 30.0576 1245.23 30.0576C1242.18 30.0576 1227.54 28.2824 1213.99 27.2681C1204.62 26.5663 1195.76 26.2526 1191.31 27.0176C1190.33 27.1871 1189.74 27.8358 1190.01 28.4655C1190.28 29.0953 1191.29 29.4686 1192.27 29.2991Z" fill="url(#paint65_linear_831_1395)"/>
<path fill-rule="evenodd" clip-rule="evenodd" d="M627.748 21.4401C627.269 20.8972 626.202 20.6822 625.318 20.9622C624.403 21.2517 624.029 21.9612 624.482 22.5455C624.746 22.8869 625.251 23.252 626.063 23.5751C627.224 24.0365 629.229 24.489 631.845 24.889C645.466 26.9714 676.877 28.1228 681.919 28.1228C706.302 28.1228 735.506 30.6518 764.543 31.9148C793.878 33.1903 823.041 33.1655 846.998 28.0619C847.966 27.8557 848.49 27.1864 848.168 26.5673C847.845 25.9488 846.797 25.6138 845.829 25.82C822.286 30.8355 793.622 30.8107 764.794 29.5571C735.669 28.2899 706.376 25.7597 681.919 25.7597C677.575 25.7597 653.354 24.8943 638.383 23.3046C634.648 22.9082 631.504 22.4716 629.436 21.9842C628.695 21.81 627.855 21.4827 627.748 21.4401Z" fill="url(#paint66_linear_831_1395)"/>
<path fill-rule="evenodd" clip-rule="evenodd" d="M866.729 20.4719C861.631 21.2003 858.977 22.6015 858.16 24.2007C857.624 25.2517 857.799 26.4515 858.783 27.7535C859.984 29.342 862.482 31.1498 866.177 33.039C888.556 44.4819 956.467 60.027 1025.88 55.3595C1026.89 55.2909 1027.62 54.7091 1027.52 54.0604C1027.41 53.4118 1026.51 52.9409 1025.49 53.0089C957.272 57.5972 890.483 42.4408 868.487 31.1935C865.827 29.8341 863.848 28.5457 862.668 27.3565C861.763 26.4456 861.314 25.6404 861.676 24.9332C861.896 24.502 862.426 24.141 863.207 23.8173C864.251 23.3837 865.691 23.0416 867.535 22.7782C868.531 22.6358 869.159 22.0037 868.937 21.3674C868.714 20.7312 867.725 20.3301 866.729 20.4719Z" fill="url(#paint67_linear_831_1395)"/>
<path fill-rule="evenodd" clip-rule="evenodd" d="M1039.14 37.9045C1039.93 36.8246 1041.48 35.5881 1041.48 35.5881Z" fill="url(#paint68_linear_831_1395)"/>
<path fill-rule="evenodd" clip-rule="evenodd" d="M1057.69 38.142L1057.84 38.1396C1097.37 38.4953 1136.89 37.7905 1175.39 32.8695C1176.4 32.7419 1177.05 32.1187 1176.84 31.4795C1176.65 30.8403 1175.67 30.4244 1174.67 30.5526C1137.38 35.3188 1099.13 36.1069 1060.85 35.8144L1060.8 35.8522C1034.22 35.4529 988.376 34.503 962.226 34.503C939.034 34.503 919.283 31.2379 897.398 27.2414C889.181 25.7415 881.95 23.2538 873.791 21.5158C873.031 21.3539 868.717 20.6179 867.763 20.466C866.184 20.215 865.448 21.0981 865.435 21.117C865.422 21.1365 864.889 22.4072 866.828 22.7611C866.92 22.7782 867.014 22.7901 867.106 22.7977C868.343 22.9998 871.948 23.6142 872.622 23.7571C880.832 25.5064 888.113 28.0041 896.382 29.514C918.608 33.5719 938.673 36.866 962.226 36.866C987.507 36.866 1044.19 38.3411 1057.69 38.142Z" fill="url(#paint69_linear_831_1395)"/>
<path fill-rule="evenodd" clip-rule="evenodd" d="M1102.15 31.4791C1102.08 31.4367 1102.01 31.394 1101.95 31.3471C1101.11 30.6858 1100.71 29.7075 1100.86 28.5097C1101.04 27.0781 1101.99 25.2647 1103.46 23.4088C1105.6 20.6923 1108.85 17.8642 1112.21 16C1114.77 14.5761 1117.47 13.7147 1119.84 13.633C1128.86 13.3128 1133.58 18.2383 1132.86 22.086C1132.55 23.718 1131.26 25.1265 1129.14 25.9188C1127.64 26.477 1125.72 26.7559 1123.33 26.5689C1117.38 26.113 1113.61 26.5047 1111.18 27.283C1107.65 28.418 1107.13 30.3227 1106.57 31.0282C1105.98 31.7714 1105.02 31.9924 1104.29 32.0096C1103.72 32.021 1102.95 31.9456 1102.15 31.4791ZM1105.62 26.9074C1106.57 26.2661 1107.84 25.6505 1109.58 25.1576C1112.54 24.3157 1116.98 23.8233 1123.78 24.3479C1126.92 24.5905 1128.43 23.2969 1128.71 21.7841C1129.21 19.1655 1126.39 15.6569 1120.25 15.873C1118.66 15.9282 1116.97 16.6318 1115.24 17.5899C1112.18 19.2927 1109.25 21.869 1107.3 24.346C1106.6 25.2278 1106.02 26.1012 1105.62 26.9074Z" fill="url(#paint70_linear_831_1395)"/>
<path fill-rule="evenodd" clip-rule="evenodd" d="M866.595 20.4306C859.197 21.1241 849.305 24.557 839.204 28.1175C829.505 31.5368 819.597 35.0689 811.593 36.0921C789.559 38.9082 736.778 46.9755 714.373 49.579C713.369 49.6954 712.703 50.311 712.885 50.9525C713.068 51.5947 714.031 52.0206 715.035 51.9036C737.455 49.299 790.27 41.2275 812.318 38.409C820.62 37.348 830.93 33.7332 840.99 30.1869C850.648 26.7824 860.058 23.4316 867.131 22.7688C868.141 22.6743 868.84 22.0735 868.692 21.4284C868.544 20.7833 867.604 20.3361 866.595 20.4306Z" fill="url(#paint71_linear_831_1395)"/>
<path fill-rule="evenodd" clip-rule="evenodd" d="M895.077 13.7744C894.264 13.8724 893.651 14.3043 893.579 14.8318C893.506 15.3588 893.991 15.8526 894.765 16.0399C897.964 16.8144 901.102 17.7035 904.032 18.1459C906.541 18.5252 908.918 18.5819 911.097 18.1022C913.313 17.6137 915.369 16.5781 917.111 14.6528C918.519 13.0962 918.353 12.086 917.852 11.533C917.373 11.0031 916.47 10.6286 915.133 10.5453C913.567 10.4478 911.06 10.8029 908.733 11.0782C906.929 11.292 906.315 11.5271 905.79 11.7682C904.942 12.1581 904.475 12.6407 895.077 13.7744ZM914.333 12.8989C914.225 13.0731 914.08 13.2817 913.91 13.4701C912.725 14.7804 911.399 15.536 909.892 15.868C908.347 16.2083 906.662 16.1149 904.883 15.8467C903.899 15.6979 902.891 15.4946 901.866 15.2619H901.867C905.879 14.6203 906.927 14.1773 907.584 13.8642C907.979 13.6751 908.155 13.5499 909.405 13.4016C910.922 13.222 912.521 12.9863 913.814 12.9101C913.976 12.9006 914.16 12.8983 914.333 12.8989Z" fill="url(#paint72_linear_831_1395)"/>
<path fill-rule="evenodd" clip-rule="evenodd" d="M640.023 33.2605C650.948 34.7865 669.059 37.3964 707.979 39.6472C743.653 41.7107 791.365 38.1408 820.267 33.9364C833.006 32.0832 842.155 30.0427 845.29 28.3567C846.071 27.9372 846.172 27.1911 845.515 26.6919C844.858 26.1933 843.691 26.1289 842.91 26.5484C839.979 28.1245 831.355 29.8997 819.447 31.6324C790.841 35.7937 743.621 39.3359 708.312 37.2936C669.654 35.0582 651.665 32.4677 640.812 30.9519C639.816 30.8124 638.83 31.2165 638.612 31.8539C638.394 32.4908 639.027 33.1211 640.023 33.2605Z" fill="url(#paint73_linear_831_1395)"/>
<path fill-rule="evenodd" clip-rule="evenodd" d="M451.542 526.393C447.489 528.984 448.184 532.94 452.468 534.221C455.838 535.228 459.078 535.258 461.264 534.317C462.803 533.654 463.955 532.503 464.226 530.708C464.464 529.129 463.795 527.934 462.711 527.066C461.094 525.77 458.454 525.191 456.054 525.257C454.23 525.307 452.575 525.733 451.542 526.393ZM454.215 528.102C454.665 527.814 455.422 527.693 456.216 527.671C457.48 527.636 458.904 527.89 459.756 528.573C460.319 529.023 460.586 529.656 460.463 530.476C460.329 531.365 459.915 531.984 459.152 532.313C457.884 532.858 456.024 532.616 454.07 532.032C451.924 531.391 452.185 529.399 454.215 528.102Z" fill="url(#paint74_linear_831_1395)"/>
<path fill-rule="evenodd" clip-rule="evenodd" d="M173.929 521.128C162.713 524.536 171.487 535.327 182.736 531.468C186.244 530.264 187.543 527.793 186.946 525.467C186.416 523.399 184.381 521.499 181.331 520.757C179.308 520.266 176.8 520.256 173.929 521.128ZM175.552 523.311C177.277 522.786 178.773 522.721 179.988 523.016C181.797 523.455 182.901 524.631 183.216 525.857C183.557 527.192 182.96 528.649 180.947 529.339C174.312 531.616 168.935 525.32 175.552 523.311Z" fill="url(#paint75_linear_831_1395)"/>
<path fill-rule="evenodd" clip-rule="evenodd" d="M4.57491 523.418C2.85855 524.817 3.10712 526.591 4.51726 527.939C5.74972 529.117 7.85548 529.921 10.0633 529.864C11.5453 529.825 13.1161 529.419 14.5102 528.406C15.6906 527.548 16.1613 526.658 16.1859 525.834C16.2237 524.574 15.1897 523.423 13.5981 522.679C11.033 521.48 7.10976 521.351 4.57491 523.418ZM7.5502 524.908C8.57567 524.072 10.1455 524.116 11.2258 524.567C11.895 524.846 12.4214 525.279 12.4063 525.788C12.3968 526.121 12.1473 526.464 11.671 526.81C11.1058 527.221 10.5104 527.434 9.9102 527.45C8.99531 527.473 8.17115 527.084 7.65983 526.596C7.13339 526.092 6.9094 525.431 7.5502 524.908Z" fill="url(#paint76_linear_831_1395)"/>
<defs>
<linearGradient id="paint0_linear_831_1395" x1="685.879" y1="89.328" x2="685.879" y2="383.888" gradientUnits="userSpaceOnUse">
<stop stop-color="#FFE088"/>
<stop offset="1" stop-color="#FFF0C4"/>
</linearGradient>
<linearGradient id="paint1_linear_831_1395" x1="681.445" y1="90.4912" x2="680.09" y2="386.876" gradientUnits="userSpaceOnUse">
<stop stop-color="#FFE088"/>
<stop offset="1" stop-color="#FFF0C4"/>
</linearGradient>
<linearGradient id="paint2_linear_831_1395" x1="679.738" y1="90.7291" x2="678.39" y2="386.424" gradientUnits="userSpaceOnUse">
<stop stop-color="#FFE088"/>
<stop offset="1" stop-color="#FFF0C4"/>
</linearGradient>
<linearGradient id="paint3_linear_831_1395" x1="685.879" y1="89.3283" x2="685.879" y2="383.888" gradientUnits="userSpaceOnUse">
<stop stop-color="#FFE088"/>
<stop offset="1" stop-color="#FFF0C4"/>
</linearGradient>
<linearGradient id="paint4_linear_831_1395" x1="685.878" y1="89.3285" x2="685.878" y2="383.888" gradientUnits="userSpaceOnUse">
<stop stop-color="#FFE088"/>
<stop offset="1" stop-color="#FFF0C4"/>
</linearGradient>
<linearGradient id="paint5_linear_831_1395" x1="685.882" y1="89.3274" x2="685.882" y2="383.888" gradientUnits="userSpaceOnUse">
<stop stop-color="#FFE088"/>
<stop offset="1" stop-color="#FFF0C4"/>
</linearGradient>
<linearGradient id="paint6_linear_831_1395" x1="685.88" y1="89.3275" x2="685.88" y2="383.888" gradientUnits="userSpaceOnUse">
<stop stop-color="#FFE088"/>
<stop offset="1" stop-color="#FFF0C4"/>
</linearGradient>
<linearGradient id="paint7_linear_831_1395" x1="685.883" y1="89.3288" x2="685.883" y2="383.888" gradientUnits="userSpaceOnUse">
<stop stop-color="#FFE088"/>
<stop offset="1" stop-color="#FFF0C4"/>
</linearGradient>
<linearGradient id="paint8_linear_831_1395" x1="685.879" y1="89.3276" x2="685.879" y2="383.888" gradientUnits="userSpaceOnUse">
<stop stop-color="#FFE088"/>
<stop offset="1" stop-color="#FFF0C4"/>
</linearGradient>
<linearGradient id="paint9_linear_831_1395" x1="685.878" y1="89.3281" x2="685.878" y2="383.888" gradientUnits="userSpaceOnUse">
<stop stop-color="#FFE088"/>
<stop offset="1" stop-color="#FFF0C4"/>
</linearGradient>
<linearGradient id="paint10_linear_831_1395" x1="685.879" y1="89.3278" x2="685.879" y2="383.888" gradientUnits="userSpaceOnUse">
<stop stop-color="#FFE088"/>
<stop offset="1" stop-color="#FFF0C4"/>
</linearGradient>
<linearGradient id="paint11_linear_831_1395" x1="685.88" y1="89.3278" x2="685.88" y2="383.888" gradientUnits="userSpaceOnUse">
<stop stop-color="#FFE088"/>
<stop offset="1" stop-color="#FFF0C4"/>
</linearGradient>
<linearGradient id="paint12_linear_831_1395" x1="685.879" y1="89.3279" x2="685.879" y2="383.888" gradientUnits="userSpaceOnUse">
<stop stop-color="#FFE088"/>
<stop offset="1" stop-color="#FFF0C4"/>
</linearGradient>
<linearGradient id="paint13_linear_831_1395" x1="685.879" y1="89.3291" x2="685.879" y2="383.888" gradientUnits="userSpaceOnUse">
<stop stop-color="#FFE088"/>
<stop offset="1" stop-color="#FFF0C4"/>
</linearGradient>
<linearGradient id="paint14_linear_831_1395" x1="685.879" y1="89.3274" x2="685.879" y2="383.888" gradientUnits="userSpaceOnUse">
<stop stop-color="#FFE088"/>
<stop offset="1" stop-color="#FFF0C4"/>
</linearGradient>
<linearGradient id="paint15_linear_831_1395" x1="685.879" y1="89.3293" x2="685.879" y2="383.888" gradientUnits="userSpaceOnUse">
<stop stop-color="#FFE088"/>
<stop offset="1" stop-color="#FFF0C4"/>
</linearGradient>
<linearGradient id="paint16_linear_831_1395" x1="685.879" y1="89.3275" x2="685.879" y2="383.888" gradientUnits="userSpaceOnUse">
<stop stop-color="#FFE088"/>
<stop offset="1" stop-color="#FFF0C4"/>
</linearGradient>
<linearGradient id="paint17_linear_831_1395" x1="647.784" y1="70.3109" x2="634.634" y2="378.817" gradientUnits="userSpaceOnUse">
<stop stop-color="#FFE088"/>
<stop offset="1" stop-color="#FFF0C4"/>
</linearGradient>
<linearGradient id="paint18_linear_831_1395" x1="691.68" y1="83.6511" x2="689.499" y2="380.322" gradientUnits="userSpaceOnUse">
<stop stop-color="#FFE088"/>
<stop offset="1" stop-color="#FFF0C4"/>
</linearGradient>
<linearGradient id="paint19_linear_831_1395" x1="686.607" y1="82.1376" x2="684.414" y2="380.793" gradientUnits="userSpaceOnUse">
<stop stop-color="#FFE088"/>
<stop offset="1" stop-color="#FFF0C4"/>
</linearGradient>
<linearGradient id="paint20_linear_831_1395" x1="685.88" y1="89.3281" x2="685.88" y2="383.888" gradientUnits="userSpaceOnUse">
<stop stop-color="#FFE088"/>
<stop offset="1" stop-color="#FFF0C4"/>
</linearGradient>
<linearGradient id="paint21_linear_831_1395" x1="683.93" y1="78.38" x2="689.204" y2="385.604" gradientUnits="userSpaceOnUse">
<stop stop-color="#FFE088"/>
<stop offset="1" stop-color="#FFF0C4"/>
</linearGradient>
<linearGradient id="paint22_linear_831_1395" x1="685.879" y1="89.3279" x2="685.879" y2="383.887" gradientUnits="userSpaceOnUse">
<stop stop-color="#FFE088"/>
<stop offset="1" stop-color="#FFF0C4"/>
</linearGradient>
<linearGradient id="paint23_linear_831_1395" x1="685.88" y1="89.3278" x2="685.88" y2="383.888" gradientUnits="userSpaceOnUse">
<stop stop-color="#FFE088"/>
<stop offset="1" stop-color="#FFF0C4"/>
</linearGradient>
<linearGradient id="paint24_linear_831_1395" x1="685.878" y1="89.3282" x2="685.878" y2="383.888" gradientUnits="userSpaceOnUse">
<stop stop-color="#FFE088"/>
<stop offset="1" stop-color="#FFF0C4"/>
</linearGradient>
<linearGradient id="paint25_linear_831_1395" x1="685.879" y1="89.3282" x2="685.879" y2="383.888" gradientUnits="userSpaceOnUse">
<stop stop-color="#FFE088"/>
<stop offset="1" stop-color="#FFF0C4"/>
</linearGradient>
<linearGradient id="paint26_linear_831_1395" x1="685.879" y1="89.3282" x2="685.879" y2="383.888" gradientUnits="userSpaceOnUse">
<stop stop-color="#FFE088"/>
<stop offset="1" stop-color="#FFF0C4"/>
</linearGradient>
<linearGradient id="paint27_linear_831_1395" x1="685.879" y1="89.3282" x2="685.879" y2="383.888" gradientUnits="userSpaceOnUse">
<stop stop-color="#FFE088"/>
<stop offset="1" stop-color="#FFF0C4"/>
</linearGradient>
<linearGradient id="paint28_linear_831_1395" x1="685.878" y1="89.3277" x2="685.878" y2="383.888" gradientUnits="userSpaceOnUse">
<stop stop-color="#FFE088"/>
<stop offset="1" stop-color="#FFF0C4"/>
</linearGradient>
<linearGradient id="paint29_linear_831_1395" x1="685.879" y1="89.3276" x2="685.879" y2="383.888" gradientUnits="userSpaceOnUse">
<stop stop-color="#FFE088"/>
<stop offset="1" stop-color="#FFF0C4"/>
</linearGradient>
<linearGradient id="paint30_linear_831_1395" x1="685.879" y1="89.3276" x2="685.879" y2="383.888" gradientUnits="userSpaceOnUse">
<stop stop-color="#FFE088"/>
<stop offset="1" stop-color="#FFF0C4"/>
</linearGradient>
<linearGradient id="paint31_linear_831_1395" x1="685.879" y1="89.328" x2="685.879" y2="383.888" gradientUnits="userSpaceOnUse">
<stop stop-color="#FFE088"/>
<stop offset="1" stop-color="#FFF0C4"/>
</linearGradient>
<linearGradient id="paint32_linear_831_1395" x1="685.879" y1="89.3281" x2="685.879" y2="383.888" gradientUnits="userSpaceOnUse">
<stop stop-color="#FFE088"/>
<stop offset="1" stop-color="#FFF0C4"/>
</linearGradient>
<linearGradient id="paint33_linear_831_1395" x1="685.879" y1="89.328" x2="685.879" y2="383.888" gradientUnits="userSpaceOnUse">
<stop stop-color="#FFE088"/>
<stop offset="1" stop-color="#FFF0C4"/>
</linearGradient>
<linearGradient id="paint34_linear_831_1395" x1="685.879" y1="89.3279" x2="685.879" y2="383.888" gradientUnits="userSpaceOnUse">
<stop stop-color="#FFE088"/>
<stop offset="1" stop-color="#FFF0C4"/>
</linearGradient>
<linearGradient id="paint35_linear_831_1395" x1="685.879" y1="89.3282" x2="685.879" y2="383.888" gradientUnits="userSpaceOnUse">
<stop stop-color="#FFE088"/>
<stop offset="1" stop-color="#FFF0C4"/>
</linearGradient>
<linearGradient id="paint36_linear_831_1395" x1="685.879" y1="89.3275" x2="685.879" y2="383.887" gradientUnits="userSpaceOnUse">
<stop stop-color="#FFE088"/>
<stop offset="1" stop-color="#FFF0C4"/>
</linearGradient>
<linearGradient id="paint37_linear_831_1395" x1="625.966" y1="52.1727" x2="604.38" y2="373.747" gradientUnits="userSpaceOnUse">
<stop stop-color="#FFE088"/>
<stop offset="1" stop-color="#FFF0C4"/>
</linearGradient>
<linearGradient id="paint38_linear_831_1395" x1="685.878" y1="89.3274" x2="685.878" y2="383.887" gradientUnits="userSpaceOnUse">
<stop stop-color="#FFE088"/>
<stop offset="1" stop-color="#FFF0C4"/>
</linearGradient>
<linearGradient id="paint39_linear_831_1395" x1="685.882" y1="89.3274" x2="685.882" y2="383.887" gradientUnits="userSpaceOnUse">
<stop stop-color="#FFE088"/>
<stop offset="1" stop-color="#FFF0C4"/>
</linearGradient>
<linearGradient id="paint40_linear_831_1395" x1="685.878" y1="89.328" x2="685.878" y2="383.888" gradientUnits="userSpaceOnUse">
<stop stop-color="#FFE088"/>
<stop offset="1" stop-color="#FFF0C4"/>
</linearGradient>
<linearGradient id="paint41_linear_831_1395" x1="675.033" y1="93.0832" x2="671.794" y2="386.749" gradientUnits="userSpaceOnUse">
<stop stop-color="#FFE088"/>
<stop offset="1" stop-color="#FFF0C4"/>
</linearGradient>
<linearGradient id="paint42_linear_831_1395" x1="685.88" y1="89.3278" x2="685.88" y2="383.887" gradientUnits="userSpaceOnUse">
<stop stop-color="#FFE088"/>
<stop offset="1" stop-color="#FFF0C4"/>
</linearGradient>
<linearGradient id="paint43_linear_831_1395" x1="720.271" y1="76.5506" x2="732.751" y2="380.715" gradientUnits="userSpaceOnUse">
<stop stop-color="#FFE088"/>
<stop offset="1" stop-color="#FFF0C4"/>
</linearGradient>
<linearGradient id="paint44_linear_831_1395" x1="685.879" y1="89.3275" x2="685.879" y2="383.887" gradientUnits="userSpaceOnUse">
<stop stop-color="#FFE088"/>
<stop offset="1" stop-color="#FFF0C4"/>
</linearGradient>
<linearGradient id="paint45_linear_831_1395" x1="685.879" y1="89.3278" x2="685.879" y2="383.888" gradientUnits="userSpaceOnUse">
<stop stop-color="#FFE088"/>
<stop offset="1" stop-color="#FFF0C4"/>
</linearGradient>
<linearGradient id="paint46_linear_831_1395" x1="685.879" y1="89.3279" x2="685.879" y2="383.888" gradientUnits="userSpaceOnUse">
<stop stop-color="#FFE088"/>
<stop offset="1" stop-color="#FFF0C4"/>
</linearGradient>
<linearGradient id="paint47_linear_831_1395" x1="765.55" y1="112.771" x2="791.642" y2="431.76" gradientUnits="userSpaceOnUse">
<stop stop-color="#FFE088"/>
<stop offset="1" stop-color="#FFF0C4"/>
</linearGradient>
<linearGradient id="paint48_linear_831_1395" x1="699.95" y1="89.9596" x2="703.685" y2="392.332" gradientUnits="userSpaceOnUse">
<stop stop-color="#FFE088"/>
<stop offset="1" stop-color="#FFF0C4"/>
</linearGradient>
<linearGradient id="paint49_linear_831_1395" x1="685.88" y1="89.3272" x2="685.88" y2="383.887" gradientUnits="userSpaceOnUse">
<stop stop-color="#FFE088"/>
<stop offset="1" stop-color="#FFF0C4"/>
</linearGradient>
<linearGradient id="paint50_linear_831_1395" x1="685.878" y1="89.3278" x2="685.878" y2="383.888" gradientUnits="userSpaceOnUse">
<stop stop-color="#FFE088"/>
<stop offset="1" stop-color="#FFF0C4"/>
</linearGradient>
<linearGradient id="paint51_linear_831_1395" x1="685.881" y1="89.328" x2="685.881" y2="383.888" gradientUnits="userSpaceOnUse">
<stop stop-color="#FFE088"/>
<stop offset="1" stop-color="#FFF0C4"/>
</linearGradient>
<linearGradient id="paint52_linear_831_1395" x1="685.878" y1="89.3288" x2="685.878" y2="383.888" gradientUnits="userSpaceOnUse">
<stop stop-color="#FFE088"/>
<stop offset="1" stop-color="#FFF0C4"/>
</linearGradient>
<linearGradient id="paint53_linear_831_1395" x1="685.879" y1="89.3285" x2="685.879" y2="383.888" gradientUnits="userSpaceOnUse">
<stop stop-color="#FFE088"/>
<stop offset="1" stop-color="#FFF0C4"/>
</linearGradient>
<linearGradient id="paint54_linear_831_1395" x1="685.879" y1="89.3273" x2="685.879" y2="383.887" gradientUnits="userSpaceOnUse">
<stop stop-color="#FFE088"/>
<stop offset="1" stop-color="#FFF0C4"/>
</linearGradient>
<linearGradient id="paint55_linear_831_1395" x1="685.879" y1="89.3279" x2="685.879" y2="383.888" gradientUnits="userSpaceOnUse">
<stop stop-color="#FFE088"/>
<stop offset="1" stop-color="#FFF0C4"/>
</linearGradient>
<linearGradient id="paint56_linear_831_1395" x1="685.88" y1="89.3276" x2="685.88" y2="383.887" gradientUnits="userSpaceOnUse">
<stop stop-color="#FFE088"/>
<stop offset="1" stop-color="#FFF0C4"/>
</linearGradient>
<linearGradient id="paint57_linear_831_1395" x1="763.944" y1="104.585" x2="780.189" y2="413.042" gradientUnits="userSpaceOnUse">
<stop stop-color="#FFE088"/>
<stop offset="1" stop-color="#FFF0C4"/>
</linearGradient>
<linearGradient id="paint58_linear_831_1395" x1="685.878" y1="89.3294" x2="685.878" y2="383.888" gradientUnits="userSpaceOnUse">
<stop stop-color="#FFE088"/>
<stop offset="1" stop-color="#FFF0C4"/>
</linearGradient>
<linearGradient id="paint59_linear_831_1395" x1="685.879" y1="89.3285" x2="685.879" y2="383.888" gradientUnits="userSpaceOnUse">
<stop stop-color="#FFE088"/>
<stop offset="1" stop-color="#FFF0C4"/>
</linearGradient>
<linearGradient id="paint60_linear_831_1395" x1="685.879" y1="89.3273" x2="685.879" y2="383.888" gradientUnits="userSpaceOnUse">
<stop stop-color="#FFE088"/>
<stop offset="1" stop-color="#FFF0C4"/>
</linearGradient>
<linearGradient id="paint61_linear_831_1395" x1="685.879" y1="89.3275" x2="685.879" y2="383.887" gradientUnits="userSpaceOnUse">
<stop stop-color="#FFE088"/>
<stop offset="1" stop-color="#FFF0C4"/>
</linearGradient>
<linearGradient id="paint62_linear_831_1395" x1="685.879" y1="89.3278" x2="685.879" y2="383.888" gradientUnits="userSpaceOnUse">
<stop stop-color="#FFE088"/>
<stop offset="1" stop-color="#FFF0C4"/>
</linearGradient>
<linearGradient id="paint63_linear_831_1395" x1="685.879" y1="89.3279" x2="685.879" y2="383.888" gradientUnits="userSpaceOnUse">
<stop stop-color="#FFE088"/>
<stop offset="1" stop-color="#FFF0C4"/>
</linearGradient>
<linearGradient id="paint64_linear_831_1395" x1="685.879" y1="89.3281" x2="685.879" y2="383.888" gradientUnits="userSpaceOnUse">
<stop stop-color="#FFE088"/>
<stop offset="1" stop-color="#FFF0C4"/>
</linearGradient>
<linearGradient id="paint65_linear_831_1395" x1="685.879" y1="89.328" x2="685.879" y2="383.888" gradientUnits="userSpaceOnUse">
<stop stop-color="#FFE088"/>
<stop offset="1" stop-color="#FFF0C4"/>
</linearGradient>
<linearGradient id="paint66_linear_831_1395" x1="685.879" y1="89.3279" x2="685.879" y2="383.888" gradientUnits="userSpaceOnUse">
<stop stop-color="#FFE088"/>
<stop offset="1" stop-color="#FFF0C4"/>
</linearGradient>
<linearGradient id="paint67_linear_831_1395" x1="685.879" y1="89.3279" x2="685.879" y2="383.888" gradientUnits="userSpaceOnUse">
<stop stop-color="#FFE088"/>
<stop offset="1" stop-color="#FFF0C4"/>
</linearGradient>
<linearGradient id="paint68_linear_831_1395" x1="685.892" y1="89.328" x2="685.892" y2="383.888" gradientUnits="userSpaceOnUse">
<stop stop-color="#FFE088"/>
<stop offset="1" stop-color="#FFF0C4"/>
</linearGradient>
<linearGradient id="paint69_linear_831_1395" x1="685.879" y1="89.3279" x2="685.879" y2="383.888" gradientUnits="userSpaceOnUse">
<stop stop-color="#FFE088"/>
<stop offset="1" stop-color="#FFF0C4"/>
</linearGradient>
<linearGradient id="paint70_linear_831_1395" x1="700.806" y1="82.2663" x2="693.833" y2="387.43" gradientUnits="userSpaceOnUse">
<stop stop-color="#FFE088"/>
<stop offset="1" stop-color="#FFF0C4"/>
</linearGradient>
<linearGradient id="paint71_linear_831_1395" x1="685.879" y1="89.3279" x2="685.879" y2="383.888" gradientUnits="userSpaceOnUse">
<stop stop-color="#FFE088"/>
<stop offset="1" stop-color="#FFF0C4"/>
</linearGradient>
<linearGradient id="paint72_linear_831_1395" x1="685.879" y1="89.3278" x2="685.879" y2="383.888" gradientUnits="userSpaceOnUse">
<stop stop-color="#FFE088"/>
<stop offset="1" stop-color="#FFF0C4"/>
</linearGradient>
<linearGradient id="paint73_linear_831_1395" x1="685.879" y1="89.3279" x2="685.879" y2="383.888" gradientUnits="userSpaceOnUse">
<stop stop-color="#FFE088"/>
<stop offset="1" stop-color="#FFF0C4"/>
</linearGradient>
<linearGradient id="paint74_linear_831_1395" x1="685.879" y1="109.461" x2="685.879" y2="404.02" gradientUnits="userSpaceOnUse">
<stop stop-color="#FFE088"/>
<stop offset="1" stop-color="#FFF0C4"/>
</linearGradient>
<linearGradient id="paint75_linear_831_1395" x1="685.879" y1="109.46" x2="685.879" y2="404.02" gradientUnits="userSpaceOnUse">
<stop stop-color="#FFE088"/>
<stop offset="1" stop-color="#FFF0C4"/>
</linearGradient>
<linearGradient id="paint76_linear_831_1395" x1="685.879" y1="109.46" x2="685.879" y2="404.02" gradientUnits="userSpaceOnUse">
<stop stop-color="#FFE088"/>
<stop offset="1" stop-color="#FFF0C4"/>
</linearGradient>
</defs>
</svg>
