<svg width="1440" height="798" viewBox="0 0 1440 798" fill="none" xmlns="http://www.w3.org/2000/svg">
<path fill-rule="evenodd" clip-rule="evenodd" d="M69.4402 413.249C70.3496 413.624 70.7473 414.576 70.8472 415.534C70.9599 416.606 70.7107 417.763 70.0199 418.452C69.2918 419.178 69.2918 420.357 70.0199 421.083C70.748 421.809 71.9297 421.809 72.6578 421.083C74.0768 419.667 74.7885 417.348 74.5572 415.147C74.3148 412.832 73.0652 410.718 70.8674 409.811C69.9162 409.418 68.824 409.87 68.4309 410.819C68.0369 411.767 68.489 412.856 69.4402 413.249Z" fill="url(#paint0_linear_809_1009)"/>
<path fill-rule="evenodd" clip-rule="evenodd" d="M291.566 263.601C291.175 264.369 290.981 264.696 290.32 265.373C289.52 266.19 289.536 267.501 290.355 268.299C291.174 269.097 292.489 269.081 293.289 268.264C294.332 267.197 294.647 266.687 295.265 265.476C295.783 264.457 295.375 263.21 294.354 262.693C293.334 262.176 292.084 262.583 291.566 263.601Z" fill="url(#paint1_linear_809_1009)"/>
<path fill-rule="evenodd" clip-rule="evenodd" d="M288.591 240.622C290.496 240.613 292.104 242.204 293.357 244.229C295.529 247.738 296.562 252.815 295.029 256.309C294.57 257.355 295.048 258.576 296.097 259.034C297.146 259.492 298.371 259.015 298.83 257.969C300.845 253.376 299.743 246.668 296.888 242.055C294.789 238.664 291.763 236.469 288.572 236.483C287.427 236.489 286.502 237.42 286.507 238.562C286.512 239.704 287.446 240.627 288.591 240.622Z" fill="url(#paint2_linear_809_1009)"/>
<path fill-rule="evenodd" clip-rule="evenodd" d="M1017.71 755.088C1013.67 758.513 1014.48 763.826 1017.54 767.26C1020.6 770.687 1025.73 772.131 1029.93 768.042C1034.5 763.607 1033.74 758.319 1030.78 755.192C1027.85 752.092 1022.56 750.96 1017.71 755.088ZM1020.34 758.171C1023.12 755.806 1026.14 756.197 1027.83 757.973C1029.49 759.722 1029.65 762.659 1027.1 765.14C1024.88 767.299 1022.19 766.375 1020.57 764.565C1018.96 762.76 1018.22 759.972 1020.34 758.171Z" fill="url(#paint3_linear_809_1009)"/>
<path fill-rule="evenodd" clip-rule="evenodd" d="M911.689 748.358C910.309 748.761 909.352 749.475 908.712 750.305C907.404 752.022 907.449 754.339 908.477 756.126C909.506 757.934 911.491 759.155 913.828 758.742C916.228 758.32 917.581 756.983 918.195 755.478C919.666 751.878 916.697 746.904 911.689 748.358ZM912.7 751.815C913.873 751.476 914.712 752.189 914.911 753.063C915.028 753.568 914.965 754.129 914.586 754.541C914.288 754.871 913.819 755.088 913.205 755.197C912.492 755.323 911.924 754.889 911.608 754.34C911.283 753.771 911.166 753.032 911.59 752.485C911.816 752.182 912.195 751.962 912.7 751.815Z" fill="url(#paint4_linear_809_1009)"/>
<path fill-rule="evenodd" clip-rule="evenodd" d="M1408.15 747.692C1408.07 747.711 1408 747.737 1407.93 747.766C1401.1 750.575 1399.88 756.035 1401.62 760.161C1403.35 764.288 1408.23 767.287 1414.13 765.218C1418.04 763.848 1419.88 760.247 1419.83 756.586C1419.77 753.35 1418.19 750.124 1415.41 748.464C1413.53 747.353 1411.1 746.901 1408.15 747.692ZM1409.2 751.139C1410.68 750.763 1411.95 750.838 1412.99 751.272C1414.55 751.923 1415.54 753.349 1415.97 754.928C1416.7 757.58 1415.87 760.792 1412.93 761.822C1408.48 763.385 1404.84 760.569 1404.55 757.196C1404.36 754.93 1405.77 752.587 1409.2 751.141V751.139Z" fill="url(#paint5_linear_809_1009)"/>
<path fill-rule="evenodd" clip-rule="evenodd" d="M1065.91 658.402C1067.5 660.032 1069.82 662.562 1071 665.419C1072.02 667.87 1072.11 670.594 1069.63 673.059C1068.93 673.761 1068.93 674.902 1069.63 675.604C1070.34 676.307 1071.48 676.307 1072.19 675.604C1075.92 671.871 1075.88 667.761 1074.34 664.047C1072.97 660.738 1070.34 657.772 1068.49 655.886C1067.79 655.175 1066.65 655.162 1065.93 655.856C1065.22 656.551 1065.21 657.691 1065.91 658.402Z" fill="url(#paint6_linear_809_1009)"/>
<path fill-rule="evenodd" clip-rule="evenodd" d="M1136.49 575.102C1137.19 574.993 1137.92 575.472 1138.6 576.046C1139.88 577.111 1141 578.731 1141 580.023C1141 581.017 1141.81 581.823 1142.81 581.823C1143.8 581.823 1144.61 581.017 1144.61 580.023C1144.61 577.886 1143.03 575.046 1140.92 573.284C1139.34 571.973 1137.51 571.296 1135.93 571.546C1134.95 571.701 1134.27 572.625 1134.44 573.606C1134.59 574.587 1135.52 575.257 1136.49 575.102Z" fill="url(#paint7_linear_809_1009)"/>
<path fill-rule="evenodd" clip-rule="evenodd" d="M1140.83 586.533C1140.71 586.634 1139.93 587.27 1139.61 587.568C1138.91 588.197 1138.62 588.909 1138.62 589.534C1138.62 590.526 1139.43 591.334 1140.43 591.334C1141.19 591.334 1141.84 590.853 1142.1 590.178C1142.32 590.009 1142.81 589.625 1143.09 589.369C1143.66 588.864 1144.08 588.275 1144.26 587.658C1144.53 586.704 1143.98 585.705 1143.03 585.427C1142.11 585.162 1141.16 585.653 1140.83 586.533Z" fill="url(#paint8_linear_809_1009)"/>
<path fill-rule="evenodd" clip-rule="evenodd" d="M1288.1 368.563C1289.28 368.775 1290.28 369.934 1291.08 371.086C1291.9 372.281 1292.51 373.533 1292.52 374.155C1292.54 375.149 1293.36 375.945 1294.36 375.931C1295.36 375.918 1296.15 375.1 1296.13 374.107C1296.12 373.101 1295.37 370.971 1294.05 369.045C1292.7 367.076 1290.76 365.381 1288.74 365.02C1287.77 364.843 1286.83 365.494 1286.65 366.471C1286.47 367.449 1287.13 368.387 1288.1 368.563Z" fill="url(#paint9_linear_809_1009)"/>
<path fill-rule="evenodd" clip-rule="evenodd" d="M56.8496 409.807C56.8131 409.865 56.7795 409.924 56.7496 409.986C55.2091 413.17 54.9092 416.065 55.4113 418.549C56.4288 423.592 60.7946 427.046 65.5975 427.925C70.443 428.812 75.6607 427.107 78.2636 422.01C80.5673 417.497 80.2316 413.453 78.509 410.347C74.4961 403.112 62.5694 400.941 56.8496 409.807ZM59.7293 411.533C63.9488 405.126 72.6393 406.682 75.5712 411.968C76.8305 414.238 76.9558 417.191 75.272 420.49C73.4159 424.125 69.6589 425.264 66.2033 424.631C62.7044 423.99 59.4435 421.562 58.702 417.889C58.329 416.04 58.6035 413.9 59.727 411.537L59.7293 411.533Z" fill="url(#paint10_linear_809_1009)"/>
<path fill-rule="evenodd" clip-rule="evenodd" d="M85.4118 374.572C85.2893 378.196 88.3349 380.206 91.5644 380.225C94.7332 380.244 97.8929 378.342 98.046 374.575C98.2598 369.298 92.1775 366.861 88.3786 369.099C86.7626 370.05 85.505 371.807 85.4118 374.572ZM88.3421 374.671C88.378 373.628 88.6588 372.82 89.1338 372.244C90.0402 371.145 91.5846 370.954 92.8715 371.383C94.1324 371.804 95.1802 372.872 95.1164 374.457C95.0356 376.444 93.2527 377.31 91.5813 377.3C89.9692 377.291 88.2815 376.48 88.3421 374.671Z" fill="url(#paint11_linear_809_1009)"/>
<path fill-rule="evenodd" clip-rule="evenodd" d="M72.515 532.372C72.5908 532.452 72.7325 532.606 72.8083 532.712C73.1015 533.122 73.3533 533.577 73.5915 533.934C75.2237 536.376 75.5323 539.637 74.4405 542.361C74.0706 543.284 74.5208 544.332 75.4456 544.701C76.3705 545.07 77.4216 544.621 77.7916 543.699C79.3155 539.897 78.8725 535.346 76.5942 531.937C76.1603 531.287 75.6604 530.387 75.0423 529.789C74.2898 529.062 73.3903 528.673 72.3481 528.781C71.3574 528.885 70.6374 529.771 70.7403 530.759C70.8368 531.677 71.611 532.363 72.515 532.372Z" fill="url(#paint12_linear_809_1009)"/>
<path fill-rule="evenodd" clip-rule="evenodd" d="M71.4501 548.089C71.1894 548.331 69.7547 549.665 69.383 550.036C68.6783 550.739 68.6783 551.879 69.383 552.582C70.0868 553.284 71.23 553.284 71.9347 552.582C72.4237 552.094 73.843 550.947 74.4105 550.168C74.8093 549.62 74.9555 549.091 74.969 548.709C75.0033 547.717 74.2228 546.882 73.2276 546.848C72.4056 546.82 71.6928 547.346 71.4501 548.089Z" fill="url(#paint13_linear_809_1009)"/>
<path fill-rule="evenodd" clip-rule="evenodd" d="M40.1873 674.754C40.1765 674.95 40.162 675.239 40.162 675.418C40.162 676.411 40.9705 677.218 41.9666 677.218C42.9627 677.218 43.7712 676.411 43.7712 675.418C43.7712 674.919 43.837 674.387 43.7522 673.925C43.6277 673.24 43.3083 672.634 42.6379 672.157C41.8277 671.58 40.6998 671.768 40.1214 672.577C39.6396 673.249 39.6892 674.142 40.1873 674.754Z" fill="url(#paint14_linear_809_1009)"/>
<path fill-rule="evenodd" clip-rule="evenodd" d="M52.1272 610.172C52.5152 610.347 52.6253 610.665 52.6253 611.097C52.6253 612.091 53.4337 612.897 54.4298 612.897C55.4259 612.897 56.2344 612.091 56.2344 611.097C56.2344 609.057 55.444 607.716 53.6124 606.891C52.7047 606.482 51.6355 606.885 51.2249 607.791C50.8153 608.696 51.2195 609.763 52.1272 610.172Z" fill="url(#paint15_linear_809_1009)"/>
<path fill-rule="evenodd" clip-rule="evenodd" d="M414.894 670.582C415.612 671.587 416.793 672.547 417.7 673.453C419.913 675.66 421.028 678.867 421.963 681.665C422.108 682.101 422.2 682.721 422.171 683.32C422.153 683.684 422.157 684.065 421.94 684.281C421.236 684.984 421.236 686.124 421.94 686.827C422.645 687.529 423.788 687.529 424.493 686.827C425.147 686.174 425.564 685.221 425.714 684.155C425.892 682.89 425.702 681.47 425.387 680.526C424.284 677.229 422.859 673.508 420.253 670.907C419.48 670.136 418.445 669.346 417.833 668.491C417.255 667.682 416.127 667.494 415.315 668.071C414.505 668.648 414.316 669.773 414.894 670.582Z" fill="url(#paint16_linear_809_1009)"/>
<path fill-rule="evenodd" clip-rule="evenodd" d="M659.398 652.503C659.589 653.155 659.109 653.678 658.599 654.125C657.811 654.816 656.75 655.298 655.934 655.431C654.951 655.591 654.283 656.517 654.443 657.497C654.604 658.478 655.532 659.144 656.515 658.984C658.166 658.716 660.421 657.618 661.748 656.054C662.849 654.758 663.357 653.183 662.863 651.495C662.584 650.541 661.581 649.992 660.625 650.271C659.669 650.55 659.119 651.55 659.398 652.503Z" fill="url(#paint17_linear_809_1009)"/>
<path fill-rule="evenodd" clip-rule="evenodd" d="M1194.2 452.56C1195.2 453.496 1195.38 455.231 1195.09 456.565C1194.3 460.098 1190.79 462.668 1187.69 464.372C1186.72 464.904 1186.37 466.123 1186.9 467.091C1187.43 468.059 1188.65 468.412 1189.62 467.88C1193.68 465.656 1197.98 462.044 1199.01 457.428C1199.58 454.813 1198.91 451.486 1196.96 449.651C1196.15 448.891 1194.88 448.926 1194.12 449.729C1193.36 450.532 1193.4 451.8 1194.2 452.56Z" fill="url(#paint18_linear_809_1009)"/>
<path fill-rule="evenodd" clip-rule="evenodd" d="M1180.17 472.463L1180.3 472.415C1181.14 472.112 1181.89 471.558 1182.69 471.217C1183.72 470.787 1184.19 469.612 1183.76 468.594C1183.33 467.576 1182.15 467.098 1181.14 467.529C1180.38 467.843 1179.7 468.373 1178.93 468.653C1178.78 468.708 1178.24 468.91 1177.94 469.095C1177.63 469.296 1177.41 469.533 1177.27 469.728C1176.98 470.145 1176.88 470.575 1176.9 470.97C1176.93 472.073 1177.85 472.946 1178.96 472.915C1179.42 472.903 1179.84 472.735 1180.17 472.463Z" fill="url(#paint19_linear_809_1009)"/>
<path fill-rule="evenodd" clip-rule="evenodd" d="M1214.46 184.908C1215.03 184.845 1215.6 185.275 1216.14 185.763C1217.19 186.723 1218.09 188.165 1218.09 189.309C1218.09 190.303 1218.9 191.109 1219.89 191.109C1220.89 191.109 1221.69 190.303 1221.69 189.309C1221.69 187.344 1220.38 184.751 1218.56 183.1C1217.18 181.846 1215.54 181.169 1214.07 181.329C1213.08 181.436 1212.37 182.325 1212.46 183.314C1212.57 184.301 1213.47 185.016 1214.46 184.908Z" fill="url(#paint20_linear_809_1009)"/>
<path fill-rule="evenodd" clip-rule="evenodd" d="M215.539 223.933C213.323 222.826 211.546 221.026 209.418 219.469C205.752 216.789 201.225 214.638 192.87 216.591C186.97 217.971 180.404 220.631 175.87 226.434C172.844 230.309 170.697 235.591 170.32 242.89C170.128 246.643 171.275 261.997 183.753 271.782C194.697 280.364 215.473 283.674 236.452 288.561C252.934 292.401 272.117 292.816 286.663 284.687C309.647 271.841 311.583 249.821 305.884 239.143C301.789 231.47 294.688 228.075 287.079 226.849C279.846 225.684 272.167 226.501 266.5 227.221C263.068 227.657 254.565 229.955 228.924 227.287C224.352 226.81 219.63 225.975 215.539 223.933ZM213.867 227.264C218.355 229.504 223.521 230.47 228.536 230.992C254.764 233.722 263.462 231.362 266.972 230.916C272.345 230.234 279.625 229.42 286.484 230.526C292.969 231.572 299.097 234.352 302.588 240.893C307.69 250.453 305.415 269.937 284.838 281.437C271.07 289.132 252.901 288.568 237.301 284.933C216.93 280.188 196.688 277.186 186.06 268.853C174.925 260.121 173.877 246.43 174.05 243.08C174.377 236.724 176.179 232.099 178.816 228.724C182.777 223.654 188.567 221.423 193.722 220.219C201.715 218.35 205.445 221.011 208.752 223.667C210.427 225.012 212.02 226.341 213.867 227.264Z" fill="url(#paint21_linear_809_1009)"/>
<path fill-rule="evenodd" clip-rule="evenodd" d="M303.236 208.657C301.94 197.505 297.217 194.487 291.551 190.701C288.763 188.84 285.315 188.21 281.833 188.437C276.843 188.761 271.808 190.85 268.805 193.182C267.296 194.354 266.278 195.625 265.84 196.771C265.406 197.903 265.448 198.981 265.932 199.945C266.858 201.794 269.121 202.996 271.859 203.693C273.802 204.187 275.973 204.484 277.745 204.881C278.634 205.08 279.405 205.267 279.886 205.602C289.977 212.628 295.516 216.192 298.428 217.097C300.68 217.796 302.015 217.228 302.828 216.234C304.657 214.003 304.402 211.926 303.832 210.237C303.614 209.591 303.283 209.059 303.236 208.657ZM300.115 213.664C299.806 213.592 299.034 213.398 298.382 213.099C295.348 211.709 290.299 208.329 282.015 202.56C280.558 201.546 277.401 201.065 274.33 200.447C273.074 200.194 271.838 199.901 270.817 199.458C270.131 199.159 269.532 198.834 269.258 198.286C269.221 198.212 269.293 198.141 269.329 198.054C269.394 197.899 269.487 197.742 269.601 197.582C269.949 197.09 270.463 196.596 271.09 196.109C273.62 194.144 277.871 192.412 282.075 192.138C284.723 191.965 287.362 192.369 289.482 193.784C294.325 197.019 298.435 199.552 299.542 209.083C299.6 209.577 299.842 210.212 300.128 210.937C300.416 211.666 300.814 212.625 300.115 213.664Z" fill="url(#paint22_linear_809_1009)"/>
<path fill-rule="evenodd" clip-rule="evenodd" d="M223.878 182.806C221.653 182.806 217.502 183.957 214.176 185.284C211.804 186.231 209.853 187.305 209.119 188.036C208.019 189.133 205.138 191.037 203.461 193.305C201.943 195.361 201.318 197.674 202.505 200.039C202.851 200.732 203.441 201.305 204.281 201.705C205.086 202.088 206.191 202.317 207.459 202.38C211.426 202.577 217.311 201.211 218.12 201.056C224.197 199.898 229.312 201.154 232.562 201.262C234.658 201.332 236.185 200.895 237.143 199.939C239.005 198.082 239.723 196.204 239.739 194.445C239.754 192.678 239.042 190.974 237.793 189.444C234.606 185.541 227.709 182.806 223.878 182.806ZM205.863 198.237C205.284 196.925 206.263 195.75 207.276 194.673C208.866 192.981 210.939 191.595 211.812 190.723C212.352 190.185 213.846 189.508 215.591 188.812C218.439 187.676 221.972 186.605 223.878 186.605C226.416 186.605 230.629 188.16 233.434 190.459C234.837 191.61 235.942 192.919 235.93 194.412C235.922 195.339 235.431 196.273 234.45 197.252C234.289 197.412 234.033 197.411 233.743 197.441C233.053 197.513 232.218 197.456 231.256 197.364C227.802 197.04 222.981 196.262 217.405 197.324C216.762 197.447 212.663 198.422 209.188 198.58C208.175 198.627 207.22 198.609 206.461 198.445C206.251 198.399 205.965 198.281 205.863 198.237Z" fill="url(#paint23_linear_809_1009)"/>
<path fill-rule="evenodd" clip-rule="evenodd" d="M37.8058 667.405C37.7113 667.43 37.6187 667.462 37.5295 667.501C35.9508 668.198 33.9671 669.331 32.7387 670.298C31.9922 670.885 31.49 671.475 31.2703 671.914C29.7419 674.964 29.501 677.722 30.6473 679.695C31.7627 681.614 34.3439 683.082 39.163 683.082C40.1354 683.082 42.8242 683.161 45.5184 681.594C50.3145 678.806 50.814 674.48 48.9246 671.27C47.1483 668.25 42.9954 666.074 37.8058 667.405ZM34.4021 673.539C34.4683 673.478 34.9616 673.02 35.3746 672.729C36.3665 672.03 37.699 671.29 38.8197 670.783L38.8267 670.78C41.4662 670.146 43.7146 670.776 45.0886 672.069C45.9905 672.918 46.4997 674.045 46.3673 675.196C46.2261 676.428 45.3613 677.61 43.7411 678.552C41.8059 679.677 39.8619 679.561 39.163 679.561C37.4757 679.561 36.1582 679.377 35.1681 679.003C34.4727 678.741 33.975 678.4 33.7015 677.929C33.4332 677.467 33.3944 676.91 33.472 676.295C33.5797 675.449 33.9141 674.522 34.4021 673.539Z" fill="url(#paint24_linear_809_1009)"/>
<path fill-rule="evenodd" clip-rule="evenodd" d="M294.716 456.049C293.758 456.968 293.151 458.511 293.123 460.275C293.079 463.079 294.466 466.192 296.761 467.152C298.349 467.816 300.533 467.692 303.136 465.44C305.093 463.747 305.806 462.021 305.857 460.489C305.907 458.966 305.298 457.56 304.292 456.411C302.947 454.873 300.883 453.829 299.147 453.587C297.703 453.385 296.456 453.736 295.664 454.46C295.226 454.861 294.884 455.381 294.716 456.049ZM298.13 457.074C298.235 457.061 298.382 457.047 298.489 457.055C298.866 457.084 299.276 457.197 299.685 457.365C300.892 457.863 302.183 458.826 302.32 460.128C302.407 460.962 301.92 461.831 300.823 462.78C299.671 463.777 298.829 464.198 298.126 463.904C297.656 463.708 297.354 463.235 297.121 462.713C296.794 461.987 296.64 461.128 296.653 460.329C296.661 459.824 296.731 459.343 296.897 458.953C296.956 458.815 296.992 458.67 297.107 458.617C297.715 458.336 298.111 457.738 298.13 457.074Z" fill="url(#paint25_linear_809_1009)"/>
<path fill-rule="evenodd" clip-rule="evenodd" d="M348.773 453.242L348.736 453.216C348.316 452.934 347.655 452.745 346.831 452.913C345.976 453.089 344.702 453.753 343.945 454.308C343.386 454.718 343.053 455.152 342.936 455.386C341.981 457.291 341.514 459.422 342.37 461.101C342.782 461.91 343.482 462.664 344.643 463.243C348.125 464.979 351.356 462.72 352.508 459.879C353.26 458.022 353.067 456.012 351.841 454.688C351.183 453.98 350.197 453.41 348.773 453.242ZM347.17 456.563C347.387 456.66 347.628 456.713 347.881 456.713C348.521 456.713 348.985 456.795 349.248 457.078C349.595 457.453 349.448 458.033 349.236 458.558C348.78 459.682 347.599 460.78 346.222 460.093C344.919 459.444 345.439 458.268 345.966 457.216L347.17 456.563ZM346.122 455.103L346.123 455.11L346.122 455.103Z" fill="url(#paint26_linear_809_1009)"/>
<path fill-rule="evenodd" clip-rule="evenodd" d="M325.487 484.962C325.403 484.881 325.309 484.803 325.205 484.731C324.899 484.516 324.401 484.325 323.833 484.272C323.246 484.216 322.587 484.3 322.23 484.419C318.349 485.709 316.769 488.156 315.605 491.637C314.17 495.932 317.2 500.247 321.649 502.553C325.994 504.805 331.43 504.989 334.44 501.986C338.31 498.126 339.397 495.247 339.153 493.204C338.894 491.034 337.238 489.4 334.725 488.218C332.054 486.963 328.344 486.157 325.487 484.96V484.962ZM323.262 487.789C323.358 487.859 323.463 487.921 323.574 487.971C326.467 489.272 330.419 490.087 333.221 491.404C334.459 491.986 335.52 492.551 335.648 493.621C335.716 494.195 335.501 494.849 335.059 495.648C334.452 496.746 333.436 498.008 331.945 499.497C331.01 500.428 329.679 500.769 328.262 500.757C326.614 500.743 324.847 500.242 323.277 499.429C321.74 498.631 320.382 497.534 319.548 496.247C318.857 495.181 318.544 493.98 318.954 492.751C319.735 490.414 320.691 488.673 323.262 487.789ZM322.535 486.388L322.54 486.483C322.537 486.451 322.535 486.421 322.535 486.388ZM322.535 486.318V486.326V486.318Z" fill="url(#paint27_linear_809_1009)"/>
<path fill-rule="evenodd" clip-rule="evenodd" d="M185.516 501.749C183.604 502.899 182.74 504.388 182.497 505.863C182.13 508.098 183.291 510.454 185.075 511.909C187.252 513.685 190.161 514.042 192.147 512.059C194.238 509.975 194.404 506.099 193.188 503.43C192.32 501.525 190.797 500.301 189.096 500.225C188.024 500.178 186.783 500.557 185.516 501.749ZM187.464 504.691C187.602 504.613 187.728 504.517 187.839 504.406C188.253 503.993 188.589 503.727 188.938 503.743C189.144 503.752 189.302 503.901 189.454 504.067C189.661 504.291 189.832 504.574 189.975 504.887C190.631 506.328 190.781 508.444 189.652 509.57C188.985 510.234 188.04 509.779 187.31 509.183C186.48 508.506 185.81 507.471 185.981 506.432C186.089 505.777 186.581 505.192 187.464 504.691Z" fill="url(#paint28_linear_809_1009)"/>
<path fill-rule="evenodd" clip-rule="evenodd" d="M209.013 506.917C206.03 506.745 204.137 507.95 203.167 509.447C201.579 511.897 202.333 515.434 205.411 516.969C206.77 517.647 207.989 517.694 209.025 517.4C211.265 516.765 212.779 514.255 212.926 511.853C213.088 509.185 211.713 506.946 209.005 506.917H209.013ZM208.843 510.435C208.88 510.438 208.917 510.439 208.954 510.439C209.233 510.439 209.311 510.698 209.362 510.945C209.506 511.649 209.335 512.521 208.938 513.204C208.711 513.595 208.414 513.949 207.982 514.031C207.689 514.088 207.361 514.004 206.99 513.819C205.968 513.309 205.604 512.172 206.132 511.358C206.567 510.686 207.498 510.35 208.843 510.435Z" fill="url(#paint29_linear_809_1009)"/>
<path fill-rule="evenodd" clip-rule="evenodd" d="M178.161 516.425C177.956 516.404 177.749 516.419 177.549 516.468C173.31 517.524 170.889 520.944 170.104 524.428C169.573 526.789 169.816 529.16 170.655 530.834C177.152 543.796 192.975 542.983 201.94 534.039C203.718 532.265 204.297 530.625 204.222 529.216C204.113 527.163 202.495 525.297 199.875 523.863C196.819 522.191 192.38 520.95 188.968 519.894C187.721 519.508 186.622 519.151 185.819 518.798C185.505 518.66 185.247 518.559 185.11 518.422C183.76 517.075 183.442 516.978 178.161 516.425ZM178.122 519.961C179.665 520.12 180.663 520.207 181.367 520.316C182.013 520.415 182.234 520.534 182.614 520.913C183.189 521.486 184.52 522.14 186.323 522.745C189.635 523.856 194.804 525.105 198.177 526.951C198.979 527.389 199.67 527.855 200.159 528.38C200.453 528.698 200.678 529.023 200.698 529.403C200.732 530.059 200.273 530.723 199.444 531.548C192.108 538.867 179.129 539.865 173.812 529.259C173.282 528.2 173.212 526.693 173.548 525.199C174.049 522.977 175.5 520.741 178.12 519.962L178.122 519.961Z" fill="url(#paint30_linear_809_1009)"/>
<path fill-rule="evenodd" clip-rule="evenodd" d="M1443.44 0.647897C1430.82 0.170773 1385.74 1.15495 1371.78 2.00004C1308.38 5.83639 1236.73 21.7637 1207.46 36.2103C1065.52 106.267 944.011 110.343 782.275 92.8454C736.028 87.8418 666.557 74.4392 623.506 54.2671C609.259 47.5909 602.376 36.2227 595.394 27.4152C590.373 21.0806 585.269 16.0285 577.848 14.3832C528.007 3.33458 428.157 27.4082 377.89 36.0536C280.768 52.7582 177.174 74.8829 78.3705 74.8829C52.4855 74.8829 25.9661 75.1672 0 72.808L0.0167666 76.3442C25.9873 78.6779 52.4873 78.4041 78.3705 78.4041C177.371 78.4041 281.175 56.261 378.489 39.5238C428.419 30.9356 527.577 6.8461 577.083 17.8208C585.459 19.6774 590.377 26.5772 596.197 34.2446C602.448 42.4781 609.586 51.6341 622.005 57.4538C665.363 77.7694 735.318 91.3076 781.895 96.3464C944.373 113.924 1066.43 109.745 1209.03 39.3662C1238.05 25.0402 1309.12 9.31887 1371.99 5.51421C1385.88 4.67352 1430.89 3.67173 1443.43 4.13301L1443.44 0.647897Z" fill="url(#paint31_linear_809_1009)"/>
<path fill-rule="evenodd" clip-rule="evenodd" d="M0.00441225 40.8399C38.2772 47.4536 77.4624 46.4527 116.195 51.282C177.742 58.9565 248.984 53.5911 309.598 44.9527C367.251 36.7368 420.312 19.6704 478.733 19.6704C479.707 19.6704 480.498 18.8816 480.498 17.9098C480.498 16.9379 479.707 16.1492 478.733 16.1492C420.142 16.1492 366.92 33.227 309.1 41.4675C248.778 50.0637 177.881 55.4256 116.633 47.7881C77.7554 42.9403 38.406 43.9931 0 37.2667L0.00441225 40.8399Z" fill="url(#paint32_linear_809_1009)"/>
<path fill-rule="evenodd" clip-rule="evenodd" d="M0.00901273 15.2476C3.60677 15.4563 6.95302 15.4924 9.8104 15.1358C68.7175 7.7906 106.196 18.7116 161.836 25.6493C209.621 31.608 259.934 36.0932 308.372 31.2612C369.969 25.1167 430.815 19.2592 492.426 19.2592C493.401 19.2592 494.191 18.4704 494.191 17.4986C494.191 16.5267 493.401 15.738 492.426 15.738C430.698 15.738 369.735 21.6017 308.021 27.7576C259.843 32.5641 209.802 28.0816 162.274 22.1554C106.315 15.1772 68.6169 4.25443 9.3727 11.6419C6.63446 11.9835 3.43822 11.9509 0.00195312 11.7493L0.00901273 15.2476Z" fill="url(#paint33_linear_809_1009)"/>
<path fill-rule="evenodd" clip-rule="evenodd" d="M168.087 26.3604L168.22 26.3595C169.256 26.356 174.351 26.3613 175.224 26.3613C179.6 26.3613 183.998 25.9247 188.375 25.9247C202.789 25.9247 217.101 23.3049 231.703 23.3049C273.333 23.3049 315.13 26.3613 356.875 26.3613C357.849 26.3613 358.64 25.5726 358.64 24.6007C358.64 23.6289 357.849 22.8401 356.875 22.8401C315.13 22.8401 273.333 19.7837 231.703 19.7837C217.101 19.7837 202.789 22.4035 188.375 22.4035C183.998 22.4035 179.6 22.8401 175.224 22.8401C174.21 22.8401 167.744 22.863 167.708 22.87C166.75 23.047 166.117 23.9669 166.295 24.922C166.457 25.7891 167.231 26.3895 168.087 26.3604Z" fill="url(#paint34_linear_809_1009)"/>
<path fill-rule="evenodd" clip-rule="evenodd" d="M1286.3 357.838C1281.67 357.224 1277.28 357.767 1274.08 359.308C1271.71 360.458 1269.95 362.159 1269.08 364.32C1266.18 371.519 1266.64 376.678 1268.99 380.236C1270.45 382.437 1272.64 384.072 1275.38 385.185C1279.16 386.721 1283.99 387.262 1289.13 387.056C1294.07 386.858 1297.63 384.628 1299.74 381.516C1302.89 376.904 1302.85 370.241 1299.21 365.09C1296.69 361.519 1292.44 358.652 1286.3 357.838ZM1285.84 361.328C1290.8 361.987 1294.29 364.227 1296.33 367.117C1299.08 371.013 1299.2 376.049 1296.82 379.537C1295.26 381.824 1292.61 383.392 1288.99 383.538C1285.15 383.692 1281.49 383.413 1278.41 382.512C1275.61 381.692 1273.31 380.371 1271.94 378.301C1270.08 375.468 1270.04 371.367 1272.35 365.636C1272.92 364.25 1274.09 363.216 1275.63 362.478C1278.29 361.191 1281.96 360.816 1285.84 361.328Z" fill="url(#paint35_linear_809_1009)"/>
<path fill-rule="evenodd" clip-rule="evenodd" d="M1186.6 179.914C1186.55 179.936 1186.52 179.958 1186.47 179.984C1186.06 180.237 1182.51 181.891 1179.97 184.371C1178.15 186.15 1176.87 188.346 1177 190.717C1177.09 192.326 1177.8 194.069 1179.57 195.841C1180.39 196.665 1181.48 197.177 1182.76 197.403C1184.29 197.673 1186.17 197.517 1188.18 197.113C1192.49 196.248 1197.52 194.172 1200.53 194.172C1203.86 194.172 1208.63 196.55 1212.89 197.917C1216.38 199.033 1219.57 199.441 1221.75 198.355C1225.33 196.57 1227.26 193.992 1227.87 191.243C1228.48 188.482 1227.75 185.479 1225.78 182.775C1220.55 175.597 1205.89 170.294 1186.6 179.914ZM1188.18 183.06C1205.26 174.545 1218.29 178.489 1222.93 184.846C1224.25 186.655 1224.82 188.639 1224.42 190.486C1224.01 192.346 1222.6 193.998 1220.17 195.205C1219.52 195.533 1218.71 195.556 1217.8 195.462C1216.62 195.342 1215.33 194.999 1213.98 194.564C1209.35 193.083 1204.14 190.651 1200.53 190.651C1197.35 190.651 1192.03 192.747 1187.49 193.66C1186.19 193.922 1184.96 194.08 1183.89 193.999C1183.15 193.944 1182.51 193.794 1182.07 193.351C1181.07 192.357 1180.58 191.431 1180.52 190.529C1180.45 189.136 1181.37 187.932 1182.44 186.887C1184.56 184.818 1187.49 183.426 1188.18 183.059V183.06Z" fill="url(#paint36_linear_809_1009)"/>
<path fill-rule="evenodd" clip-rule="evenodd" d="M626.524 653.969C626.488 654.002 626.461 654.034 626.427 654.072C626.106 654.436 623.213 657.069 621.527 660.191C620.323 662.429 619.757 664.906 620.591 667.131C621.155 668.64 622.349 670.094 624.571 671.259C625.601 671.802 626.79 671.969 628.079 671.804C629.625 671.606 642.55 669.513 645.422 668.62C648.607 667.629 660.373 665.585 665.59 661.132C668.633 658.535 669.545 655.332 669.306 652.527C669.063 649.71 667.476 647.058 664.791 645.061C657.653 639.763 642.069 639.055 626.524 653.969ZM628.979 656.5C642.739 643.3 656.359 643.195 662.679 647.887C664.483 649.221 665.622 650.945 665.786 652.829C665.953 654.725 665.321 656.989 663.142 658.594C658.122 662.288 647.315 663.97 643.87 665.042C640.837 665.985 629.193 667.977 628.15 668.217C627.425 668.384 626.766 668.433 626.212 668.14C624.964 667.488 624.215 666.75 623.896 665.905C623.413 664.597 623.93 663.175 624.637 661.86C626.041 659.255 628.423 657.056 628.979 656.499L628.979 656.5Z" fill="url(#paint37_linear_809_1009)"/>
<path fill-rule="evenodd" clip-rule="evenodd" d="M1186.4 222.58C1185.64 225.704 1186.17 227.928 1187.24 229.409C1188.99 231.848 1192.47 232.503 1195.74 231.477C1198.5 230.608 1201.01 228.574 1201.97 225.836C1202.63 223.963 1202.6 221.742 1201.38 219.294C1199.42 215.394 1195.93 214.688 1192.74 215.796C1189.8 216.814 1187.14 219.51 1186.4 222.58ZM1189.83 223.408C1190.3 221.455 1192.02 219.77 1193.89 219.123C1195.49 218.569 1197.24 218.917 1198.22 220.869C1198.93 222.296 1199.02 223.583 1198.64 224.674C1198.04 226.385 1196.4 227.577 1194.67 228.119C1192.95 228.662 1191.03 228.645 1190.11 227.353C1189.49 226.502 1189.39 225.203 1189.83 223.408Z" fill="url(#paint38_linear_809_1009)"/>
<path fill-rule="evenodd" clip-rule="evenodd" d="M1224.31 220.178C1221.92 221.491 1221.06 223.961 1221.39 226.302C1221.71 228.625 1223.23 230.73 1225.3 231.419C1227.05 231.998 1229.32 231.71 1231.7 229.336C1232.77 228.267 1233.31 226.301 1233.02 224.348C1232.75 222.432 1231.71 220.614 1230.06 219.748C1228.66 219.007 1226.74 218.846 1224.31 220.178ZM1226.01 223.262C1227.04 222.7 1227.82 222.548 1228.41 222.861C1229.1 223.223 1229.41 224.055 1229.53 224.855C1229.64 225.619 1229.62 226.429 1229.21 226.846C1228.12 227.922 1227.21 228.34 1226.42 228.078C1225.54 227.786 1225.02 226.806 1224.88 225.822C1224.75 224.857 1225.03 223.804 1226.01 223.262Z" fill="url(#paint39_linear_809_1009)"/>
<path fill-rule="evenodd" clip-rule="evenodd" d="M1059.74 648.79C1059.7 648.801 1059.66 648.812 1059.63 648.825C1050.51 652.017 1046.31 657.141 1045.17 662.444C1043.82 668.662 1046.73 675.332 1051.48 679.988C1056.28 684.687 1062.89 687.254 1068.61 685.537C1091.94 678.547 1083.61 642.107 1059.74 648.79ZM1060.74 652.166C1080.13 646.797 1086.57 676.481 1067.6 682.164C1063.01 683.54 1057.79 681.241 1053.95 677.476C1050.06 673.667 1047.51 668.273 1048.62 663.186C1049.56 658.811 1053.23 654.812 1060.73 652.17L1060.74 652.166Z" fill="url(#paint40_linear_809_1009)"/>
<path fill-rule="evenodd" clip-rule="evenodd" d="M408.415 683.08C411.744 688.458 414.944 691.682 417.763 693.353C421.097 695.329 424.032 695.29 426.33 694.114C428.149 693.185 429.606 691.489 430.526 689.292C431.78 686.299 432.036 682.343 430.905 678.417C429.823 674.66 426.402 664.031 411.087 658.303C406.587 656.621 397.713 657.482 392.298 661.101C388.31 663.757 386.08 667.766 388.031 673.105C389.301 676.581 390.828 678.23 392.395 679.029C393.535 679.609 394.748 679.775 396.041 679.713C399.322 679.572 403.416 677.501 408.415 683.08ZM411.345 681.108C411.293 681.025 411.229 680.939 411.165 680.867C405.853 674.844 401.4 675.511 397.647 676.013C396.348 676.189 395.164 676.427 394.094 675.937C393.032 675.453 392.202 674.241 391.349 671.901C390.062 668.381 391.634 665.778 394.26 664.025C398.758 661.021 406.111 660.204 409.845 661.597C423.445 666.686 426.548 676.052 427.512 679.39C428.401 682.474 428.257 685.585 427.273 687.936C426.699 689.3 425.85 690.403 424.717 690.977C423.329 691.688 421.582 691.522 419.57 690.33C417.067 688.847 414.298 685.91 411.345 681.108Z" fill="url(#paint41_linear_809_1009)"/>
<path fill-rule="evenodd" clip-rule="evenodd" d="M1355.37 689.488C1350.58 689.297 1347.65 691.918 1346.83 694.933C1345.99 697.999 1347.25 701.686 1351.29 703.699C1352.96 704.535 1354.69 704.434 1356.26 703.692C1358.26 702.753 1360.03 700.682 1360.93 698.419C1361.92 695.931 1361.84 693.278 1360.41 691.546C1359.46 690.367 1357.86 689.496 1355.37 689.488ZM1355.26 693.007C1355.29 693.008 1355.31 693.009 1355.33 693.009C1356.46 693.009 1357.25 693.234 1357.68 693.766C1358.37 694.608 1358.14 695.905 1357.65 697.115C1357.17 698.333 1356.32 699.491 1355.31 700.191C1354.56 700.703 1353.7 700.968 1352.87 700.551C1350.66 699.449 1349.77 697.538 1350.23 695.863C1350.71 694.144 1352.52 692.89 1355.26 693.007Z" fill="url(#paint42_linear_809_1009)"/>
<path fill-rule="evenodd" clip-rule="evenodd" d="M649.002 629.518C649.137 629.94 649.427 630.288 649.813 630.508C652.538 632.055 652.62 632.112 653.042 632.41C655.958 634.485 657.931 634.178 658.974 633.351C659.567 632.882 660.01 632.176 660.218 631.229C660.519 629.859 660.284 627.809 659.607 625.761C658.839 623.432 657.531 621.117 656.128 619.811C654.898 618.657 653.537 618.223 652.286 618.491C651.437 618.68 650.56 619.202 649.791 620.276C648.795 621.672 648.297 622.797 648.107 623.899C647.838 625.452 648.207 627.024 649.002 629.518ZM656.766 630.45C656.698 630.431 656.624 630.41 656.559 630.391C656.141 630.228 655.656 629.948 655.088 629.548C654.659 629.24 654.556 629.153 652.154 627.79C651.706 626.402 651.418 625.457 651.585 624.494C651.701 623.826 652.06 623.169 652.667 622.319C652.803 622.127 652.895 621.963 653.044 621.932C653.103 621.924 653.152 621.976 653.213 622.003C653.385 622.092 653.552 622.225 653.719 622.385C654.767 623.359 655.681 625.123 656.254 626.86C656.42 627.358 656.555 627.861 656.652 628.348C656.793 629.029 656.861 629.672 656.81 630.208C656.804 630.278 656.785 630.373 656.766 630.45Z" fill="url(#paint43_linear_809_1009)"/>
<path fill-rule="evenodd" clip-rule="evenodd" d="M1284.82 517.074C1281.53 517.074 1279.1 517.899 1277.56 519.376C1275.95 520.94 1275.19 523.282 1275.72 526.53C1276.11 528.905 1277.14 530.446 1278.42 531.417C1280.31 532.848 1282.86 533.05 1285.14 532.529C1287.76 531.934 1289.92 530.357 1290.51 529.126C1292.54 524.958 1290.68 520.803 1288.36 518.688C1287.18 517.61 1285.86 517.074 1284.82 517.074ZM1284.82 520.595C1285 520.595 1285.2 520.716 1285.43 520.855C1285.82 521.103 1286.21 521.466 1286.56 521.908C1287.67 523.283 1288.38 525.43 1287.34 527.592C1287.25 527.757 1287.05 527.894 1286.82 528.057C1286.19 528.497 1285.31 528.879 1284.36 529.096C1283.07 529.389 1281.61 529.418 1280.55 528.614C1279.87 528.096 1279.41 527.231 1279.2 525.966C1278.9 524.145 1279.12 522.782 1280.02 521.906C1281.02 520.942 1282.67 520.595 1284.82 520.595Z" fill="url(#paint44_linear_809_1009)"/>
<path fill-rule="evenodd" clip-rule="evenodd" d="M1276.13 442.172C1272.59 441.4 1269.7 443.425 1268.21 446.532C1266.09 450.968 1267.02 457.456 1272.73 459.583C1278.03 461.56 1282.12 457.392 1283.14 452.46C1283.74 449.57 1283.24 446.525 1281.52 444.537C1280.33 443.164 1278.58 442.224 1276.13 442.172ZM1275.49 445.639C1275.63 445.674 1275.77 445.691 1275.92 445.691C1277.24 445.691 1278.21 446.106 1278.84 446.836C1279.9 448.061 1280.05 449.965 1279.68 451.745C1279.09 454.6 1277.04 457.43 1273.97 456.285C1270.4 454.956 1270.07 450.821 1271.4 448.051C1272.18 446.415 1273.61 445.173 1275.49 445.639Z" fill="url(#paint45_linear_809_1009)"/>
<path fill-rule="evenodd" clip-rule="evenodd" d="M1151.3 409.895C1151.11 409.744 1150.89 409.634 1150.65 409.573C1142.53 407.48 1136.4 411.092 1133.49 415.326C1132.14 417.281 1131.47 419.388 1131.52 421.199C1131.58 423.595 1131.85 425.118 1132.21 426.023C1132.69 427.186 1133.4 427.716 1134.11 427.951C1135.03 428.25 1136.27 427.983 1137.67 427.101C1138.66 426.473 1139.86 425.532 1141.22 424.84C1142.33 424.289 1143.55 423.888 1144.92 424.156C1148.59 424.883 1151.43 424.638 1153.35 423.838C1154.96 423.167 1156.01 422.106 1156.56 420.832C1157.09 419.581 1157.14 418.082 1156.56 416.434C1155.86 414.448 1154.17 412.153 1151.3 409.895ZM1135.39 424.37C1135.36 424.265 1135.33 424.151 1135.3 424.04C1135.16 423.33 1135.08 422.371 1135.05 421.108C1135.02 419.932 1135.52 418.589 1136.39 417.32C1138.61 414.095 1143.28 411.46 1149.4 412.894L1149.41 412.896C1151.12 414.281 1152.29 415.644 1152.93 416.917C1153.43 417.882 1153.61 418.747 1153.31 419.452C1153.02 420.131 1152.3 420.554 1151.31 420.815C1149.88 421.19 1147.97 421.169 1145.6 420.702C1143.83 420.351 1142.17 420.637 1140.66 421.235C1139.34 421.762 1138.13 422.538 1137.07 423.259C1136.43 423.69 1135.88 424.108 1135.39 424.37Z" fill="url(#paint46_linear_809_1009)"/>
<path fill-rule="evenodd" clip-rule="evenodd" d="M1208.3 410.213C1205.32 408.24 1200.25 408.647 1197 410.667C1194.51 412.21 1193.1 414.594 1193.8 417.334C1194.37 419.537 1195.81 420.446 1197.59 420.854C1198.54 421.073 1199.61 421.116 1200.62 421.238C1201.25 421.314 1201.86 421.377 1202.29 421.724C1202.77 422.112 1204.01 423.821 1205.62 424.931C1207.07 425.93 1208.76 426.472 1210.51 425.96C1212.91 425.261 1214.2 424.008 1214.81 422.594C1215.43 421.177 1215.36 419.505 1214.7 417.789C1213.63 414.957 1210.93 411.957 1208.3 410.213ZM1206.5 412.955C1208.2 414.083 1209.95 415.847 1211.02 417.681C1211.79 418.985 1212.3 420.298 1211.79 421.36C1211.47 422.021 1210.74 422.477 1209.6 422.809C1208.57 423.113 1207.64 422.417 1206.86 421.744C1205.64 420.707 1204.73 419.476 1204.33 419.157C1203.23 418.276 1201.63 418.026 1200.01 417.877C1199.34 417.816 1198.67 417.764 1198.07 417.587C1197.56 417.438 1197.13 417.16 1196.97 416.509C1196.63 415.206 1197.53 414.191 1198.71 413.458C1200.95 412.063 1204.45 411.595 1206.5 412.955Z" fill="url(#paint47_linear_809_1009)"/>
<path fill-rule="evenodd" clip-rule="evenodd" d="M1173.9 442.344C1162.51 443.885 1158.79 439.346 1156.98 437.731C1155.56 436.461 1153.15 435.397 1150.62 434.876C1148.06 434.349 1145.39 434.387 1143.51 435.123C1125.17 442.301 1130.89 461.539 1132.68 465.356C1135.52 471.394 1143.77 487.63 1166.36 483.822C1177.84 481.886 1194.35 474.305 1202.55 465.334C1206.1 461.437 1208.11 457.248 1207.84 453.15C1207.65 450.325 1206.42 447.5 1203.76 444.807C1201.27 442.276 1196.72 441.143 1191.73 440.926C1184.89 440.628 1177.22 441.894 1173.9 442.344ZM1174.38 445.915C1177.58 445.481 1184.98 444.239 1191.57 444.526C1195.53 444.699 1199.21 445.33 1201.18 447.335C1203.13 449.3 1204.1 451.324 1204.23 453.385C1204.45 456.616 1202.68 459.836 1199.88 462.907C1192.16 471.358 1176.58 478.445 1165.76 480.269C1145.74 483.643 1138.47 469.179 1135.95 463.827C1134.45 460.635 1129.49 444.481 1144.83 438.477C1146.17 437.955 1148.07 438.031 1149.89 438.406C1151.74 438.786 1153.53 439.489 1154.57 440.417C1156.69 442.311 1161.02 447.721 1174.38 445.915Z" fill="url(#paint48_linear_809_1009)"/>
<path fill-rule="evenodd" clip-rule="evenodd" d="M1134.59 564.458C1127.91 563.761 1120.07 563.202 1113.3 564.402C1108.49 565.255 1104.21 566.998 1101.13 570.07C1096.92 574.265 1095.56 578.387 1096.03 582.148C1096.51 585.874 1098.84 589.332 1102.42 592.244C1108.38 597.108 1117.85 600.491 1126.68 601.296C1132.69 601.843 1138.41 601.185 1142.58 599.104C1152.7 594.056 1156.45 585.375 1154.87 578.052C1153.3 570.732 1146.37 564.488 1134.58 564.458H1134.59ZM1134.31 567.969C1134.37 567.975 1134.43 567.978 1134.49 567.978C1144.21 567.978 1150.13 572.775 1151.42 578.791C1152.72 584.823 1149.34 591.796 1141 595.954C1137.33 597.785 1132.29 598.271 1127 597.789C1118.87 597.048 1110.14 593.994 1104.65 589.517C1101.86 587.242 1099.9 584.617 1099.54 581.706C1099.17 578.832 1100.41 575.766 1103.62 572.56C1106.22 569.972 1109.86 568.587 1113.92 567.87C1120.41 566.72 1127.93 567.301 1134.31 567.969Z" fill="url(#paint49_linear_809_1009)"/>
<path fill-rule="evenodd" clip-rule="evenodd" d="M54.5733 601.429C54.5071 601.409 54.44 601.393 54.3721 601.381C48.7058 600.401 45.1654 604.355 44.3942 608.748C43.8788 611.688 44.6616 614.775 46.7415 616.682C48.8806 618.642 52.5286 619.548 57.9019 617.237C60.0092 616.331 61.4061 613.969 61.5464 611.18C61.7352 607.41 59.6773 602.941 54.5733 601.429ZM53.6714 604.835C56.8456 605.827 58.1401 608.629 58.021 611.004C57.9539 612.33 57.5065 613.573 56.5049 614.004C52.9584 615.529 50.5413 615.382 49.1294 614.089C47.8984 612.96 47.5666 611.096 47.8719 609.355C48.3281 606.753 50.3366 604.315 53.6643 604.834L53.6714 604.835Z" fill="url(#paint50_linear_809_1009)"/>
<path fill-rule="evenodd" clip-rule="evenodd" d="M25.572 705.487C25.5267 705.474 25.4807 705.463 25.4341 705.454C21.55 704.783 19.1231 707.493 18.5944 710.504C18.2412 712.52 18.7777 714.636 20.2035 715.943C21.6698 717.286 24.1705 717.907 27.8537 716.323C29.2983 715.702 30.2558 714.083 30.352 712.171C30.4815 709.587 29.0708 706.524 25.572 705.487ZM24.9538 707.822C27.1297 708.502 28.0171 710.423 27.9354 712.05C27.8894 712.96 27.5828 713.812 26.8962 714.107C24.4651 715.153 22.8082 715.052 21.8404 714.165C20.9965 713.391 20.7691 712.114 20.9784 710.92C21.2911 709.137 22.6679 707.466 24.949 707.821L24.9538 707.822Z" fill="url(#paint51_linear_809_1009)"/>
<path fill-rule="evenodd" clip-rule="evenodd" d="M354.938 650.713C354.79 650.765 354.648 650.837 354.518 650.926C352.547 652.283 351.871 653.942 351.876 655.495C351.882 657.729 353.477 659.886 355.359 660.888C356.984 661.754 358.746 661.749 360.012 660.804C360.952 660.101 361.768 658.77 361.768 656.448C361.768 653.8 360.952 651.796 359.495 650.891C358.448 650.242 356.971 650.005 354.938 650.713ZM356.346 653.955C356.905 653.771 357.321 653.689 357.63 653.881C357.826 654.003 357.912 654.236 357.998 654.497C358.177 655.04 358.238 655.707 358.238 656.448C358.238 656.897 358.196 657.273 358.104 657.579C358.049 657.763 358.005 657.915 357.892 657.988C357.799 658.049 357.68 658.011 357.562 657.988C357.344 657.943 357.123 657.846 356.91 657.72C356.289 657.352 355.723 656.735 355.495 656.023C355.276 655.336 355.511 654.599 356.342 653.957L356.346 653.955Z" fill="url(#paint52_linear_809_1009)"/>
<path fill-rule="evenodd" clip-rule="evenodd" d="M199.648 622.416C199.5 622.468 199.358 622.54 199.228 622.629C197.257 623.986 196.581 625.645 196.585 627.198C196.591 629.432 198.187 631.59 200.068 632.591C201.693 633.458 203.456 633.452 204.721 632.507C205.662 631.804 206.477 630.473 206.477 628.151C206.477 625.503 205.662 623.499 204.204 622.594C203.157 621.945 201.68 621.708 199.648 622.416ZM201.055 625.658C201.615 625.474 202.031 625.392 202.339 625.584C202.535 625.706 202.622 625.939 202.707 626.2C202.887 626.743 202.947 627.41 202.947 628.151C202.947 628.6 202.905 628.976 202.813 629.282C202.759 629.466 202.714 629.618 202.602 629.691C202.508 629.752 202.39 629.715 202.271 629.691C202.054 629.646 201.833 629.549 201.619 629.423C200.998 629.055 200.432 628.438 200.205 627.726C199.985 627.039 200.221 626.302 201.052 625.66L201.055 625.658Z" fill="url(#paint53_linear_809_1009)"/>
<path fill-rule="evenodd" clip-rule="evenodd" d="M389.796 700.931C389.628 700.931 389.46 700.954 389.299 701.002C387.1 701.646 386.172 702.911 385.885 704.209C385.503 705.929 386.458 708.065 387.991 709.529C388.989 710.484 390.185 711.129 391.195 711.299C392.293 711.483 393.252 711.199 393.964 710.49C395.873 708.585 396.329 706.208 395.624 704.346C394.925 702.493 393.041 700.931 389.796 700.931ZM391.682 707.769C391.411 707.64 390.785 707.323 390.434 706.987C390.001 706.573 389.62 706.071 389.425 705.551C389.339 705.322 389.245 705.091 389.36 704.894C389.477 704.691 389.716 704.568 390.048 704.457L390.049 704.456C391.241 704.502 392.053 704.878 392.321 705.588C392.576 706.263 392.302 707.058 391.682 707.769Z" fill="url(#paint54_linear_809_1009)"/>
<path fill-rule="evenodd" clip-rule="evenodd" d="M344.329 587.578C344.29 587.567 344.251 587.558 344.213 587.55C339.873 586.683 336.766 588.072 334.97 590.226C332.193 593.554 332.474 598.949 336.437 602.071C338.748 603.891 341.099 604.465 343.212 604.265C348.236 603.789 351.977 598.757 351.275 594.254C350.845 591.501 348.859 588.807 344.329 587.578ZM343.461 590.992C346.157 591.737 347.53 593.147 347.787 594.795C348.395 598.693 343.38 603.052 338.625 599.308C336.335 597.505 336.079 594.4 337.683 592.477C338.798 591.14 340.774 590.471 343.456 590.991L343.461 590.992Z" fill="url(#paint55_linear_809_1009)"/>
<path fill-rule="evenodd" clip-rule="evenodd" d="M623.126 626.428C623.087 626.417 623.048 626.408 623.009 626.4C618.67 625.533 615.563 626.922 613.767 629.076C610.99 632.404 611.271 637.799 615.234 640.921C617.545 642.741 619.896 643.315 622.009 643.115C627.033 642.639 630.774 637.607 630.072 633.104C629.642 630.351 627.656 627.657 623.126 626.428ZM622.258 629.842C624.954 630.587 626.327 631.997 626.583 633.645C627.192 637.543 622.177 641.902 617.422 638.158C615.132 636.355 614.876 633.25 616.48 631.327C617.595 629.99 619.571 629.321 622.253 629.841L622.258 629.842Z" fill="url(#paint56_linear_809_1009)"/>
<path fill-rule="evenodd" clip-rule="evenodd" d="M1306.78 624.848C1302.92 626.34 1301.37 628.743 1301.12 631.041C1300.88 633.244 1301.86 635.499 1303.58 637.127C1306.1 639.512 1310.1 640.515 1313.57 638.203C1316.94 635.954 1318.06 633.563 1318.07 631.554C1318.08 629.518 1316.95 627.68 1315.19 626.374C1312.8 624.582 1309.26 623.882 1306.78 624.848ZM1308.05 628.13C1309.55 627.551 1311.64 628.118 1313.08 629.194C1313.9 629.803 1314.54 630.591 1314.54 631.54C1314.54 632.731 1313.6 633.945 1311.6 635.275C1309.66 636.574 1307.43 635.913 1306.01 634.575C1305.11 633.721 1304.5 632.578 1304.63 631.423C1304.77 630.121 1305.87 628.976 1308.05 628.13Z" fill="url(#paint57_linear_809_1009)"/>
<path fill-rule="evenodd" clip-rule="evenodd" d="M932.435 693.769C935.762 693.109 936.759 690.219 936.159 687.664C935.806 686.161 934.906 684.746 933.485 683.99C932.532 683.485 931.324 683.248 929.823 683.556C925.693 684.407 925.067 687.865 925.552 689.643C926.02 691.349 926.779 692.517 927.864 693.212C928.923 693.896 930.379 694.178 932.435 693.769ZM931.747 690.315C930.865 690.491 930.229 690.544 929.77 690.251C929.329 689.967 929.144 689.414 928.958 688.716C928.8 688.159 929.241 687.271 930.538 687.005C931.059 686.896 931.491 686.923 931.826 687.1C932.338 687.372 932.594 687.927 932.718 688.467C932.894 689.213 932.718 690.123 931.747 690.315Z" fill="url(#paint58_linear_809_1009)"/>
<path fill-rule="evenodd" clip-rule="evenodd" d="M177.007 654.411C172.732 655.75 169.328 658.749 168.161 661.794C167.236 664.208 167.549 666.684 169.587 668.718C171.011 670.139 173.251 670.668 175.875 670.367C180.922 669.789 187.525 666.172 190.366 663.338C193.404 660.308 193.763 656.604 191.418 654.501C190.53 653.704 189.179 653.078 187.255 652.872C184.905 652.622 181.543 652.991 177.007 654.411ZM178.064 657.771C181.971 656.548 184.856 656.158 186.879 656.373C188.202 656.515 189.061 656.828 189.348 657.512C189.507 657.89 189.439 658.329 189.276 658.785C189.027 659.479 188.536 660.184 187.87 660.848C185.775 662.94 181.29 665.51 177.319 666.52C176.099 666.83 174.932 666.994 173.914 666.911C173.179 666.85 172.531 666.676 172.083 666.228C170.867 665.015 171.069 663.464 171.964 662.064C173.141 660.221 175.406 658.603 178.064 657.771Z" fill="url(#paint59_linear_809_1009)"/>
<path fill-rule="evenodd" clip-rule="evenodd" d="M166.876 698.886C166.641 699.033 166.449 699.237 166.316 699.478C163.417 704.75 163.914 711.588 167.367 714.852C169.758 717.112 173.599 717.954 178.89 715.314C182.063 713.732 183.836 709.937 183.872 706.081C183.906 702.208 182.194 698.396 178.86 696.806C176.123 695.501 172.126 695.601 166.876 698.886ZM168.966 701.401C172.694 699.153 175.486 698.783 177.462 699.725C179.7 700.793 180.652 703.452 180.629 706.052C180.605 708.67 179.594 711.347 177.44 712.422C173.842 714.216 171.223 714.041 169.597 712.503C168.63 711.589 168.046 710.258 167.788 708.771C167.384 706.449 167.78 703.749 168.965 701.402L168.966 701.401Z" fill="url(#paint60_linear_809_1009)"/>
<path fill-rule="evenodd" clip-rule="evenodd" d="M58.662 522.496C58.6214 522.506 58.5808 522.517 58.5411 522.53C45.4049 526.677 41.1815 534.566 42.1019 541.896C43.4671 552.769 56.7435 563.012 71.1813 559.412C86.3339 555.633 89.9087 540.396 83.6203 530.458C79.4843 523.921 71.0454 519.531 58.662 522.496ZM59.5462 525.906C69.9609 523.432 77.1529 526.834 80.635 532.337C85.785 540.477 82.7344 552.901 70.3244 555.995C58.129 559.037 46.7568 550.644 45.6043 541.459C44.8472 535.43 48.7609 529.332 59.5365 525.909L59.5462 525.906Z" fill="url(#paint61_linear_809_1009)"/>
<path fill-rule="evenodd" clip-rule="evenodd" d="M708.399 83.7658C727.266 84.8706 788.904 86.2579 893.932 92.6903C973.494 97.5628 1137.16 74.1714 1180.87 52.3681C1181.74 51.9332 1182.1 50.8751 1181.66 50.0062C1181.22 49.1373 1180.16 48.7844 1179.29 49.2183C1135.86 70.8843 973.203 94.0169 894.153 89.1753C789.115 82.7429 727.474 81.3555 708.605 80.2508C707.633 80.1935 706.797 80.9347 706.74 81.9048C706.683 82.8749 707.426 83.7086 708.399 83.7658Z" fill="url(#paint62_linear_809_1009)"/>
<path fill-rule="evenodd" clip-rule="evenodd" d="M1221.66 30.0991C1207.41 27.394 1189.31 35.1301 1176.64 39.3441C1172.05 40.8723 1165.15 40.418 1158.29 40.0166C1150.92 39.5862 1143.59 39.2103 1138.76 40.8151C1122.04 46.3742 1134.63 42.9586 1053.89 65.9274C1027.15 73.5385 1003.29 77.5589 979.009 79.4806C978.038 79.5572 977.306 80.4066 977.385 81.375C977.465 82.3433 978.312 83.0678 979.283 82.9912C1003.79 81.0519 1027.87 76.9946 1054.86 69.314C1135.73 46.3046 1123.12 49.7246 1139.87 44.1558C1144.37 42.6593 1151.22 43.1311 1158.08 43.5317C1165.44 43.9621 1172.83 44.3231 1177.76 42.6839C1189.95 38.6319 1207.29 30.9566 1220.99 33.5578C1221.96 33.7392 1222.88 33.1124 1223.06 32.1573C1223.25 31.203 1222.62 30.2805 1221.66 30.0991Z" fill="url(#paint63_linear_809_1009)"/>
<path fill-rule="evenodd" clip-rule="evenodd" d="M886.625 52.2882C905.042 59.2426 927.447 61.1141 948.264 63.4214C1014.75 70.7904 1074.76 65.2594 1138.18 44.1736C1139.1 43.8663 1139.6 42.8681 1139.3 41.9464C1138.99 41.0247 1137.98 40.5256 1137.06 40.8328C1074.16 61.7523 1014.62 67.2322 948.653 59.9213C928.136 57.6466 906.03 55.8517 887.878 48.995C886.969 48.6517 885.946 49.1094 885.602 50.0188C885.258 50.9273 885.716 51.9449 886.625 52.2882Z" fill="url(#paint64_linear_809_1009)"/>
<path fill-rule="evenodd" clip-rule="evenodd" d="M1138.21 44.1823C1142.2 43.1128 1150.14 43.6718 1158.54 44.6533C1171.64 46.185 1185.81 48.8339 1188.77 48.8339C1189.74 48.8339 1190.53 48.0442 1190.53 47.0733C1190.53 46.1014 1189.74 45.3127 1188.77 45.3127C1185.86 45.3127 1171.88 42.6673 1158.95 41.1559C1150 40.1101 1141.54 39.6426 1137.29 40.7826C1136.36 41.0353 1135.79 42.0018 1136.05 42.9402C1136.31 43.8786 1137.28 44.435 1138.21 44.1823Z" fill="url(#paint65_linear_809_1009)"/>
<path fill-rule="evenodd" clip-rule="evenodd" d="M599.284 32.4717C598.827 31.6627 597.809 31.3422 596.964 31.7595C596.092 32.1909 595.734 33.2481 596.167 34.1187C596.419 34.6275 596.901 35.1716 597.676 35.6531C598.784 36.3406 600.699 37.0149 603.196 37.6109C616.199 40.7139 646.186 42.4297 650.999 42.4297C674.277 42.4297 702.157 46.1982 729.877 48.0803C757.882 49.9809 785.722 49.9439 808.594 42.339C809.518 42.0318 810.018 41.0344 809.71 40.1118C809.402 39.1901 808.401 38.691 807.477 38.9982C785.002 46.472 757.637 46.435 730.116 44.567C702.312 42.6788 674.347 38.9084 650.999 38.9084C646.852 38.9084 623.73 37.6188 609.438 35.2499C605.872 34.6592 602.871 34.0087 600.896 33.2824C600.189 33.0227 599.387 32.5351 599.284 32.4717Z" fill="url(#paint66_linear_809_1009)"/>
<path fill-rule="evenodd" clip-rule="evenodd" d="M827.43 31.0288C822.562 32.1142 820.029 34.2023 819.25 36.5853C818.738 38.1513 818.904 39.9392 819.844 41.8794C820.991 44.2465 823.375 46.9403 826.902 49.7555C848.267 66.8069 913.099 89.9712 979.362 83.0159C980.333 82.9138 981.03 82.0467 980.933 81.0801C980.827 80.1136 979.962 79.4119 978.992 79.5132C913.867 86.3505 850.106 63.7655 829.107 47.0054C826.569 44.9798 824.679 43.0599 823.552 41.2878C822.688 39.9304 822.26 38.7306 822.605 37.6768C822.815 37.0342 823.322 36.4963 824.067 36.0139C825.064 35.3678 826.439 34.8581 828.199 34.4655C829.15 34.2533 829.749 33.3114 829.537 32.3633C829.324 31.4152 828.38 30.8175 827.43 31.0288Z" fill="url(#paint67_linear_809_1009)"/>
<path fill-rule="evenodd" clip-rule="evenodd" d="M992.025 57.0056C992.775 55.3964 994.258 53.554 994.258 53.554L992.025 57.0056Z" fill="url(#paint68_linear_809_1009)"/>
<path fill-rule="evenodd" clip-rule="evenodd" d="M1009.73 57.3595L1009.88 57.356C1047.61 57.8859 1085.34 56.8358 1122.1 49.5028C1123.06 49.3127 1123.68 48.384 1123.48 47.4315C1123.3 46.479 1122.36 45.8593 1121.41 46.0503C1085.81 53.1526 1049.3 54.3269 1012.75 53.8911L1012.7 53.9475C987.322 53.3524 943.561 51.9369 918.597 51.9369C896.456 51.9369 877.601 47.0714 856.708 41.1162C848.864 38.8811 841.96 35.1742 834.172 32.5843C833.446 32.3431 829.328 31.2463 828.416 31.02C826.909 30.6459 826.207 31.9619 826.194 31.9901C826.182 32.0192 825.673 33.9127 827.524 34.44C827.612 34.4655 827.702 34.4831 827.79 34.4946C828.97 34.7956 832.412 35.7111 833.055 35.9242C840.893 38.5308 847.844 42.2527 855.738 44.5027C876.956 50.5495 896.112 55.4581 918.597 55.4581C942.732 55.4581 996.844 57.6562 1009.73 57.3595Z" fill="url(#paint69_linear_809_1009)"/>
<path fill-rule="evenodd" clip-rule="evenodd" d="M1051.3 47.4377C1051.23 47.3791 1051.17 47.3199 1051.11 47.2544C1050.33 46.3312 1049.98 44.9382 1050.2 43.2112C1050.46 41.1471 1051.5 38.509 1053.04 35.7928C1055.3 31.8171 1058.65 27.6449 1062.05 24.8544C1064.64 22.7233 1067.35 21.3962 1069.67 21.201C1078.54 20.4444 1082.88 27.3701 1081.95 32.9253C1081.56 35.2816 1080.21 37.3487 1078.08 38.5576C1076.58 39.4092 1074.68 39.8734 1072.35 39.683C1066.54 39.2229 1062.82 39.91 1060.39 41.1087C1056.86 42.8563 1056.25 45.6116 1055.66 46.6443C1055.04 47.732 1054.08 48.0812 1053.36 48.13C1052.81 48.1651 1052.05 48.082 1051.3 47.4377ZM1054.97 40.7513C1055.93 39.7983 1057.21 38.8716 1058.94 38.1059C1061.9 36.7981 1066.28 35.9444 1072.92 36.4753C1075.99 36.7207 1077.54 34.8116 1077.91 32.6274C1078.54 28.8468 1075.98 23.8954 1069.95 24.4076C1068.38 24.5394 1066.69 25.6062 1064.94 27.0404C1061.84 29.5888 1058.81 33.3889 1056.75 37.0141C1056.02 38.3047 1055.41 39.5791 1054.97 40.7513Z" fill="url(#paint70_linear_809_1009)"/>
<path fill-rule="evenodd" clip-rule="evenodd" d="M827.301 30.967C820.239 32.0005 810.796 37.1159 801.153 42.4215C791.893 47.5167 782.435 52.78 774.794 54.3047C753.759 58.5011 703.371 70.5225 681.982 74.402C681.024 74.5754 680.387 75.4927 680.561 76.4487C680.736 77.4056 681.656 78.0403 682.614 77.866C704.017 73.9848 754.438 61.9572 775.486 57.7573C783.411 56.1762 793.254 50.7897 802.858 45.5052C812.078 40.432 821.061 35.439 827.813 34.4513C828.778 34.3104 829.445 33.4152 829.304 32.4539C829.163 31.4926 828.265 30.8262 827.301 30.967Z" fill="url(#paint71_linear_809_1009)"/>
<path fill-rule="evenodd" clip-rule="evenodd" d="M854.493 21.0487C853.716 21.1948 853.131 21.8383 853.062 22.6244C852.992 23.4097 853.456 24.1456 854.195 24.4247C857.248 25.5787 860.244 26.9036 863.042 27.5629C865.437 28.1281 867.706 28.2126 869.786 27.4978C871.902 26.7698 873.865 25.2266 875.528 22.3577C876.872 20.0381 876.714 18.5328 876.235 17.7088C875.777 16.9192 874.916 16.3611 873.639 16.237C872.144 16.0917 869.751 16.6208 867.529 17.031C865.807 17.3497 865.221 17.7 864.72 18.0592C863.91 18.6402 863.464 19.3594 854.493 21.0487ZM872.876 19.7441C872.773 20.0038 872.634 20.3145 872.472 20.5953C871.34 22.5478 870.075 23.6738 868.636 24.1685C867.161 24.6755 865.552 24.5365 863.854 24.1368C862.915 23.915 861.953 23.6121 860.974 23.2653H860.975C864.805 22.3093 865.806 21.6491 866.432 21.1825C866.81 20.9008 866.977 20.7142 868.171 20.4932C869.62 20.2256 871.145 19.8744 872.38 19.7608C872.535 19.7467 872.711 19.7432 872.876 19.7441Z" fill="url(#paint72_linear_809_1009)"/>
<path fill-rule="evenodd" clip-rule="evenodd" d="M611.003 50.0855C621.433 52.3593 638.723 56.2485 675.877 59.6024C709.935 62.6773 755.483 57.3577 783.075 51.0926C795.236 48.3311 803.969 45.2905 806.963 42.7781C807.708 42.1531 807.805 41.0413 807.177 40.2974C806.551 39.5544 805.436 39.4585 804.69 40.0835C801.892 42.4321 793.66 45.0775 782.291 47.6594C754.983 53.8602 709.904 59.1385 676.196 56.0953C639.29 52.7643 622.117 48.9041 611.757 46.6453C610.805 46.4375 609.864 47.0396 609.656 47.9895C609.448 48.9385 610.052 49.8778 611.003 50.0855Z" fill="url(#paint73_linear_809_1009)"/>
<path fill-rule="evenodd" clip-rule="evenodd" d="M431.069 784.918C427.199 788.779 427.863 794.673 431.953 796.581C435.169 798.083 438.262 798.127 440.349 796.725C441.819 795.737 442.918 794.022 443.177 791.348C443.404 788.994 442.766 787.213 441.731 785.92C440.187 783.989 437.667 783.126 435.376 783.224C433.635 783.299 432.055 783.934 431.069 784.918ZM433.62 787.464C434.05 787.035 434.772 786.854 435.53 786.822C436.738 786.77 438.096 787.149 438.91 788.166C439.447 788.837 439.702 789.78 439.585 791.001C439.457 792.327 439.062 793.249 438.334 793.739C437.123 794.552 435.347 794.191 433.482 793.321C431.433 792.365 431.682 789.397 433.62 787.464Z" fill="url(#paint74_linear_809_1009)"/>
<path fill-rule="evenodd" clip-rule="evenodd" d="M166.043 777.072C155.335 782.15 163.711 798.23 174.45 792.479C177.799 790.686 179.039 787.004 178.47 783.538C177.964 780.456 176.021 777.624 173.109 776.52C171.177 775.787 168.784 775.773 166.043 777.072ZM167.592 780.324C169.238 779.543 170.667 779.445 171.827 779.885C173.554 780.539 174.608 782.292 174.908 784.119C175.234 786.107 174.664 788.278 172.743 789.307C166.408 792.7 161.275 783.319 167.592 780.324Z" fill="url(#paint75_linear_809_1009)"/>
<path fill-rule="evenodd" clip-rule="evenodd" d="M4.36757 780.484C2.72902 782.569 2.96632 785.212 4.31253 787.221C5.4891 788.976 7.49938 790.174 9.60711 790.089C11.0219 790.032 12.5215 789.427 13.8523 787.917C14.9793 786.639 15.4286 785.312 15.4521 784.085C15.4882 782.207 14.5011 780.492 12.9816 779.383C10.5328 777.596 6.78748 777.404 4.36757 780.484ZM7.20794 782.705C8.18692 781.459 9.6856 781.525 10.7169 782.197C11.3557 782.612 11.8583 783.258 11.8439 784.017C11.8348 784.513 11.5966 785.023 11.1419 785.54C10.6023 786.151 10.0339 786.468 9.46094 786.492C8.58753 786.527 7.80074 785.947 7.31261 785.22C6.81004 784.469 6.5962 783.484 7.20794 782.705Z" fill="url(#paint76_linear_809_1009)"/>
<defs>
<linearGradient id="paint0_linear_809_1009" x1="654.78" y1="133.633" x2="654.78" y2="572.566" gradientUnits="userSpaceOnUse">
<stop stop-color="#FFE088"/>
<stop offset="1" stop-color="#FFF0C4"/>
</linearGradient>
<linearGradient id="paint1_linear_809_1009" x1="654.779" y1="133.633" x2="654.779" y2="572.566" gradientUnits="userSpaceOnUse">
<stop stop-color="#FFE088"/>
<stop offset="1" stop-color="#FFF0C4"/>
</linearGradient>
<linearGradient id="paint2_linear_809_1009" x1="654.779" y1="133.633" x2="654.779" y2="572.566" gradientUnits="userSpaceOnUse">
<stop stop-color="#FFE088"/>
<stop offset="1" stop-color="#FFF0C4"/>
</linearGradient>
<linearGradient id="paint3_linear_809_1009" x1="654.78" y1="133.634" x2="654.78" y2="572.566" gradientUnits="userSpaceOnUse">
<stop stop-color="#FFE088"/>
<stop offset="1" stop-color="#FFF0C4"/>
</linearGradient>
<linearGradient id="paint4_linear_809_1009" x1="654.779" y1="133.634" x2="654.779" y2="572.566" gradientUnits="userSpaceOnUse">
<stop stop-color="#FFE088"/>
<stop offset="1" stop-color="#FFF0C4"/>
</linearGradient>
<linearGradient id="paint5_linear_809_1009" x1="654.782" y1="133.632" x2="654.782" y2="572.566" gradientUnits="userSpaceOnUse">
<stop stop-color="#FFE088"/>
<stop offset="1" stop-color="#FFF0C4"/>
</linearGradient>
<linearGradient id="paint6_linear_809_1009" x1="654.781" y1="133.633" x2="654.781" y2="572.566" gradientUnits="userSpaceOnUse">
<stop stop-color="#FFE088"/>
<stop offset="1" stop-color="#FFF0C4"/>
</linearGradient>
<linearGradient id="paint7_linear_809_1009" x1="654.783" y1="133.635" x2="654.783" y2="572.566" gradientUnits="userSpaceOnUse">
<stop stop-color="#FFE088"/>
<stop offset="1" stop-color="#FFF0C4"/>
</linearGradient>
<linearGradient id="paint8_linear_809_1009" x1="654.78" y1="133.633" x2="654.78" y2="572.566" gradientUnits="userSpaceOnUse">
<stop stop-color="#FFE088"/>
<stop offset="1" stop-color="#FFF0C4"/>
</linearGradient>
<linearGradient id="paint9_linear_809_1009" x1="654.779" y1="133.634" x2="654.779" y2="572.566" gradientUnits="userSpaceOnUse">
<stop stop-color="#FFE088"/>
<stop offset="1" stop-color="#FFF0C4"/>
</linearGradient>
<linearGradient id="paint10_linear_809_1009" x1="654.78" y1="133.633" x2="654.78" y2="572.566" gradientUnits="userSpaceOnUse">
<stop stop-color="#FFE088"/>
<stop offset="1" stop-color="#FFF0C4"/>
</linearGradient>
<linearGradient id="paint11_linear_809_1009" x1="654.78" y1="133.633" x2="654.78" y2="572.566" gradientUnits="userSpaceOnUse">
<stop stop-color="#FFE088"/>
<stop offset="1" stop-color="#FFF0C4"/>
</linearGradient>
<linearGradient id="paint12_linear_809_1009" x1="654.78" y1="133.633" x2="654.78" y2="572.566" gradientUnits="userSpaceOnUse">
<stop stop-color="#FFE088"/>
<stop offset="1" stop-color="#FFF0C4"/>
</linearGradient>
<linearGradient id="paint13_linear_809_1009" x1="654.78" y1="133.635" x2="654.78" y2="572.566" gradientUnits="userSpaceOnUse">
<stop stop-color="#FFE088"/>
<stop offset="1" stop-color="#FFF0C4"/>
</linearGradient>
<linearGradient id="paint14_linear_809_1009" x1="654.78" y1="133.632" x2="654.78" y2="572.566" gradientUnits="userSpaceOnUse">
<stop stop-color="#FFE088"/>
<stop offset="1" stop-color="#FFF0C4"/>
</linearGradient>
<linearGradient id="paint15_linear_809_1009" x1="654.78" y1="133.635" x2="654.78" y2="572.566" gradientUnits="userSpaceOnUse">
<stop stop-color="#FFE088"/>
<stop offset="1" stop-color="#FFF0C4"/>
</linearGradient>
<linearGradient id="paint16_linear_809_1009" x1="654.78" y1="133.633" x2="654.78" y2="572.566" gradientUnits="userSpaceOnUse">
<stop stop-color="#FFE088"/>
<stop offset="1" stop-color="#FFF0C4"/>
</linearGradient>
<linearGradient id="paint17_linear_809_1009" x1="654.775" y1="133.634" x2="654.776" y2="572.566" gradientUnits="userSpaceOnUse">
<stop stop-color="#FFE088"/>
<stop offset="1" stop-color="#FFF0C4"/>
</linearGradient>
<linearGradient id="paint18_linear_809_1009" x1="654.781" y1="133.633" x2="654.781" y2="572.566" gradientUnits="userSpaceOnUse">
<stop stop-color="#FFE088"/>
<stop offset="1" stop-color="#FFF0C4"/>
</linearGradient>
<linearGradient id="paint19_linear_809_1009" x1="654.778" y1="133.634" x2="654.778" y2="572.566" gradientUnits="userSpaceOnUse">
<stop stop-color="#FFE088"/>
<stop offset="1" stop-color="#FFF0C4"/>
</linearGradient>
<linearGradient id="paint20_linear_809_1009" x1="654.781" y1="133.633" x2="654.781" y2="572.566" gradientUnits="userSpaceOnUse">
<stop stop-color="#FFE088"/>
<stop offset="1" stop-color="#FFF0C4"/>
</linearGradient>
<linearGradient id="paint21_linear_809_1009" x1="654.78" y1="133.633" x2="654.78" y2="572.566" gradientUnits="userSpaceOnUse">
<stop stop-color="#FFE088"/>
<stop offset="1" stop-color="#FFF0C4"/>
</linearGradient>
<linearGradient id="paint22_linear_809_1009" x1="654.78" y1="133.633" x2="654.78" y2="572.566" gradientUnits="userSpaceOnUse">
<stop stop-color="#FFE088"/>
<stop offset="1" stop-color="#FFF0C4"/>
</linearGradient>
<linearGradient id="paint23_linear_809_1009" x1="654.78" y1="133.633" x2="654.78" y2="572.566" gradientUnits="userSpaceOnUse">
<stop stop-color="#FFE088"/>
<stop offset="1" stop-color="#FFF0C4"/>
</linearGradient>
<linearGradient id="paint24_linear_809_1009" x1="654.779" y1="133.634" x2="654.779" y2="572.566" gradientUnits="userSpaceOnUse">
<stop stop-color="#FFE088"/>
<stop offset="1" stop-color="#FFF0C4"/>
</linearGradient>
<linearGradient id="paint25_linear_809_1009" x1="654.78" y1="133.633" x2="654.78" y2="572.566" gradientUnits="userSpaceOnUse">
<stop stop-color="#FFE088"/>
<stop offset="1" stop-color="#FFF0C4"/>
</linearGradient>
<linearGradient id="paint26_linear_809_1009" x1="654.779" y1="133.634" x2="654.779" y2="572.566" gradientUnits="userSpaceOnUse">
<stop stop-color="#FFE088"/>
<stop offset="1" stop-color="#FFF0C4"/>
</linearGradient>
<linearGradient id="paint27_linear_809_1009" x1="654.78" y1="133.634" x2="654.78" y2="572.566" gradientUnits="userSpaceOnUse">
<stop stop-color="#FFE088"/>
<stop offset="1" stop-color="#FFF0C4"/>
</linearGradient>
<linearGradient id="paint28_linear_809_1009" x1="654.779" y1="133.633" x2="654.779" y2="572.566" gradientUnits="userSpaceOnUse">
<stop stop-color="#FFE088"/>
<stop offset="1" stop-color="#FFF0C4"/>
</linearGradient>
<linearGradient id="paint29_linear_809_1009" x1="654.78" y1="133.633" x2="654.78" y2="572.566" gradientUnits="userSpaceOnUse">
<stop stop-color="#FFE088"/>
<stop offset="1" stop-color="#FFF0C4"/>
</linearGradient>
<linearGradient id="paint30_linear_809_1009" x1="654.78" y1="133.633" x2="654.78" y2="572.566" gradientUnits="userSpaceOnUse">
<stop stop-color="#FFE088"/>
<stop offset="1" stop-color="#FFF0C4"/>
</linearGradient>
<linearGradient id="paint31_linear_809_1009" x1="654.78" y1="133.633" x2="654.78" y2="572.566" gradientUnits="userSpaceOnUse">
<stop stop-color="#FFE088"/>
<stop offset="1" stop-color="#FFF0C4"/>
</linearGradient>
<linearGradient id="paint32_linear_809_1009" x1="654.779" y1="133.633" x2="654.779" y2="572.566" gradientUnits="userSpaceOnUse">
<stop stop-color="#FFE088"/>
<stop offset="1" stop-color="#FFF0C4"/>
</linearGradient>
<linearGradient id="paint33_linear_809_1009" x1="654.78" y1="133.633" x2="654.78" y2="572.566" gradientUnits="userSpaceOnUse">
<stop stop-color="#FFE088"/>
<stop offset="1" stop-color="#FFF0C4"/>
</linearGradient>
<linearGradient id="paint34_linear_809_1009" x1="654.779" y1="133.633" x2="654.779" y2="572.566" gradientUnits="userSpaceOnUse">
<stop stop-color="#FFE088"/>
<stop offset="1" stop-color="#FFF0C4"/>
</linearGradient>
<linearGradient id="paint35_linear_809_1009" x1="654.78" y1="133.633" x2="654.78" y2="572.566" gradientUnits="userSpaceOnUse">
<stop stop-color="#FFE088"/>
<stop offset="1" stop-color="#FFF0C4"/>
</linearGradient>
<linearGradient id="paint36_linear_809_1009" x1="654.78" y1="133.633" x2="654.78" y2="572.565" gradientUnits="userSpaceOnUse">
<stop stop-color="#FFE088"/>
<stop offset="1" stop-color="#FFF0C4"/>
</linearGradient>
<linearGradient id="paint37_linear_809_1009" x1="654.78" y1="133.633" x2="654.78" y2="572.565" gradientUnits="userSpaceOnUse">
<stop stop-color="#FFE088"/>
<stop offset="1" stop-color="#FFF0C4"/>
</linearGradient>
<linearGradient id="paint38_linear_809_1009" x1="654.779" y1="133.633" x2="654.779" y2="572.565" gradientUnits="userSpaceOnUse">
<stop stop-color="#FFE088"/>
<stop offset="1" stop-color="#FFF0C4"/>
</linearGradient>
<linearGradient id="paint39_linear_809_1009" x1="654.782" y1="133.633" x2="654.782" y2="572.565" gradientUnits="userSpaceOnUse">
<stop stop-color="#FFE088"/>
<stop offset="1" stop-color="#FFF0C4"/>
</linearGradient>
<linearGradient id="paint40_linear_809_1009" x1="654.779" y1="133.633" x2="654.779" y2="572.566" gradientUnits="userSpaceOnUse">
<stop stop-color="#FFE088"/>
<stop offset="1" stop-color="#FFF0C4"/>
</linearGradient>
<linearGradient id="paint41_linear_809_1009" x1="654.774" y1="133.631" x2="654.774" y2="572.564" gradientUnits="userSpaceOnUse">
<stop stop-color="#FFE088"/>
<stop offset="1" stop-color="#FFF0C4"/>
</linearGradient>
<linearGradient id="paint42_linear_809_1009" x1="654.78" y1="133.633" x2="654.78" y2="572.565" gradientUnits="userSpaceOnUse">
<stop stop-color="#FFE088"/>
<stop offset="1" stop-color="#FFF0C4"/>
</linearGradient>
<linearGradient id="paint43_linear_809_1009" x1="654.781" y1="133.636" x2="654.781" y2="572.568" gradientUnits="userSpaceOnUse">
<stop stop-color="#FFE088"/>
<stop offset="1" stop-color="#FFF0C4"/>
</linearGradient>
<linearGradient id="paint44_linear_809_1009" x1="654.78" y1="133.633" x2="654.78" y2="572.565" gradientUnits="userSpaceOnUse">
<stop stop-color="#FFE088"/>
<stop offset="1" stop-color="#FFF0C4"/>
</linearGradient>
<linearGradient id="paint45_linear_809_1009" x1="654.78" y1="133.633" x2="654.78" y2="572.566" gradientUnits="userSpaceOnUse">
<stop stop-color="#FFE088"/>
<stop offset="1" stop-color="#FFF0C4"/>
</linearGradient>
<linearGradient id="paint46_linear_809_1009" x1="654.78" y1="133.633" x2="654.78" y2="572.566" gradientUnits="userSpaceOnUse">
<stop stop-color="#FFE088"/>
<stop offset="1" stop-color="#FFF0C4"/>
</linearGradient>
<linearGradient id="paint47_linear_809_1009" x1="654.78" y1="133.634" x2="654.78" y2="572.567" gradientUnits="userSpaceOnUse">
<stop stop-color="#FFE088"/>
<stop offset="1" stop-color="#FFF0C4"/>
</linearGradient>
<linearGradient id="paint48_linear_809_1009" x1="654.78" y1="133.633" x2="654.78" y2="572.566" gradientUnits="userSpaceOnUse">
<stop stop-color="#FFE088"/>
<stop offset="1" stop-color="#FFF0C4"/>
</linearGradient>
<linearGradient id="paint49_linear_809_1009" x1="654.78" y1="133.632" x2="654.78" y2="572.565" gradientUnits="userSpaceOnUse">
<stop stop-color="#FFE088"/>
<stop offset="1" stop-color="#FFF0C4"/>
</linearGradient>
<linearGradient id="paint50_linear_809_1009" x1="654.779" y1="133.633" x2="654.779" y2="572.566" gradientUnits="userSpaceOnUse">
<stop stop-color="#FFE088"/>
<stop offset="1" stop-color="#FFF0C4"/>
</linearGradient>
<linearGradient id="paint51_linear_809_1009" x1="654.782" y1="133.634" x2="654.782" y2="572.566" gradientUnits="userSpaceOnUse">
<stop stop-color="#FFE088"/>
<stop offset="1" stop-color="#FFF0C4"/>
</linearGradient>
<linearGradient id="paint52_linear_809_1009" x1="654.779" y1="133.634" x2="654.779" y2="572.566" gradientUnits="userSpaceOnUse">
<stop stop-color="#FFE088"/>
<stop offset="1" stop-color="#FFF0C4"/>
</linearGradient>
<linearGradient id="paint53_linear_809_1009" x1="654.78" y1="133.634" x2="654.78" y2="572.565" gradientUnits="userSpaceOnUse">
<stop stop-color="#FFE088"/>
<stop offset="1" stop-color="#FFF0C4"/>
</linearGradient>
<linearGradient id="paint54_linear_809_1009" x1="654.78" y1="133.632" x2="654.78" y2="572.566" gradientUnits="userSpaceOnUse">
<stop stop-color="#FFE088"/>
<stop offset="1" stop-color="#FFF0C4"/>
</linearGradient>
<linearGradient id="paint55_linear_809_1009" x1="654.78" y1="133.633" x2="654.78" y2="572.566" gradientUnits="userSpaceOnUse">
<stop stop-color="#FFE088"/>
<stop offset="1" stop-color="#FFF0C4"/>
</linearGradient>
<linearGradient id="paint56_linear_809_1009" x1="654.78" y1="133.633" x2="654.78" y2="572.566" gradientUnits="userSpaceOnUse">
<stop stop-color="#FFE088"/>
<stop offset="1" stop-color="#FFF0C4"/>
</linearGradient>
<linearGradient id="paint57_linear_809_1009" x1="654.778" y1="133.633" x2="654.778" y2="572.565" gradientUnits="userSpaceOnUse">
<stop stop-color="#FFE088"/>
<stop offset="1" stop-color="#FFF0C4"/>
</linearGradient>
<linearGradient id="paint58_linear_809_1009" x1="654.779" y1="133.635" x2="654.779" y2="572.567" gradientUnits="userSpaceOnUse">
<stop stop-color="#FFE088"/>
<stop offset="1" stop-color="#FFF0C4"/>
</linearGradient>
<linearGradient id="paint59_linear_809_1009" x1="654.78" y1="133.634" x2="654.78" y2="572.566" gradientUnits="userSpaceOnUse">
<stop stop-color="#FFE088"/>
<stop offset="1" stop-color="#FFF0C4"/>
</linearGradient>
<linearGradient id="paint60_linear_809_1009" x1="654.78" y1="133.632" x2="654.78" y2="572.566" gradientUnits="userSpaceOnUse">
<stop stop-color="#FFE088"/>
<stop offset="1" stop-color="#FFF0C4"/>
</linearGradient>
<linearGradient id="paint61_linear_809_1009" x1="654.78" y1="133.633" x2="654.78" y2="572.565" gradientUnits="userSpaceOnUse">
<stop stop-color="#FFE088"/>
<stop offset="1" stop-color="#FFF0C4"/>
</linearGradient>
<linearGradient id="paint62_linear_809_1009" x1="654.78" y1="133.633" x2="654.78" y2="572.566" gradientUnits="userSpaceOnUse">
<stop stop-color="#FFE088"/>
<stop offset="1" stop-color="#FFF0C4"/>
</linearGradient>
<linearGradient id="paint63_linear_809_1009" x1="654.78" y1="133.633" x2="654.78" y2="572.566" gradientUnits="userSpaceOnUse">
<stop stop-color="#FFE088"/>
<stop offset="1" stop-color="#FFF0C4"/>
</linearGradient>
<linearGradient id="paint64_linear_809_1009" x1="654.78" y1="133.633" x2="654.78" y2="572.566" gradientUnits="userSpaceOnUse">
<stop stop-color="#FFE088"/>
<stop offset="1" stop-color="#FFF0C4"/>
</linearGradient>
<linearGradient id="paint65_linear_809_1009" x1="654.78" y1="133.633" x2="654.78" y2="572.566" gradientUnits="userSpaceOnUse">
<stop stop-color="#FFE088"/>
<stop offset="1" stop-color="#FFF0C4"/>
</linearGradient>
<linearGradient id="paint66_linear_809_1009" x1="654.78" y1="133.633" x2="654.78" y2="572.566" gradientUnits="userSpaceOnUse">
<stop stop-color="#FFE088"/>
<stop offset="1" stop-color="#FFF0C4"/>
</linearGradient>
<linearGradient id="paint67_linear_809_1009" x1="654.78" y1="133.633" x2="654.78" y2="572.566" gradientUnits="userSpaceOnUse">
<stop stop-color="#FFE088"/>
<stop offset="1" stop-color="#FFF0C4"/>
</linearGradient>
<linearGradient id="paint68_linear_809_1009" x1="654.792" y1="133.633" x2="654.792" y2="572.567" gradientUnits="userSpaceOnUse">
<stop stop-color="#FFE088"/>
<stop offset="1" stop-color="#FFF0C4"/>
</linearGradient>
<linearGradient id="paint69_linear_809_1009" x1="654.78" y1="133.633" x2="654.78" y2="572.566" gradientUnits="userSpaceOnUse">
<stop stop-color="#FFE088"/>
<stop offset="1" stop-color="#FFF0C4"/>
</linearGradient>
<linearGradient id="paint70_linear_809_1009" x1="654.775" y1="133.633" x2="654.775" y2="572.567" gradientUnits="userSpaceOnUse">
<stop stop-color="#FFE088"/>
<stop offset="1" stop-color="#FFF0C4"/>
</linearGradient>
<linearGradient id="paint71_linear_809_1009" x1="654.78" y1="133.633" x2="654.78" y2="572.566" gradientUnits="userSpaceOnUse">
<stop stop-color="#FFE088"/>
<stop offset="1" stop-color="#FFF0C4"/>
</linearGradient>
<linearGradient id="paint72_linear_809_1009" x1="654.78" y1="133.633" x2="654.78" y2="572.566" gradientUnits="userSpaceOnUse">
<stop stop-color="#FFE088"/>
<stop offset="1" stop-color="#FFF0C4"/>
</linearGradient>
<linearGradient id="paint73_linear_809_1009" x1="654.78" y1="133.633" x2="654.78" y2="572.566" gradientUnits="userSpaceOnUse">
<stop stop-color="#FFE088"/>
<stop offset="1" stop-color="#FFF0C4"/>
</linearGradient>
<linearGradient id="paint74_linear_809_1009" x1="654.78" y1="163.635" x2="654.78" y2="602.566" gradientUnits="userSpaceOnUse">
<stop stop-color="#FFE088"/>
<stop offset="1" stop-color="#FFF0C4"/>
</linearGradient>
<linearGradient id="paint75_linear_809_1009" x1="654.78" y1="163.633" x2="654.78" y2="602.566" gradientUnits="userSpaceOnUse">
<stop stop-color="#FFE088"/>
<stop offset="1" stop-color="#FFF0C4"/>
</linearGradient>
<linearGradient id="paint76_linear_809_1009" x1="654.78" y1="163.633" x2="654.78" y2="602.566" gradientUnits="userSpaceOnUse">
<stop stop-color="#FFE088"/>
<stop offset="1" stop-color="#FFF0C4"/>
</linearGradient>
</defs>
</svg>
