<?xml version="1.0" encoding="UTF-8" standalone="no"?>
<!DOCTYPE svg PUBLIC "-//W3C//DTD SVG 1.1//EN" "http://www.w3.org/Graphics/SVG/1.1/DTD/svg11.dtd">
<svg width="100%" height="100%" viewBox="0 0 97 25" version="1.1" xmlns="http://www.w3.org/2000/svg" xmlns:xlink="http://www.w3.org/1999/xlink" xml:space="preserve" xmlns:serif="http://www.serif.com/" style="fill-rule:evenodd;clip-rule:evenodd;stroke-linejoin:round;stroke-miterlimit:2;">
    <g transform="matrix(1,0,0,1,-77.3515,-154.509)">
        <g transform="matrix(0.25505,0,0,0.199886,57.0151,123.759)">
            <path d="M99.59,246.65C95.638,246.65 92.156,245.769 89.145,244.008C86.134,242.247 83.812,239.786 82.181,236.624C80.55,233.462 79.735,229.8 79.735,225.638C79.735,222.116 80.315,218.914 81.476,216.032C82.636,213.151 84.205,210.869 86.181,209.188C88.157,207.507 90.337,206.667 92.721,206.667C94.916,206.667 96.767,207.367 98.272,208.768C99.778,210.169 100.719,212.11 101.095,214.591C97.833,214.591 95.23,215.692 93.285,217.893C91.34,220.094 90.368,223.076 90.368,226.838C90.368,230.28 91.184,233.042 92.815,235.123C94.446,237.204 96.61,238.245 99.307,238.245C102.632,238.245 105.377,236.824 107.541,233.982C109.705,231.141 110.788,227.559 110.788,223.236C110.788,219.474 109.972,215.912 108.341,212.55C106.71,209.188 104.263,205.106 101.001,200.303C97.614,195.34 95.057,191.078 93.332,187.516C91.607,183.954 90.744,180.052 90.744,175.809C90.744,171.647 91.654,167.905 93.473,164.583C95.293,161.261 97.802,158.64 101.001,156.718C104.201,154.797 107.808,153.837 111.823,153.837C116.904,153.837 120.966,155.358 124.009,158.399C127.051,161.441 128.572,165.523 128.572,170.646C128.572,174.008 127.914,176.73 126.596,178.811C125.279,180.892 123.554,181.933 121.421,181.933C119.037,181.933 117.124,180.692 115.681,178.211C116.873,177.09 117.814,175.609 118.504,173.768C119.194,171.927 119.539,170.006 119.539,168.005C119.539,165.443 118.943,163.402 117.751,161.881C116.559,160.361 114.928,159.6 112.858,159.6C110.348,159.6 108.294,160.741 106.694,163.022C105.095,165.303 104.295,168.205 104.295,171.727C104.295,174.929 105.016,177.911 106.459,180.672C107.902,183.434 110.16,186.976 113.234,191.298C115.743,194.74 117.767,197.702 119.304,200.183C120.841,202.665 122.158,205.526 123.256,208.768C124.354,212.01 124.902,215.512 124.902,219.274C124.902,224.397 123.789,229.04 121.562,233.202C119.335,237.364 116.292,240.646 112.434,243.048C108.576,245.449 104.295,246.65 99.59,246.65Z" style="fill-rule:nonzero;"/>
        </g>
        <g transform="matrix(0.25505,0,0,0.199886,57.0151,123.759)">
            <path d="M139.488,245.209C136.477,245.209 134.046,244.008 132.195,241.607C130.345,239.205 129.419,235.603 129.419,230.801C129.419,228.799 129.67,226.198 130.172,222.996L140.241,162.842L154.167,160.441L143.346,225.277C143.095,226.478 142.97,227.759 142.97,229.12C142.97,230.721 143.268,231.861 143.864,232.542C144.459,233.222 145.448,233.562 146.828,233.562C148.647,233.562 150.341,232.582 151.909,230.62C153.477,228.659 154.607,226.118 155.297,222.996L159.249,222.996C156.928,231.641 153.948,237.504 150.309,240.586C146.671,243.668 143.064,245.209 139.488,245.209Z" style="fill-rule:nonzero;"/>
        </g>
        <g transform="matrix(0.25505,0,0,0.199886,57.0151,123.759)">
            <path d="M206.298,245.209C201.28,245.209 197.845,243.688 195.995,240.646C194.144,237.604 193.219,233.802 193.219,229.24C193.219,225.878 193.909,223.136 195.289,221.015C196.669,218.894 198.237,217.833 199.994,217.833C203.256,217.833 204.887,219.514 204.887,222.876C204.887,224.317 204.448,225.578 203.57,226.658C202.691,227.739 201.625,228.279 200.37,228.279C199.053,228.279 198.206,227.759 197.829,226.718C197.829,229.6 198.284,231.821 199.194,233.382C200.104,234.943 201.468,235.723 203.287,235.723C205.42,235.723 206.941,234.903 207.851,233.262C208.761,231.621 209.215,228.719 209.215,224.557C209.215,222.156 209.027,219.114 208.651,215.432C208.024,207.747 207.522,199.903 207.145,191.898C202.691,200.623 197.422,206.147 191.337,208.468C190.96,215.832 189.737,222.276 187.667,227.799C185.597,233.322 182.946,237.564 179.715,240.526C176.485,243.488 172.925,244.969 169.035,244.969C164.393,244.969 160.723,243.448 158.025,240.406C155.328,237.364 153.979,232.562 153.979,225.998C153.979,220.475 154.826,214.411 156.52,207.808C158.214,201.204 160.974,195.48 164.801,190.638C168.627,185.795 173.52,183.374 179.48,183.374C187.447,183.374 191.462,189.657 191.525,202.224C196.167,201.904 201.28,195.541 206.863,183.133L220.79,180.732C221.103,190.978 221.637,202.064 222.389,213.991C222.703,218.794 222.86,222.276 222.86,224.437C222.86,226.038 222.766,227.519 222.578,228.879C224.46,227.519 226.687,225.558 229.259,222.996L233.211,222.996C229.76,228.119 225.401,232.802 220.131,237.044C218.563,239.926 216.571,242.007 214.156,243.288C211.74,244.568 209.121,245.209 206.298,245.209ZM172.799,234.162C175.12,234.162 177.284,231.781 179.292,227.018C181.299,222.256 182.679,216.352 183.432,209.308C181.927,208.588 181.174,206.787 181.174,203.905C181.174,200.784 182.052,198.702 183.809,197.662C183.683,195.1 183.354,193.299 182.821,192.259C182.287,191.218 181.425,190.698 180.233,190.698C178.163,190.698 176.187,192.599 174.305,196.401C172.423,200.203 170.901,204.806 169.741,210.209C168.58,215.612 168,220.355 168,224.437C168,228.279 168.345,230.861 169.035,232.181C169.725,233.502 170.98,234.162 172.799,234.162Z" style="fill-rule:nonzero;"/>
        </g>
        <g transform="matrix(0.25505,0,0,0.199886,57.0151,123.759)">
            <path d="M263.228,245.209C259.402,245.209 256.594,243.908 254.807,241.307C253.019,238.705 252.125,235.483 252.125,231.641C252.125,229.96 252.282,228.059 252.595,225.938C252.909,223.817 253.238,221.755 253.583,219.754C253.928,217.753 254.164,216.472 254.289,215.912C254.791,213.111 255.261,210.349 255.701,207.627C256.14,204.906 256.359,202.705 256.359,201.024C256.359,196.941 255.23,194.9 252.972,194.9C251.341,194.9 249.898,195.921 248.643,197.962C247.388,200.003 246.385,202.665 245.632,205.946L239.233,244.488L225.683,244.488L239.327,162.842L253.254,160.441L248.173,190.698C251.309,186.215 254.979,183.974 259.182,183.974C262.382,183.974 264.922,185.095 266.804,187.336C268.686,189.577 269.627,192.979 269.627,197.542C269.627,199.863 269.408,202.444 268.969,205.286C268.529,208.128 267.902,211.59 267.087,215.672C266.585,218.153 266.13,220.575 265.722,222.936C265.314,225.297 265.11,227.159 265.11,228.519C265.11,230.12 265.393,231.361 265.957,232.241C266.522,233.122 267.494,233.562 268.874,233.562C270.756,233.562 272.262,232.702 273.391,230.981C274.52,229.26 275.65,226.598 276.779,222.996L280.731,222.996C278.41,231.801 275.728,237.705 272.685,240.706C269.643,243.708 266.491,245.209 263.228,245.209Z" style="fill-rule:nonzero;"/>
        </g>
        <g transform="matrix(0.25505,0,0,0.199886,57.0151,123.759)">
            <path d="M291.458,274.505C288.51,274.505 285.922,273.285 283.695,270.843C281.468,268.402 280.355,265.3 280.355,261.538C280.355,258.016 281.045,255.134 282.425,252.893C283.805,250.652 285.593,248.891 287.788,247.61C289.984,246.329 292.932,244.969 296.634,243.528L297.575,238.245C294.375,242.887 290.549,245.209 286.095,245.209C283.083,245.209 280.653,244.008 278.802,241.607C276.951,239.205 276.026,235.603 276.026,230.801C276.026,228.799 276.277,226.198 276.779,222.996L283.178,184.454L296.728,184.454L289.953,225.277C289.764,226.238 289.67,227.239 289.67,228.279C289.67,231.801 290.611,233.562 292.493,233.562C294.25,233.562 295.755,232.622 297.01,230.741C298.265,228.859 299.268,226.278 300.021,222.996L306.42,184.454L320.064,184.454L308.584,254.094C307.33,261.778 305.118,267.101 301.95,270.063C298.782,273.025 295.285,274.505 291.458,274.505ZM289.294,263.819C290.423,263.819 291.49,263.079 292.493,261.598C293.497,260.117 294.281,257.736 294.846,254.454L295.975,247.37C292.65,248.811 290.078,250.492 288.259,252.413C286.44,254.334 285.53,256.815 285.53,259.857C285.53,260.818 285.906,261.718 286.659,262.559C287.412,263.399 288.29,263.819 289.294,263.819Z" style="fill-rule:nonzero;"/>
        </g>
        <g transform="matrix(1,0,0,1,3.54175,5.13531)">
            <path d="M140.723,167.54L140.723,156.803L144.751,156.803C145.571,156.803 146.229,156.912 146.725,157.129C147.221,157.346 147.609,157.681 147.889,158.132C148.17,158.584 148.311,159.056 148.311,159.549C148.311,160.008 148.186,160.441 147.937,160.846C147.688,161.251 147.312,161.578 146.809,161.827C147.459,162.018 147.958,162.342 148.307,162.801C148.656,163.26 148.831,163.802 148.831,164.427C148.831,164.93 148.724,165.398 148.512,165.83C148.3,166.262 148.037,166.595 147.725,166.83C147.412,167.064 147.02,167.241 146.549,167.361C146.078,167.48 145.501,167.54 144.817,167.54L140.723,167.54ZM142.144,161.315L144.465,161.315C145.095,161.315 145.547,161.273 145.82,161.19C146.182,161.083 146.454,160.904 146.637,160.655C146.82,160.406 146.912,160.094 146.912,159.718C146.912,159.361 146.826,159.048 146.655,158.777C146.484,158.506 146.24,158.32 145.923,158.22C145.606,158.12 145.061,158.07 144.29,158.07L142.144,158.07L142.144,161.315ZM142.144,166.273L144.817,166.273C145.276,166.273 145.598,166.256 145.784,166.222C146.111,166.163 146.384,166.066 146.604,165.929C146.824,165.792 147.004,165.593 147.146,165.332C147.288,165.071 147.358,164.769 147.358,164.427C147.358,164.027 147.256,163.679 147.051,163.384C146.846,163.088 146.561,162.881 146.198,162.761C145.834,162.642 145.31,162.582 144.627,162.582L142.144,162.582L142.144,166.273Z" style="fill:white;fill-rule:nonzero;"/>
        </g>
        <g transform="matrix(1,0,0,1,3.54175,5.13531)">
            <path d="M155.942,165.035L157.305,165.204C157.09,166 156.692,166.617 156.111,167.057C155.53,167.496 154.788,167.716 153.884,167.716C152.747,167.716 151.845,167.366 151.178,166.665C150.512,165.964 150.178,164.982 150.178,163.717C150.178,162.408 150.515,161.393 151.189,160.67C151.863,159.947 152.737,159.586 153.811,159.586C154.851,159.586 155.701,159.94 156.36,160.648C157.019,161.356 157.349,162.352 157.349,163.636C157.349,163.715 157.346,163.832 157.341,163.988L151.541,163.988C151.589,164.842 151.831,165.497 152.266,165.951C152.7,166.405 153.242,166.632 153.892,166.632C154.375,166.632 154.788,166.505 155.129,166.251C155.471,165.997 155.742,165.592 155.942,165.035ZM151.614,162.904L155.957,162.904C155.899,162.25 155.733,161.759 155.459,161.432C155.039,160.924 154.495,160.67 153.826,160.67C153.22,160.67 152.711,160.873 152.299,161.278C151.886,161.683 151.658,162.225 151.614,162.904Z" style="fill:white;fill-rule:nonzero;"/>
        </g>
        <g transform="matrix(1,0,0,1,3.54175,5.13531)">
            <path d="M161.838,166.361L162.029,167.526C161.658,167.604 161.326,167.643 161.033,167.643C160.554,167.643 160.183,167.567 159.92,167.416C159.656,167.264 159.47,167.065 159.363,166.819C159.255,166.572 159.202,166.053 159.202,165.262L159.202,160.787L158.235,160.787L158.235,159.762L159.202,159.762L159.202,157.836L160.513,157.045L160.513,159.762L161.838,159.762L161.838,160.787L160.513,160.787L160.513,165.336C160.513,165.712 160.536,165.953 160.582,166.061C160.629,166.168 160.704,166.254 160.809,166.317C160.914,166.381 161.065,166.412 161.26,166.412C161.406,166.412 161.599,166.395 161.838,166.361Z" style="fill:white;fill-rule:nonzero;"/>
        </g>
        <g transform="matrix(1,0,0,1,3.54175,5.13531)">
            <path d="M168.203,166.581C167.715,166.996 167.245,167.289 166.793,167.46C166.342,167.631 165.857,167.716 165.339,167.716C164.485,167.716 163.828,167.507 163.369,167.09C162.91,166.672 162.681,166.139 162.681,165.489C162.681,165.109 162.767,164.761 162.941,164.446C163.114,164.131 163.341,163.878 163.622,163.688C163.903,163.497 164.219,163.353 164.57,163.256C164.829,163.187 165.22,163.121 165.742,163.058C166.807,162.931 167.59,162.779 168.093,162.604C168.098,162.423 168.101,162.308 168.101,162.259C168.101,161.722 167.976,161.344 167.727,161.124C167.39,160.826 166.89,160.677 166.226,160.677C165.606,160.677 165.148,160.786 164.852,161.003C164.557,161.221 164.338,161.605 164.197,162.157L162.908,161.981C163.025,161.429 163.218,160.984 163.486,160.644C163.755,160.305 164.143,160.044 164.651,159.861C165.159,159.678 165.747,159.586 166.416,159.586C167.08,159.586 167.62,159.664 168.035,159.82C168.45,159.977 168.755,160.173 168.95,160.41C169.146,160.647 169.282,160.946 169.36,161.307C169.404,161.532 169.426,161.937 169.426,162.523L169.426,164.281C169.426,165.507 169.454,166.282 169.511,166.606C169.567,166.931 169.678,167.242 169.844,167.54L168.467,167.54C168.33,167.267 168.242,166.947 168.203,166.581ZM168.093,163.636C167.615,163.832 166.897,163.998 165.94,164.134C165.398,164.213 165.015,164.3 164.79,164.398C164.566,164.496 164.392,164.639 164.27,164.827C164.148,165.015 164.087,165.223 164.087,165.453C164.087,165.804 164.22,166.097 164.486,166.332C164.752,166.566 165.142,166.683 165.654,166.683C166.162,166.683 166.614,166.572 167.009,166.35C167.405,166.128 167.695,165.824 167.881,165.438C168.023,165.14 168.093,164.701 168.093,164.12L168.093,163.636Z" style="fill:white;fill-rule:nonzero;"/>
        </g>
    </g>
</svg>
