<?xml version="1.0" encoding="UTF-8" standalone="no"?>
<!DOCTYPE svg PUBLIC "-//W3C//DTD SVG 1.1//EN" "http://www.w3.org/Graphics/SVG/1.1/DTD/svg11.dtd">
<svg width="100%" height="100%" viewBox="0 0 507 507" version="1.1" xmlns="http://www.w3.org/2000/svg" xmlns:xlink="http://www.w3.org/1999/xlink" xml:space="preserve" xmlns:serif="http://www.serif.com/" style="fill-rule:evenodd;clip-rule:evenodd;stroke-linejoin:round;stroke-miterlimit:2;">
    <g transform="matrix(1,0,0,1,-2.48936,-2.70779)">
        <path d="M255.847,2.708C395.678,2.708 509.204,116.233 509.204,256.065C509.204,395.897 395.678,509.422 255.847,509.422C116.015,509.422 2.489,395.897 2.489,256.065C2.489,116.233 116.015,2.708 255.847,2.708ZM166.526,186.119C160.07,182.747 154.939,177.352 148.764,172.66C138.127,164.578 124.932,158.012 100.278,163.343C82.87,167.109 63.439,174.613 49.82,191.48C40.728,202.741 34.15,218.195 32.674,239.676C31.916,250.724 34.509,296.014 70.684,325.473C102.411,351.309 163.3,362.115 224.706,377.573C272.951,389.719 329.303,391.914 372.466,368.702C440.663,332.022 447.469,267.247 431.263,235.5C419.619,212.691 398.922,202.329 376.623,198.332C355.424,194.532 332.817,196.552 316.125,198.386C306.019,199.495 280.911,205.837 205.692,196.678C192.278,195.042 178.445,192.342 166.526,186.119ZM394.591,304.365C393.403,306.609 392.818,307.563 390.84,309.522C388.447,311.89 388.428,315.753 390.796,318.146C393.162,320.536 397.025,320.556 399.418,318.19C402.54,315.1 403.491,313.614 405.367,310.075C406.942,307.1 405.806,303.407 402.832,301.831C399.859,300.256 396.167,301.392 394.591,304.365ZM386.605,237.069C392.205,237.14 396.848,241.906 400.429,247.937C404.237,254.349 406.755,262.48 407.048,270.166C407.233,275.002 406.538,279.663 404.729,283.608C403.327,286.667 404.67,290.289 407.729,291.691C410.79,293.093 414.412,291.75 415.814,288.691C421.97,275.262 419.073,255.445 410.914,241.711C404.919,231.613 396.136,224.994 386.758,224.874C383.395,224.833 380.627,227.53 380.585,230.894C380.541,234.259 383.239,237.025 386.605,237.069ZM405.507,122.766C401.392,112.658 392.516,99.45 377.977,89.713C370.823,84.925 361.976,83.303 353.04,83.887C340.235,84.722 327.316,90.094 319.611,96.094C315.739,99.109 313.127,102.377 312.001,105.325C310.89,108.238 310.997,111.01 312.237,113.49C314.616,118.247 320.422,121.338 327.447,123.13C332.432,124.401 338.005,125.165 342.551,126.186C344.832,126.698 346.812,127.18 348.045,128.041C373.939,146.113 388.151,155.281 395.625,157.609C401.402,159.407 404.828,157.947 406.915,155.39C411.607,149.651 411.324,137.055 405.507,122.766ZM165.837,64.198C160.262,64.198 146.479,66.567 133.66,74.08C125.217,79.028 118.892,84.868 114.691,90.564C110.889,95.726 109.324,101.535 112.296,107.474C113.164,109.213 114.641,110.652 116.745,111.656C118.763,112.62 121.53,113.195 124.707,113.352C134.643,113.846 149.385,110.416 151.412,110.027C166.636,107.119 179.448,110.272 187.59,110.544C192.84,110.721 196.666,109.624 199.066,107.221C203.729,102.558 205.528,97.842 205.569,93.427C205.607,88.99 203.822,84.71 200.693,80.867C192.711,71.066 175.433,64.198 165.837,64.198Z" style="fill:rgb(246,195,104);"/>
    </g>
</svg>
