<svg width="28" height="28" viewBox="0 0 28 28" fill="none" xmlns="http://www.w3.org/2000/svg">
<circle cx="14" cy="14" r="14" fill="white"/>
<path d="M18.7526 10.823C18.4082 10.6158 17.9605 10.6158 17.5816 10.823L14.8953 12.4114L13.0699 13.4474L10.3836 15.0359C10.0392 15.243 9.59147 15.243 9.21263 15.0359L7.07733 13.7927C6.73293 13.5856 6.49184 13.2057 6.49184 12.7913V10.3396C6.49184 9.92521 6.69848 9.54537 7.07733 9.33818L9.17819 8.12958C9.52259 7.9224 9.97029 7.9224 10.3492 8.12958L12.45 9.33818C12.7944 9.54537 13.0355 9.92521 13.0355 10.3396V11.928L14.8608 10.8576V9.26912C14.8608 8.85474 14.6542 8.4749 14.2754 8.26771L10.3836 5.98864C10.0392 5.78145 9.59147 5.78145 9.21263 5.98864L5.25199 8.26771C4.87315 8.4749 4.6665 8.85474 4.6665 9.26912V13.8618C4.6665 14.2761 4.87315 14.656 5.25199 14.8632L9.21263 17.1422C9.55704 17.3495 10.0048 17.3495 10.3836 17.1422L13.0699 15.5883L14.8953 14.5179L17.5816 12.964C17.926 12.7568 18.3738 12.7568 18.7526 12.964L20.8534 14.1726C21.1979 14.3798 21.439 14.7596 21.439 15.174V17.6257C21.439 18.0401 21.2323 18.4199 20.8534 18.6271L18.7526 19.8703C18.4082 20.0774 17.9605 20.0774 17.5816 19.8703L15.4808 18.6616C15.1363 18.4545 14.8953 18.0746 14.8953 17.6602V16.0718L13.0699 17.1422V18.7307C13.0699 19.1451 13.2766 19.5249 13.6555 19.7321L17.6161 22.0112C17.9605 22.2184 18.4082 22.2184 18.787 22.0112L22.7477 19.7321C23.0921 19.5249 23.3332 19.1451 23.3332 18.7307V14.138C23.3332 13.7237 23.1265 13.3438 22.7477 13.1366L18.7526 10.823Z" fill="#7950DD"/>
</svg>
