<svg width="541" height="541" viewBox="0 0 541 541" fill="none" xmlns="http://www.w3.org/2000/svg">
<g clip-path="url(#clip0_729_2850)">
<path fill-rule="evenodd" clip-rule="evenodd" d="M26.0879 281.489C26.4296 281.63 26.579 281.987 26.6165 282.347C26.6589 282.75 26.5653 283.185 26.3057 283.443C26.0322 283.716 26.0322 284.159 26.3057 284.432C26.5793 284.705 27.0232 284.705 27.2968 284.432C27.8299 283.9 28.0973 283.029 28.0104 282.202C27.9193 281.332 27.4498 280.538 26.6241 280.197C26.2668 280.049 25.8564 280.219 25.7087 280.576C25.5607 280.932 25.7306 281.341 26.0879 281.489Z" fill="url(#paint0_linear_729_2850)"/>
<path fill-rule="evenodd" clip-rule="evenodd" d="M109.54 225.267C109.393 225.555 109.32 225.678 109.072 225.932C108.771 226.24 108.777 226.732 109.085 227.032C109.393 227.332 109.887 227.326 110.187 227.019C110.579 226.618 110.698 226.426 110.929 225.971C111.124 225.588 110.971 225.12 110.587 224.926C110.204 224.731 109.735 224.884 109.54 225.267Z" fill="url(#paint1_linear_729_2850)"/>
<path fill-rule="evenodd" clip-rule="evenodd" d="M108.422 216.634C109.138 216.631 109.742 217.228 110.213 217.989C111.029 219.307 111.417 221.215 110.841 222.527C110.668 222.92 110.848 223.379 111.242 223.551C111.636 223.723 112.096 223.544 112.269 223.151C113.026 221.425 112.612 218.905 111.539 217.172C110.751 215.898 109.614 215.073 108.415 215.079C107.985 215.081 107.637 215.431 107.639 215.86C107.641 216.289 107.992 216.636 108.422 216.634Z" fill="url(#paint2_linear_729_2850)"/>
<path fill-rule="evenodd" clip-rule="evenodd" d="M382.347 409.916C380.832 411.203 381.133 413.199 382.282 414.489C383.435 415.776 385.36 416.319 386.94 414.782C388.655 413.116 388.371 411.13 387.259 409.955C386.157 408.79 384.171 408.365 382.347 409.916ZM383.337 411.074C384.381 410.186 385.516 410.333 386.15 411C386.774 411.657 386.835 412.76 385.876 413.692C385.042 414.503 384.032 414.156 383.421 413.476C382.818 412.798 382.54 411.751 383.337 411.074Z" fill="url(#paint3_linear_729_2850)"/>
<path fill-rule="evenodd" clip-rule="evenodd" d="M342.517 407.387C341.998 407.539 341.639 407.807 341.398 408.119C340.907 408.764 340.924 409.634 341.31 410.306C341.697 410.985 342.442 411.444 343.32 411.288C344.222 411.13 344.73 410.628 344.961 410.062C345.514 408.71 344.398 406.841 342.517 407.387ZM342.897 408.686C343.337 408.559 343.652 408.826 343.727 409.155C343.771 409.344 343.747 409.555 343.605 409.71C343.493 409.834 343.317 409.916 343.086 409.956C342.819 410.004 342.605 409.841 342.486 409.635C342.364 409.421 342.32 409.143 342.48 408.938C342.564 408.824 342.707 408.741 342.897 408.686Z" fill="url(#paint4_linear_729_2850)"/>
<path fill-rule="evenodd" clip-rule="evenodd" d="M529.034 407.137C529.004 407.144 528.977 407.154 528.953 407.165C526.387 408.22 525.926 410.272 526.58 411.822C527.231 413.372 529.065 414.499 531.282 413.722C532.75 413.207 533.441 411.854 533.421 410.479C533.401 409.263 532.807 408.051 531.76 407.427C531.055 407.01 530.143 406.84 529.034 407.137ZM529.428 408.432C529.984 408.291 530.462 408.319 530.851 408.482C531.438 408.727 531.811 409.262 531.973 409.856C532.245 410.852 531.933 412.059 530.831 412.446C529.156 413.033 527.79 411.975 527.682 410.708C527.611 409.856 528.14 408.976 529.428 408.433V408.432Z" fill="url(#paint5_linear_729_2850)"/>
<path fill-rule="evenodd" clip-rule="evenodd" d="M400.455 373.591C401.055 374.204 401.926 375.154 402.37 376.227C402.75 377.148 402.784 378.172 401.855 379.098C401.591 379.361 401.591 379.79 401.855 380.054C402.119 380.318 402.55 380.318 402.814 380.054C404.218 378.652 404.201 377.107 403.624 375.712C403.109 374.469 402.119 373.355 401.424 372.646C401.163 372.379 400.733 372.374 400.465 372.635C400.197 372.896 400.194 373.324 400.455 373.591Z" fill="url(#paint6_linear_729_2850)"/>
<path fill-rule="evenodd" clip-rule="evenodd" d="M426.974 342.296C427.235 342.255 427.51 342.435 427.768 342.651C428.245 343.051 428.669 343.659 428.669 344.145C428.669 344.518 428.971 344.821 429.347 344.821C429.72 344.821 430.025 344.518 430.025 344.145C430.025 343.342 429.432 342.275 428.639 341.613C428.045 341.121 427.357 340.866 426.764 340.96C426.395 341.018 426.14 341.365 426.201 341.734C426.259 342.103 426.608 342.354 426.974 342.296Z" fill="url(#paint7_linear_729_2850)"/>
<path fill-rule="evenodd" clip-rule="evenodd" d="M428.604 346.591C428.557 346.629 428.265 346.867 428.143 346.979C427.882 347.216 427.773 347.483 427.773 347.718C427.773 348.091 428.075 348.394 428.451 348.394C428.74 348.394 428.984 348.214 429.082 347.96C429.163 347.896 429.346 347.752 429.451 347.656C429.665 347.466 429.824 347.245 429.892 347.013C429.994 346.655 429.787 346.279 429.428 346.175C429.085 346.075 428.726 346.26 428.604 346.591Z" fill="url(#paint8_linear_729_2850)"/>
<path fill-rule="evenodd" clip-rule="evenodd" d="M483.933 264.701C484.377 264.78 484.75 265.216 485.052 265.648C485.36 266.097 485.591 266.568 485.594 266.802C485.601 267.175 485.909 267.474 486.282 267.469C486.658 267.464 486.957 267.156 486.95 266.783C486.946 266.406 486.665 265.605 486.167 264.881C485.658 264.142 484.93 263.505 484.174 263.369C483.807 263.303 483.455 263.547 483.387 263.915C483.319 264.282 483.567 264.634 483.933 264.701Z" fill="url(#paint9_linear_729_2850)"/>
<path fill-rule="evenodd" clip-rule="evenodd" d="M21.3578 280.196C21.3441 280.217 21.3315 280.239 21.3203 280.263C20.7415 281.459 20.6288 282.546 20.8175 283.48C21.1998 285.374 22.84 286.672 24.6444 287.002C26.4648 287.336 28.4251 286.695 29.4029 284.78C30.2684 283.085 30.1423 281.565 29.4952 280.398C27.9875 277.68 23.5067 276.865 21.3578 280.196ZM22.4397 280.844C24.025 278.437 27.2899 279.021 28.3914 281.007C28.8645 281.86 28.9116 282.97 28.279 284.209C27.5817 285.575 26.1702 286.002 24.872 285.765C23.5575 285.524 22.3324 284.612 22.0538 283.232C21.9136 282.537 22.0168 281.733 22.4389 280.846L22.4397 280.844Z" fill="url(#paint10_linear_729_2850)"/>
<path fill-rule="evenodd" clip-rule="evenodd" d="M32.0883 266.958C32.0422 268.32 33.1865 269.075 34.3998 269.082C35.5903 269.089 36.7773 268.375 36.8349 266.959C36.9152 264.977 34.6301 264.061 33.2029 264.902C32.5957 265.259 32.1233 265.919 32.0883 266.958ZM33.1892 266.995C33.2026 266.604 33.3081 266.3 33.4866 266.084C33.8271 265.671 34.4073 265.599 34.8908 265.76C35.3645 265.918 35.7582 266.319 35.7342 266.915C35.7039 267.661 35.0341 267.987 34.4061 267.983C33.8005 267.98 33.1664 267.675 33.1892 266.995Z" fill="url(#paint11_linear_729_2850)"/>
<path fill-rule="evenodd" clip-rule="evenodd" d="M27.2437 326.242C27.2722 326.273 27.3254 326.33 27.3539 326.37C27.464 326.524 27.5586 326.695 27.6481 326.829C28.2613 327.747 28.3773 328.972 27.9671 329.995C27.8281 330.342 27.9973 330.736 28.3447 330.874C28.6922 331.013 29.0871 330.844 29.2261 330.498C29.7986 329.069 29.6322 327.36 28.7762 326.079C28.6132 325.835 28.4254 325.497 28.1932 325.272C27.9105 324.999 27.5725 324.853 27.181 324.894C26.8088 324.932 26.5383 325.265 26.5769 325.636C26.6132 325.981 26.904 326.239 27.2437 326.242Z" fill="url(#paint12_linear_729_2850)"/>
<path fill-rule="evenodd" clip-rule="evenodd" d="M26.8433 332.147C26.7454 332.238 26.2064 332.739 26.0667 332.879C25.802 333.143 25.802 333.571 26.0667 333.835C26.3311 334.099 26.7606 334.099 27.0254 333.835C27.2091 333.652 27.7423 333.221 27.9555 332.929C28.1054 332.723 28.1603 332.524 28.1654 332.38C28.1782 332.007 27.885 331.694 27.5111 331.681C27.2023 331.671 26.9345 331.868 26.8433 332.147Z" fill="url(#paint13_linear_729_2850)"/>
<path fill-rule="evenodd" clip-rule="evenodd" d="M15.0982 379.735C15.0941 379.808 15.0887 379.917 15.0887 379.984C15.0887 380.357 15.3924 380.66 15.7666 380.66C16.1409 380.66 16.4446 380.357 16.4446 379.984C16.4446 379.797 16.4693 379.597 16.4375 379.423C16.3907 379.166 16.2707 378.938 16.0188 378.759C15.7144 378.542 15.2907 378.613 15.0734 378.917C14.8924 379.169 14.911 379.505 15.0982 379.735Z" fill="url(#paint14_linear_729_2850)"/>
<path fill-rule="evenodd" clip-rule="evenodd" d="M19.5837 355.472C19.7294 355.537 19.7708 355.657 19.7708 355.819C19.7708 356.192 20.0745 356.495 20.4487 356.495C20.823 356.495 21.1267 356.192 21.1267 355.819C21.1267 355.053 20.8298 354.549 20.1416 354.239C19.8006 354.085 19.3989 354.237 19.2447 354.577C19.0908 354.917 19.2426 355.318 19.5837 355.472Z" fill="url(#paint15_linear_729_2850)"/>
<path fill-rule="evenodd" clip-rule="evenodd" d="M155.873 378.167C156.143 378.545 156.586 378.905 156.927 379.246C157.758 380.075 158.177 381.28 158.529 382.331C158.583 382.495 158.618 382.728 158.607 382.953C158.6 383.089 158.602 383.233 158.52 383.314C158.256 383.578 158.256 384.006 158.52 384.27C158.785 384.534 159.214 384.534 159.479 384.27C159.725 384.025 159.881 383.667 159.938 383.266C160.005 382.791 159.933 382.258 159.815 381.903C159.401 380.664 158.865 379.266 157.886 378.289C157.596 378 157.207 377.703 156.977 377.382C156.76 377.078 156.336 377.007 156.031 377.224C155.727 377.441 155.656 377.863 155.873 378.167Z" fill="url(#paint16_linear_729_2850)"/>
<path fill-rule="evenodd" clip-rule="evenodd" d="M247.732 371.375C247.804 371.62 247.623 371.817 247.432 371.985C247.136 372.244 246.737 372.425 246.43 372.475C246.061 372.535 245.81 372.883 245.87 373.251C245.931 373.62 246.279 373.87 246.649 373.81C247.269 373.709 248.116 373.297 248.615 372.709C249.028 372.222 249.219 371.63 249.033 370.996C248.929 370.638 248.552 370.432 248.193 370.537C247.834 370.641 247.627 371.017 247.732 371.375Z" fill="url(#paint17_linear_729_2850)"/>
<path fill-rule="evenodd" clip-rule="evenodd" d="M448.654 296.258C449.029 296.609 449.098 297.261 448.988 297.762C448.693 299.09 447.374 300.055 446.209 300.695C445.844 300.895 445.712 301.353 445.912 301.717C446.112 302.081 446.571 302.213 446.934 302.013C448.459 301.178 450.074 299.821 450.461 298.087C450.678 297.104 450.423 295.854 449.692 295.165C449.388 294.879 448.912 294.893 448.624 295.194C448.34 295.496 448.353 295.972 448.654 296.258Z" fill="url(#paint18_linear_729_2850)"/>
<path fill-rule="evenodd" clip-rule="evenodd" d="M443.385 303.735L443.433 303.717C443.746 303.603 444.03 303.395 444.331 303.267C444.716 303.105 444.894 302.664 444.732 302.281C444.571 301.899 444.128 301.72 443.747 301.881C443.463 301.999 443.206 302.198 442.917 302.303C442.86 302.324 442.657 302.4 442.547 302.47C442.428 302.545 442.346 302.634 442.294 302.707C442.184 302.864 442.149 303.026 442.153 303.174C442.165 303.589 442.512 303.917 442.928 303.905C443.103 303.9 443.261 303.837 443.385 303.735Z" fill="url(#paint19_linear_729_2850)"/>
<path fill-rule="evenodd" clip-rule="evenodd" d="M456.265 195.702C456.479 195.679 456.692 195.84 456.896 196.023C457.292 196.384 457.628 196.926 457.628 197.356C457.628 197.729 457.933 198.032 458.306 198.032C458.682 198.032 458.984 197.729 458.984 197.356C458.984 196.617 458.489 195.643 457.808 195.023C457.289 194.552 456.672 194.297 456.12 194.358C455.747 194.398 455.479 194.732 455.516 195.103C455.557 195.474 455.892 195.743 456.265 195.702Z" fill="url(#paint20_linear_729_2850)"/>
<path fill-rule="evenodd" clip-rule="evenodd" d="M80.9766 210.364C80.1441 209.948 79.4765 209.271 78.6769 208.687C77.2998 207.68 75.599 206.872 72.46 207.605C70.2435 208.124 67.7768 209.123 66.0734 211.303C64.9362 212.759 64.1296 214.744 63.9882 217.485C63.9158 218.896 64.3468 224.664 69.0348 228.34C73.1463 231.564 80.9518 232.808 88.8334 234.644C95.0258 236.087 102.233 236.243 107.698 233.189C116.332 228.362 117.06 220.089 114.919 216.078C113.38 213.195 110.712 211.92 107.854 211.459C105.136 211.021 102.252 211.329 100.122 211.599C98.8332 211.763 95.6384 212.626 86.0052 211.624C84.2874 211.445 82.5136 211.131 80.9766 210.364ZM80.3486 211.615C82.0346 212.457 83.9754 212.819 85.8595 213.016C95.713 214.041 98.981 213.155 100.3 212.987C102.318 212.731 105.053 212.425 107.63 212.841C110.067 213.233 112.369 214.278 113.68 216.735C115.597 220.327 114.742 227.647 107.012 231.968C101.839 234.858 95.0134 234.647 89.1526 233.281C81.4991 231.498 73.8945 230.371 69.9016 227.24C65.7181 223.959 65.3245 218.816 65.3894 217.557C65.5123 215.169 66.1891 213.432 67.1799 212.164C68.6681 210.259 70.8434 209.421 72.7801 208.968C75.783 208.266 77.1843 209.266 78.4269 210.264C79.0559 210.769 79.6544 211.268 80.3486 211.615Z" fill="url(#paint21_linear_729_2850)"/>
<path fill-rule="evenodd" clip-rule="evenodd" d="M113.924 204.624C113.437 200.435 111.663 199.301 109.534 197.879C108.486 197.179 107.191 196.943 105.883 197.028C104.008 197.15 102.116 197.934 100.988 198.811C100.422 199.251 100.039 199.728 99.8743 200.159C99.7115 200.584 99.7272 200.989 99.9088 201.352C100.257 202.046 101.107 202.498 102.136 202.759C102.866 202.945 103.681 203.057 104.347 203.206C104.681 203.281 104.971 203.351 105.151 203.477C108.943 206.116 111.023 207.455 112.118 207.795C112.964 208.058 113.465 207.845 113.771 207.471C114.458 206.633 114.362 205.853 114.148 205.218C114.066 204.975 113.941 204.776 113.924 204.624ZM112.752 206.505C112.635 206.479 112.345 206.406 112.1 206.293C110.961 205.771 109.063 204.501 105.951 202.334C105.404 201.953 104.218 201.772 103.064 201.54C102.592 201.445 102.128 201.335 101.744 201.168C101.486 201.056 101.261 200.934 101.158 200.728C101.144 200.7 101.172 200.674 101.185 200.641C101.21 200.583 101.245 200.524 101.287 200.464C101.418 200.279 101.611 200.093 101.847 199.91C102.797 199.172 104.394 198.521 105.974 198.418C106.969 198.354 107.96 198.505 108.756 199.037C110.576 200.252 112.12 201.204 112.536 204.785C112.558 204.97 112.649 205.209 112.756 205.481C112.864 205.755 113.014 206.115 112.752 206.505Z" fill="url(#paint22_linear_729_2850)"/>
<path fill-rule="evenodd" clip-rule="evenodd" d="M84.1095 194.912C83.2734 194.912 81.714 195.345 80.4643 195.843C79.5732 196.199 78.8405 196.603 78.5646 196.877C78.1514 197.29 77.0688 198.005 76.4388 198.857C75.8686 199.629 75.6339 200.498 76.0796 201.387C76.2099 201.647 76.4313 201.862 76.7469 202.013C77.0495 202.157 77.4645 202.243 77.9411 202.266C79.4311 202.34 81.6421 201.827 81.9462 201.769C84.2294 201.334 86.1509 201.806 87.3719 201.846C88.1593 201.873 88.7332 201.709 89.0931 201.349C89.7925 200.651 90.0623 199.946 90.0684 199.285C90.0741 198.621 89.8065 197.981 89.3371 197.406C88.14 195.94 85.5488 194.912 84.1095 194.912ZM77.3415 200.71C77.1236 200.217 77.4917 199.775 77.872 199.371C78.4695 198.735 79.2483 198.215 79.5764 197.887C79.7792 197.685 80.3405 197.431 80.996 197.169C82.066 196.742 83.3933 196.34 84.1095 196.34C85.063 196.34 86.6457 196.924 87.6996 197.788C88.2266 198.22 88.642 198.712 88.6373 199.273C88.6341 199.621 88.4498 199.972 88.0814 200.34C88.0209 200.4 87.9247 200.399 87.8155 200.411C87.5565 200.438 87.2428 200.416 86.8814 200.382C85.5835 200.26 83.7725 199.968 81.6775 200.367C81.436 200.413 79.8958 200.779 78.5904 200.839C78.2097 200.856 77.8513 200.85 77.5658 200.788C77.4871 200.771 77.3797 200.726 77.3415 200.71Z" fill="url(#paint23_linear_729_2850)"/>
<path fill-rule="evenodd" clip-rule="evenodd" d="M14.2031 376.974C14.1677 376.983 14.1328 376.995 14.0994 377.01C13.5063 377.272 12.761 377.697 12.2995 378.061C12.019 378.281 11.8304 378.503 11.7478 378.668C11.1736 379.813 11.0831 380.85 11.5137 381.591C11.9328 382.312 12.9025 382.863 14.713 382.863C15.0784 382.863 16.0886 382.893 17.1007 382.304C18.9026 381.257 19.0902 379.632 18.3804 378.426C17.7131 377.291 16.1529 376.474 14.2031 376.974ZM12.9244 379.278C12.9493 379.255 13.1346 379.083 13.2898 378.974C13.6624 378.711 14.163 378.433 14.5841 378.243L14.5867 378.242C15.5783 378.003 16.4231 378.24 16.9393 378.726C17.2781 379.045 17.4694 379.468 17.4197 379.901C17.3666 380.364 17.0417 380.808 16.433 381.161C15.706 381.584 14.9756 381.54 14.713 381.54C14.0791 381.54 13.5842 381.472 13.2122 381.331C12.9509 381.233 12.764 381.105 12.6612 380.928C12.5604 380.754 12.5458 380.545 12.575 380.314C12.6154 379.996 12.7411 379.647 12.9244 379.278Z" fill="url(#paint24_linear_729_2850)"/>
<path fill-rule="evenodd" clip-rule="evenodd" d="M110.723 297.569C110.363 297.914 110.135 298.493 110.124 299.156C110.108 300.21 110.629 301.379 111.491 301.74C112.088 301.989 112.908 301.943 113.886 301.097C114.621 300.461 114.889 299.812 114.908 299.237C114.927 298.664 114.699 298.136 114.321 297.704C113.815 297.127 113.04 296.734 112.387 296.643C111.845 296.568 111.377 296.699 111.079 296.972C110.914 297.122 110.786 297.318 110.723 297.569ZM112.006 297.953C112.045 297.949 112.1 297.944 112.14 297.947C112.282 297.957 112.436 298 112.59 298.063C113.043 298.25 113.528 298.612 113.58 299.101C113.612 299.414 113.429 299.741 113.017 300.097C112.584 300.472 112.268 300.63 112.004 300.52C111.827 300.446 111.714 300.268 111.626 300.072C111.504 299.799 111.446 299.476 111.451 299.177C111.454 298.987 111.48 298.806 111.542 298.66C111.565 298.608 111.578 298.553 111.621 298.533C111.85 298.428 111.998 298.203 112.006 297.953Z" fill="url(#paint25_linear_729_2850)"/>
<path fill-rule="evenodd" clip-rule="evenodd" d="M131.032 296.514L131.018 296.504C130.861 296.398 130.612 296.327 130.303 296.39C129.981 296.456 129.503 296.706 129.219 296.914C129.008 297.068 128.883 297.231 128.839 297.319C128.481 298.035 128.305 298.835 128.627 299.466C128.782 299.77 129.044 300.053 129.481 300.271C130.789 300.923 132.003 300.075 132.435 299.007C132.718 298.31 132.646 297.554 132.185 297.057C131.938 296.791 131.567 296.577 131.032 296.514ZM130.43 297.762C130.512 297.798 130.602 297.818 130.697 297.818C130.938 297.818 131.112 297.848 131.211 297.955C131.341 298.096 131.286 298.314 131.206 298.511C131.035 298.933 130.591 299.346 130.074 299.088C129.585 298.844 129.78 298.402 129.978 298.007L130.43 297.762ZM130.036 297.213L130.037 297.215L130.036 297.213Z" fill="url(#paint26_linear_729_2850)"/>
<path fill-rule="evenodd" clip-rule="evenodd" d="M122.283 308.431C122.252 308.4 122.216 308.371 122.177 308.344C122.062 308.264 121.875 308.192 121.662 308.172C121.441 308.151 121.194 308.182 121.059 308.227C119.601 308.712 119.008 309.631 118.571 310.939C118.032 312.552 119.17 314.173 120.841 315.04C122.473 315.886 124.516 315.955 125.647 314.827C127.101 313.377 127.509 312.295 127.417 311.527C127.32 310.712 126.698 310.098 125.754 309.654C124.75 309.183 123.357 308.88 122.283 308.43V308.431ZM121.447 309.493C121.483 309.519 121.523 309.542 121.564 309.561C122.652 310.05 124.136 310.356 125.189 310.851C125.654 311.07 126.053 311.282 126.1 311.684C126.126 311.9 126.045 312.146 125.879 312.446C125.651 312.858 125.27 313.332 124.709 313.891C124.358 314.241 123.858 314.369 123.326 314.365C122.707 314.36 122.043 314.172 121.453 313.866C120.875 313.566 120.365 313.154 120.052 312.67C119.792 312.27 119.675 311.819 119.829 311.357C120.122 310.479 120.481 309.825 121.447 309.493ZM121.174 308.967L121.176 309.002C121.175 308.991 121.174 308.979 121.174 308.967ZM121.174 308.94V308.944V308.94Z" fill="url(#paint27_linear_729_2850)"/>
<path fill-rule="evenodd" clip-rule="evenodd" d="M69.6977 314.738C68.9796 315.17 68.6547 315.729 68.5636 316.283C68.4256 317.123 68.8619 318.008 69.532 318.555C70.3498 319.222 71.4429 319.356 72.1892 318.611C72.9746 317.828 73.0369 316.372 72.5801 315.369C72.2538 314.653 71.6819 314.194 71.0427 314.165C70.6399 314.147 70.1738 314.29 69.6977 314.738ZM70.4297 315.843C70.4815 315.814 70.5289 315.778 70.5706 315.736C70.7261 315.581 70.8521 315.481 70.9834 315.487C71.061 315.49 71.1203 315.546 71.1773 315.609C71.2549 315.693 71.3192 315.799 71.373 315.917C71.6196 316.458 71.6756 317.253 71.2516 317.676C71.001 317.926 70.6459 317.755 70.3717 317.531C70.0601 317.276 69.8081 316.887 69.8724 316.497C69.9129 316.251 70.0979 316.031 70.4297 315.843Z" fill="url(#paint28_linear_729_2850)"/>
<path fill-rule="evenodd" clip-rule="evenodd" d="M78.5254 316.68C77.4048 316.615 76.6933 317.067 76.329 317.63C75.7325 318.55 76.0157 319.879 77.172 320.456C77.6826 320.71 78.1405 320.728 78.5297 320.618C79.3714 320.379 79.9403 319.436 79.9954 318.534C80.0564 317.531 79.5398 316.69 78.5224 316.68H78.5254ZM78.4614 318.001C78.4753 318.002 78.4892 318.002 78.5032 318.002C78.6079 318.002 78.6371 318.1 78.6563 318.193C78.7107 318.457 78.6464 318.785 78.4972 319.041C78.412 319.188 78.3003 319.321 78.1381 319.352C78.0281 319.373 77.9047 319.342 77.7652 319.272C77.3812 319.081 77.2447 318.654 77.4429 318.348C77.6064 318.095 77.9561 317.969 78.4614 318.001Z" fill="url(#paint29_linear_729_2850)"/>
<path fill-rule="evenodd" clip-rule="evenodd" d="M66.9342 320.251C66.8573 320.243 66.7794 320.249 66.7044 320.268C65.1117 320.664 64.202 321.949 63.9073 323.258C63.7077 324.145 63.7992 325.036 64.1142 325.665C66.5552 330.535 72.4996 330.229 75.868 326.869C76.536 326.202 76.7535 325.586 76.7253 325.057C76.6842 324.285 76.0765 323.585 75.0919 323.046C73.9438 322.418 72.2762 321.951 70.9945 321.555C70.5257 321.41 70.1129 321.276 69.8112 321.143C69.6932 321.091 69.5964 321.053 69.545 321.002C69.0378 320.496 68.9181 320.459 66.9342 320.251ZM66.9196 321.58C67.4991 321.64 67.8741 321.672 68.1386 321.713C68.3813 321.75 68.4645 321.795 68.6071 321.937C68.8232 322.153 69.3232 322.398 70.0005 322.626C71.2448 323.043 73.1869 323.512 74.454 324.206C74.7553 324.37 75.0149 324.545 75.1986 324.743C75.3093 324.862 75.3936 324.984 75.4012 325.127C75.4141 325.374 75.2414 325.623 74.9301 325.933C72.174 328.683 67.2979 329.058 65.3004 325.073C65.1011 324.675 65.0749 324.109 65.2013 323.548C65.3892 322.713 65.9346 321.873 66.9189 321.58L66.9196 321.58Z" fill="url(#paint30_linear_729_2850)"/>
<path fill-rule="evenodd" clip-rule="evenodd" d="M542.293 126.477C537.549 126.297 520.615 126.667 515.37 126.985C491.553 128.426 464.632 134.41 453.635 139.837C400.312 166.157 354.66 167.689 293.896 161.115C276.522 159.235 250.422 154.2 234.248 146.621C228.895 144.113 226.309 139.842 223.686 136.533C221.8 134.153 219.882 132.255 217.094 131.637C198.369 127.486 160.856 136.53 141.971 139.778C105.483 146.054 66.5633 154.366 29.4434 154.366C19.7185 154.366 9.75533 154.473 0 153.587L0.00629911 154.915C9.76328 155.792 19.7192 155.689 29.4434 155.689C66.6373 155.689 105.636 147.37 142.196 141.082C160.955 137.856 198.208 128.805 216.807 132.928C219.954 133.626 221.801 136.218 223.988 139.099C226.336 142.192 229.018 145.632 233.684 147.818C249.973 155.451 276.255 160.537 293.754 162.43C354.796 169.034 400.653 167.464 454.225 141.023C465.129 135.641 491.831 129.734 515.449 128.305C520.668 127.989 537.579 127.613 542.29 127.786L542.293 126.477Z" fill="url(#paint31_linear_729_2850)"/>
<path fill-rule="evenodd" clip-rule="evenodd" d="M0.00165766 141.577C14.3805 144.061 29.1022 143.685 43.6538 145.5C66.7765 148.383 93.5417 146.367 116.314 143.122C137.974 140.035 157.909 133.623 179.857 133.623C180.223 133.623 180.52 133.327 180.52 132.962C180.52 132.597 180.223 132.301 179.857 132.301C157.845 132.301 137.85 138.717 116.127 141.813C93.4645 145.042 66.8289 147.056 43.8182 144.187C29.2123 142.366 14.4289 142.761 0 140.234L0.00165766 141.577Z" fill="url(#paint32_linear_729_2850)"/>
<path fill-rule="evenodd" clip-rule="evenodd" d="M0.00362882 131.962C1.35528 132.04 2.61245 132.054 3.68595 131.92C25.817 129.16 39.8975 133.263 60.8013 135.87C78.7537 138.108 97.656 139.793 115.854 137.978C138.995 135.67 161.855 133.469 185.002 133.469C185.368 133.469 185.665 133.173 185.665 132.807C185.665 132.442 185.368 132.146 185.002 132.146C161.811 132.146 138.908 134.349 115.722 136.662C97.6219 138.467 78.8217 136.783 60.9657 134.557C39.9423 131.935 25.7792 127.832 3.52151 130.607C2.49277 130.735 1.29196 130.723 0.000976562 130.647L0.00362882 131.962Z" fill="url(#paint33_linear_729_2850)"/>
<path fill-rule="evenodd" clip-rule="evenodd" d="M63.1495 136.137L63.1992 136.137C63.5884 136.135 65.5027 136.137 65.8306 136.137C67.4746 136.137 69.127 135.973 70.7714 135.973C76.1866 135.973 81.5634 134.989 87.0496 134.989C102.69 134.989 118.393 136.137 134.076 136.137C134.442 136.137 134.739 135.841 134.739 135.476C134.739 135.111 134.442 134.814 134.076 134.814C118.393 134.814 102.69 133.666 87.0496 133.666C81.5634 133.666 76.1866 134.65 70.7714 134.65C69.127 134.65 67.4746 134.814 65.8306 134.814C65.4496 134.814 63.0205 134.823 63.0069 134.826C62.6469 134.892 62.4092 135.238 62.4761 135.596C62.5368 135.922 62.8276 136.148 63.1495 136.137Z" fill="url(#paint34_linear_729_2850)"/>
<path fill-rule="evenodd" clip-rule="evenodd" d="M483.254 260.671C481.517 260.441 479.866 260.644 478.665 261.223C477.774 261.655 477.114 262.295 476.786 263.106C475.695 265.811 475.871 267.749 476.752 269.086C477.299 269.913 478.125 270.527 479.153 270.945C480.572 271.522 482.388 271.725 484.318 271.648C486.175 271.574 487.511 270.736 488.306 269.567C489.487 267.834 489.473 265.331 488.107 263.396C487.159 262.054 485.561 260.977 483.254 260.671ZM483.081 261.982C484.948 262.23 486.257 263.071 487.023 264.157C488.058 265.621 488.101 267.513 487.209 268.823C486.622 269.682 485.628 270.272 484.265 270.326C482.823 270.384 481.447 270.279 480.29 269.941C479.239 269.633 478.374 269.137 477.86 268.359C477.16 267.294 477.147 265.754 478.016 263.601C478.228 263.08 478.669 262.691 479.246 262.414C480.247 261.931 481.626 261.79 483.081 261.982Z" fill="url(#paint35_linear_729_2850)"/>
<path fill-rule="evenodd" clip-rule="evenodd" d="M445.797 193.826C445.78 193.834 445.767 193.843 445.75 193.852C445.594 193.947 444.262 194.569 443.307 195.5C442.624 196.169 442.143 196.994 442.193 197.885C442.226 198.489 442.491 199.144 443.158 199.81C443.466 200.119 443.874 200.312 444.355 200.396C444.931 200.498 445.638 200.439 446.394 200.288C448.011 199.963 449.901 199.183 451.032 199.183C452.285 199.183 454.075 200.076 455.676 200.59C456.986 201.009 458.186 201.162 459.005 200.754C460.351 200.084 461.074 199.115 461.302 198.082C461.531 197.045 461.259 195.917 460.52 194.901C458.554 192.204 453.044 190.212 445.797 193.826ZM446.394 195.008C452.809 191.809 457.705 193.291 459.446 195.679C459.943 196.359 460.159 197.104 460.006 197.798C459.854 198.497 459.323 199.117 458.412 199.571C458.166 199.694 457.861 199.703 457.52 199.668C457.079 199.622 456.591 199.494 456.084 199.33C454.347 198.774 452.388 197.86 451.032 197.86C449.838 197.86 447.839 198.648 446.132 198.991C445.644 199.089 445.183 199.148 444.782 199.118C444.504 199.097 444.262 199.041 444.096 198.874C443.721 198.501 443.536 198.153 443.516 197.814C443.489 197.291 443.834 196.839 444.235 196.446C445.031 195.668 446.132 195.146 446.394 195.008V195.008Z" fill="url(#paint36_linear_729_2850)"/>
<path fill-rule="evenodd" clip-rule="evenodd" d="M235.382 371.926C235.368 371.938 235.358 371.95 235.345 371.965C235.225 372.101 234.138 373.09 233.504 374.263C233.052 375.104 232.839 376.035 233.152 376.871C233.364 377.438 233.813 377.984 234.648 378.422C235.035 378.626 235.481 378.688 235.966 378.626C236.547 378.552 241.402 377.766 242.482 377.43C243.678 377.058 248.098 376.29 250.058 374.617C251.202 373.641 251.544 372.438 251.454 371.384C251.363 370.326 250.767 369.329 249.758 368.579C247.076 366.589 241.222 366.323 235.382 371.926ZM236.304 372.877C241.473 367.917 246.59 367.878 248.965 369.641C249.642 370.142 250.071 370.79 250.132 371.497C250.195 372.21 249.957 373.06 249.139 373.664C247.253 375.051 243.193 375.683 241.898 376.086C240.759 376.44 236.384 377.189 235.992 377.279C235.72 377.342 235.472 377.36 235.264 377.25C234.795 377.005 234.514 376.728 234.394 376.41C234.213 375.919 234.407 375.384 234.673 374.89C235.2 373.912 236.095 373.086 236.304 372.876L236.304 372.877Z" fill="url(#paint37_linear_729_2850)"/>
<path fill-rule="evenodd" clip-rule="evenodd" d="M445.724 209.856C445.439 211.029 445.638 211.865 446.039 212.421C446.699 213.337 448.005 213.583 449.232 213.198C450.269 212.872 451.214 212.107 451.572 211.079C451.821 210.375 451.811 209.541 451.35 208.621C450.614 207.156 449.305 206.891 448.105 207.307C447.001 207.689 446.003 208.702 445.724 209.856ZM447.014 210.167C447.19 209.433 447.836 208.8 448.539 208.557C449.139 208.348 449.795 208.479 450.163 209.213C450.432 209.749 450.465 210.232 450.322 210.642C450.097 211.285 449.48 211.733 448.831 211.936C448.184 212.141 447.465 212.134 447.117 211.649C446.884 211.329 446.848 210.841 447.014 210.167Z" fill="url(#paint38_linear_729_2850)"/>
<path fill-rule="evenodd" clip-rule="evenodd" d="M459.967 208.953C459.069 209.446 458.747 210.374 458.87 211.254C458.989 212.126 459.559 212.917 460.338 213.176C460.995 213.394 461.85 213.285 462.742 212.394C463.147 211.992 463.349 211.253 463.239 210.52C463.137 209.8 462.745 209.117 462.129 208.791C461.602 208.513 460.879 208.452 459.967 208.953ZM460.607 210.112C460.992 209.9 461.287 209.843 461.509 209.961C461.767 210.097 461.883 210.409 461.93 210.71C461.97 210.997 461.963 211.301 461.807 211.458C461.399 211.862 461.055 212.019 460.76 211.921C460.428 211.811 460.232 211.443 460.183 211.073C460.133 210.711 460.236 210.315 460.607 210.112Z" fill="url(#paint39_linear_729_2850)"/>
<path fill-rule="evenodd" clip-rule="evenodd" d="M398.137 369.98C398.124 369.984 398.11 369.989 398.097 369.993C394.672 371.192 393.094 373.118 392.663 375.11C392.159 377.446 393.25 379.952 395.034 381.701C396.837 383.467 399.32 384.431 401.472 383.786C410.235 381.16 407.105 367.469 398.137 369.98ZM398.515 371.248C405.799 369.231 408.219 380.384 401.091 382.519C399.367 383.035 397.408 382.172 395.962 380.757C394.503 379.326 393.545 377.3 393.96 375.389C394.314 373.745 395.693 372.242 398.512 371.25L398.515 371.248Z" fill="url(#paint40_linear_729_2850)"/>
<path fill-rule="evenodd" clip-rule="evenodd" d="M153.439 382.863C154.69 384.883 155.892 386.095 156.952 386.722C158.204 387.465 159.307 387.45 160.17 387.008C160.853 386.659 161.401 386.022 161.747 385.197C162.218 384.072 162.314 382.586 161.889 381.111C161.482 379.7 160.197 375.706 154.443 373.554C152.753 372.922 149.419 373.246 147.384 374.605C145.886 375.603 145.048 377.109 145.781 379.115C146.259 380.421 146.832 381.041 147.421 381.341C147.849 381.559 148.305 381.621 148.791 381.598C150.023 381.545 151.561 380.767 153.439 382.863ZM154.54 382.122C154.521 382.091 154.497 382.059 154.473 382.031C152.477 379.769 150.804 380.019 149.394 380.208C148.906 380.274 148.461 380.363 148.059 380.179C147.66 379.998 147.348 379.542 147.028 378.663C146.544 377.341 147.135 376.362 148.121 375.704C149.811 374.575 152.574 374.268 153.977 374.792C159.086 376.703 160.252 380.222 160.614 381.476C160.948 382.635 160.894 383.804 160.524 384.687C160.309 385.2 159.99 385.614 159.564 385.83C159.043 386.097 158.386 386.034 157.63 385.587C156.69 385.029 155.65 383.926 154.54 382.122Z" fill="url(#paint41_linear_729_2850)"/>
<path fill-rule="evenodd" clip-rule="evenodd" d="M509.204 385.27C507.404 385.198 506.307 386.183 505.998 387.316C505.68 388.467 506.154 389.853 507.672 390.609C508.299 390.923 508.949 390.885 509.539 390.607C510.292 390.254 510.955 389.476 511.293 388.626C511.667 387.691 511.634 386.694 511.101 386.043C510.742 385.6 510.142 385.273 509.204 385.27ZM509.164 386.592C509.174 386.593 509.181 386.593 509.191 386.593C509.615 386.593 509.91 386.678 510.073 386.877C510.331 387.194 510.245 387.681 510.063 388.135C509.88 388.593 509.562 389.028 509.181 389.291C508.899 389.483 508.578 389.583 508.266 389.426C507.437 389.013 507.102 388.295 507.275 387.665C507.454 387.019 508.133 386.548 509.164 386.592Z" fill="url(#paint42_linear_729_2850)"/>
<path fill-rule="evenodd" clip-rule="evenodd" d="M243.827 362.74C243.877 362.898 243.986 363.029 244.131 363.112C245.155 363.693 245.186 363.715 245.344 363.826C246.44 364.606 247.181 364.49 247.573 364.18C247.796 364.004 247.962 363.739 248.041 363.382C248.154 362.868 248.065 362.098 247.811 361.328C247.522 360.453 247.031 359.583 246.504 359.093C246.042 358.66 245.531 358.496 245.06 358.597C244.741 358.668 244.412 358.864 244.123 359.268C243.749 359.792 243.562 360.215 243.49 360.629C243.389 361.212 243.528 361.803 243.827 362.74ZM246.743 363.09C246.718 363.083 246.69 363.075 246.666 363.068C246.509 363.007 246.326 362.901 246.113 362.751C245.952 362.636 245.913 362.603 245.011 362.091C244.842 361.569 244.734 361.214 244.797 360.852C244.841 360.601 244.976 360.355 245.203 360.035C245.255 359.963 245.289 359.901 245.345 359.89C245.367 359.887 245.386 359.906 245.409 359.917C245.473 359.95 245.536 360 245.599 360.06C245.993 360.426 246.336 361.089 246.551 361.741C246.614 361.928 246.664 362.117 246.701 362.3C246.754 362.556 246.779 362.798 246.76 362.999C246.758 363.025 246.751 363.061 246.743 363.09Z" fill="url(#paint43_linear_729_2850)"/>
<path fill-rule="evenodd" clip-rule="evenodd" d="M482.699 320.495C481.465 320.495 480.55 320.805 479.973 321.36C479.367 321.948 479.082 322.827 479.281 324.048C479.426 324.94 479.814 325.519 480.295 325.884C481.005 326.421 481.963 326.497 482.821 326.302C483.803 326.078 484.615 325.486 484.837 325.023C485.6 323.457 484.903 321.896 484.031 321.102C483.587 320.697 483.09 320.495 482.699 320.495ZM482.699 321.818C482.768 321.818 482.845 321.864 482.927 321.916C483.077 322.009 483.223 322.145 483.355 322.311C483.77 322.828 484.038 323.635 483.647 324.447C483.614 324.509 483.537 324.56 483.451 324.622C483.216 324.787 482.884 324.93 482.526 325.012C482.042 325.122 481.495 325.133 481.097 324.831C480.842 324.636 480.666 324.311 480.59 323.836C480.477 323.152 480.557 322.64 480.898 322.31C481.273 321.948 481.893 321.818 482.699 321.818Z" fill="url(#paint44_linear_729_2850)"/>
<path fill-rule="evenodd" clip-rule="evenodd" d="M479.434 292.355C478.103 292.065 477.02 292.826 476.46 293.993C475.661 295.66 476.011 298.097 478.157 298.896C480.15 299.639 481.683 298.073 482.068 296.22C482.294 295.134 482.105 293.991 481.458 293.243C481.012 292.728 480.354 292.374 479.434 292.355ZM479.194 293.657C479.246 293.671 479.3 293.677 479.354 293.677C479.851 293.677 480.218 293.833 480.454 294.107C480.852 294.567 480.909 295.283 480.77 295.951C480.547 297.024 479.775 298.087 478.621 297.657C477.281 297.158 477.158 295.604 477.657 294.564C477.952 293.949 478.489 293.482 479.194 293.657Z" fill="url(#paint45_linear_729_2850)"/>
<path fill-rule="evenodd" clip-rule="evenodd" d="M432.538 280.229C432.465 280.172 432.382 280.131 432.293 280.108C429.243 279.321 426.939 280.678 425.845 282.269C425.337 283.004 425.089 283.795 425.105 284.475C425.128 285.376 425.231 285.948 425.367 286.288C425.546 286.725 425.811 286.924 426.08 287.012C426.425 287.125 426.892 287.024 427.416 286.693C427.787 286.457 428.238 286.104 428.752 285.844C429.167 285.636 429.627 285.486 430.141 285.587C431.52 285.86 432.585 285.768 433.307 285.467C433.911 285.215 434.309 284.816 434.514 284.338C434.713 283.868 434.733 283.304 434.514 282.686C434.252 281.939 433.616 281.077 432.538 280.229ZM426.561 285.667C426.547 285.627 426.538 285.585 426.528 285.543C426.475 285.276 426.445 284.916 426.431 284.441C426.421 284 426.607 283.495 426.935 283.018C427.771 281.806 429.525 280.817 431.825 281.355L431.829 281.356C432.469 281.877 432.91 282.389 433.152 282.867C433.337 283.229 433.407 283.554 433.294 283.819C433.185 284.074 432.913 284.233 432.542 284.331C432.004 284.472 431.285 284.464 430.397 284.289C429.73 284.157 429.107 284.264 428.54 284.489C428.043 284.687 427.588 284.978 427.191 285.25C426.952 285.411 426.743 285.568 426.561 285.667Z" fill="url(#paint46_linear_729_2850)"/>
<path fill-rule="evenodd" clip-rule="evenodd" d="M453.952 280.348C452.832 279.607 450.927 279.76 449.705 280.519C448.77 281.099 448.241 281.994 448.505 283.024C448.717 283.851 449.257 284.192 449.926 284.346C450.285 284.428 450.685 284.444 451.066 284.49C451.302 284.519 451.531 284.543 451.692 284.673C451.873 284.819 452.34 285.461 452.944 285.878C453.488 286.253 454.124 286.457 454.781 286.264C455.681 286.002 456.17 285.531 456.398 285C456.629 284.467 456.602 283.839 456.356 283.194C455.955 282.13 454.94 281.003 453.952 280.348ZM453.274 281.378C453.913 281.802 454.571 282.465 454.974 283.154C455.262 283.644 455.454 284.137 455.263 284.536C455.143 284.784 454.869 284.956 454.441 285.08C454.052 285.195 453.704 284.933 453.41 284.681C452.953 284.291 452.609 283.828 452.459 283.708C452.048 283.378 451.447 283.283 450.835 283.228C450.584 283.205 450.331 283.185 450.106 283.118C449.918 283.062 449.756 282.958 449.694 282.713C449.568 282.224 449.903 281.843 450.347 281.567C451.189 281.043 452.503 280.867 453.274 281.378Z" fill="url(#paint47_linear_729_2850)"/>
<path fill-rule="evenodd" clip-rule="evenodd" d="M441.026 292.419C436.747 292.998 435.349 291.293 434.67 290.687C434.136 290.209 433.232 289.81 432.282 289.614C431.319 289.416 430.315 289.43 429.61 289.707C422.719 292.403 424.868 299.631 425.543 301.065C426.607 303.334 429.707 309.433 438.194 308.002C442.508 307.275 448.712 304.427 451.791 301.057C453.126 299.593 453.88 298.019 453.78 296.479C453.708 295.418 453.245 294.357 452.246 293.345C451.309 292.394 449.602 291.968 447.725 291.887C445.157 291.775 442.274 292.25 441.026 292.419ZM441.207 293.761C442.411 293.598 445.19 293.131 447.666 293.239C449.152 293.304 450.536 293.541 451.278 294.295C452.007 295.033 452.372 295.793 452.423 296.568C452.505 297.781 451.841 298.991 450.788 300.145C447.888 303.32 442.033 305.983 437.97 306.668C430.446 307.935 427.716 302.501 426.771 300.491C426.208 299.291 424.345 293.223 430.106 290.967C430.609 290.77 431.323 290.799 432.007 290.94C432.702 291.083 433.374 291.347 433.766 291.695C434.561 292.407 436.189 294.44 441.207 293.761Z" fill="url(#paint48_linear_729_2850)"/>
<path fill-rule="evenodd" clip-rule="evenodd" d="M426.257 338.297C423.751 338.035 420.804 337.825 418.259 338.276C416.452 338.597 414.844 339.251 413.687 340.405C412.107 341.982 411.594 343.53 411.773 344.943C411.951 346.343 412.829 347.642 414.171 348.736C416.413 350.564 419.969 351.835 423.287 352.137C425.546 352.343 427.693 352.095 429.261 351.313C433.063 349.417 434.471 346.156 433.879 343.404C433.287 340.654 430.685 338.308 426.254 338.297H426.257ZM426.153 339.616C426.176 339.619 426.199 339.62 426.222 339.62C429.871 339.62 432.096 341.422 432.582 343.682C433.07 345.948 431.799 348.568 428.668 350.13C427.289 350.818 425.395 351 423.407 350.819C420.354 350.541 417.074 349.393 415.01 347.712C413.961 346.857 413.227 345.871 413.089 344.777C412.952 343.697 413.417 342.545 414.625 341.341C415.599 340.369 416.968 339.848 418.491 339.579C420.93 339.147 423.755 339.365 426.153 339.616Z" fill="url(#paint49_linear_729_2850)"/>
<path fill-rule="evenodd" clip-rule="evenodd" d="M20.503 352.187C20.4781 352.179 20.4529 352.174 20.4274 352.169C18.2986 351.801 16.9685 353.286 16.6787 354.937C16.4851 356.041 16.7792 357.201 17.5606 357.917C18.3643 358.654 19.7348 358.994 21.7535 358.126C22.5452 357.786 23.07 356.898 23.1227 355.85C23.1937 354.434 22.4205 352.755 20.503 352.187ZM20.1641 353.467C21.3567 353.839 21.843 354.892 21.7983 355.784C21.7731 356.282 21.605 356.749 21.2287 356.911C19.8963 357.484 18.9882 357.429 18.4577 356.943C17.9953 356.519 17.8706 355.819 17.9853 355.165C18.1567 354.187 18.9113 353.271 20.1615 353.466L20.1641 353.467Z" fill="url(#paint50_linear_729_2850)"/>
<path fill-rule="evenodd" clip-rule="evenodd" d="M9.60725 391.281C9.59021 391.276 9.57294 391.272 9.55544 391.269C8.0962 391.016 7.18443 392.035 6.98581 393.166C6.85309 393.923 7.05467 394.718 7.59032 395.209C8.1412 395.714 9.08069 395.947 10.4645 395.352C11.0072 395.119 11.3669 394.511 11.4031 393.792C11.4517 392.821 10.9217 391.671 9.60725 391.281ZM9.37499 392.158C10.1924 392.414 10.5258 393.135 10.4952 393.747C10.4779 394.089 10.3627 394.409 10.1047 394.52C9.19137 394.912 8.5689 394.875 8.20529 394.542C7.88826 394.251 7.80281 393.771 7.88144 393.322C7.99893 392.652 8.51618 392.024 9.37317 392.158L9.37499 392.158Z" fill="url(#paint51_linear_729_2850)"/>
<path fill-rule="evenodd" clip-rule="evenodd" d="M133.348 370.702C133.292 370.722 133.239 370.749 133.19 370.782C132.45 371.292 132.196 371.915 132.197 372.499C132.2 373.338 132.799 374.149 133.506 374.525C134.117 374.851 134.779 374.849 135.254 374.493C135.607 374.23 135.914 373.729 135.914 372.857C135.914 371.862 135.607 371.109 135.06 370.769C134.667 370.525 134.112 370.436 133.348 370.702ZM133.877 371.92C134.087 371.851 134.243 371.821 134.359 371.893C134.433 371.938 134.465 372.026 134.497 372.124C134.565 372.328 134.588 372.579 134.588 372.857C134.588 373.026 134.572 373.167 134.537 373.282C134.517 373.351 134.5 373.408 134.458 373.435C134.423 373.459 134.378 373.444 134.334 373.435C134.252 373.419 134.169 373.382 134.089 373.335C133.855 373.197 133.643 372.965 133.557 372.697C133.475 372.439 133.563 372.163 133.875 371.921L133.877 371.92Z" fill="url(#paint52_linear_729_2850)"/>
<path fill-rule="evenodd" clip-rule="evenodd" d="M75.0062 360.072C74.9505 360.091 74.8971 360.118 74.8484 360.152C74.1078 360.662 73.8538 361.285 73.8555 361.868C73.8578 362.707 74.4572 363.518 75.164 363.894C75.7747 364.22 76.4368 364.218 76.9122 363.863C77.2656 363.599 77.5719 363.099 77.5719 362.226C77.5719 361.231 77.2656 360.478 76.7179 360.138C76.3247 359.895 75.7697 359.806 75.0062 360.072ZM75.535 361.29C75.7452 361.22 75.9014 361.19 76.0174 361.262C76.091 361.307 76.1235 361.395 76.1556 361.493C76.2229 361.697 76.2458 361.948 76.2458 362.226C76.2458 362.395 76.2299 362.536 76.1954 362.651C76.1749 362.72 76.1583 362.777 76.1159 362.805C76.0807 362.828 76.0363 362.814 75.9919 362.805C75.91 362.788 75.8271 362.751 75.7469 362.704C75.5135 362.566 75.301 362.334 75.2154 362.066C75.1329 361.808 75.2214 361.532 75.5337 361.29L75.535 361.29Z" fill="url(#paint53_linear_729_2850)"/>
<path fill-rule="evenodd" clip-rule="evenodd" d="M146.444 389.569C146.381 389.569 146.318 389.578 146.258 389.596C145.431 389.838 145.083 390.313 144.975 390.801C144.832 391.447 145.19 392.249 145.766 392.8C146.141 393.158 146.59 393.401 146.97 393.464C147.382 393.533 147.743 393.427 148.01 393.16C148.728 392.445 148.899 391.552 148.634 390.852C148.371 390.156 147.664 389.569 146.444 389.569ZM147.153 392.138C147.051 392.09 146.816 391.971 146.684 391.844C146.521 391.689 146.378 391.5 146.305 391.305C146.273 391.219 146.237 391.132 146.28 391.058C146.325 390.982 146.414 390.936 146.539 390.894L146.539 390.894C146.987 390.911 147.292 391.052 147.393 391.319C147.489 391.573 147.386 391.871 147.153 392.138Z" fill="url(#paint54_linear_729_2850)"/>
<path fill-rule="evenodd" clip-rule="evenodd" d="M129.362 346.983C129.348 346.979 129.333 346.976 129.319 346.973C127.688 346.647 126.521 347.169 125.846 347.978C124.803 349.228 124.909 351.255 126.398 352.428C127.266 353.112 128.149 353.328 128.943 353.252C130.83 353.074 132.236 351.183 131.972 349.491C131.81 348.457 131.064 347.445 129.362 346.983ZM129.036 348.266C130.049 348.546 130.565 349.075 130.661 349.695C130.89 351.159 129.006 352.797 127.219 351.39C126.359 350.713 126.263 349.546 126.866 348.824C127.284 348.322 128.027 348.07 129.035 348.265L129.036 348.266Z" fill="url(#paint55_linear_729_2850)"/>
<path fill-rule="evenodd" clip-rule="evenodd" d="M234.105 361.579C234.09 361.575 234.075 361.572 234.061 361.569C232.43 361.243 231.263 361.764 230.588 362.574C229.545 363.824 229.651 365.851 231.14 367.024C232.008 367.707 232.891 367.923 233.685 367.848C235.572 367.669 236.978 365.779 236.714 364.087C236.553 363.053 235.806 362.04 234.105 361.579ZM233.778 362.861C234.791 363.141 235.307 363.671 235.404 364.29C235.632 365.755 233.748 367.392 231.962 365.986C231.101 365.308 231.005 364.142 231.608 363.42C232.027 362.917 232.769 362.666 233.777 362.861L233.778 362.861Z" fill="url(#paint56_linear_729_2850)"/>
<path fill-rule="evenodd" clip-rule="evenodd" d="M490.949 360.985C489.498 361.546 488.917 362.449 488.822 363.312C488.731 364.14 489.101 364.987 489.747 365.599C490.693 366.494 492.198 366.871 493.501 366.003C494.768 365.158 495.188 364.26 495.193 363.505C495.195 362.74 494.769 362.049 494.111 361.559C493.21 360.885 491.883 360.622 490.949 360.985ZM491.426 362.218C491.991 362.001 492.776 362.214 493.317 362.618C493.624 362.847 493.866 363.143 493.865 363.499C493.865 363.947 493.511 364.403 492.761 364.903C492.031 365.391 491.193 365.142 490.662 364.639C490.323 364.319 490.093 363.889 490.14 363.456C490.193 362.966 490.606 362.536 491.426 362.218Z" fill="url(#paint57_linear_729_2850)"/>
<path fill-rule="evenodd" clip-rule="evenodd" d="M350.31 386.878C351.56 386.63 351.935 385.545 351.71 384.585C351.577 384.02 351.239 383.489 350.705 383.205C350.347 383.015 349.893 382.926 349.329 383.042C347.778 383.361 347.542 384.661 347.725 385.328C347.9 385.969 348.185 386.408 348.593 386.669C348.991 386.926 349.538 387.032 350.31 386.878ZM350.052 385.581C349.72 385.647 349.482 385.667 349.309 385.557C349.143 385.45 349.074 385.242 349.004 384.98C348.945 384.771 349.11 384.437 349.598 384.337C349.793 384.296 349.956 384.306 350.082 384.373C350.274 384.475 350.37 384.684 350.417 384.887C350.483 385.167 350.417 385.509 350.052 385.581Z" fill="url(#paint58_linear_729_2850)"/>
<path fill-rule="evenodd" clip-rule="evenodd" d="M66.5006 372.092C64.8947 372.595 63.6156 373.722 63.1773 374.866C62.8299 375.773 62.9473 376.703 63.7131 377.467C64.2482 378.001 65.0896 378.2 66.0756 378.087C67.9716 377.869 70.4525 376.511 71.5197 375.446C72.6611 374.308 72.7957 372.916 71.9149 372.126C71.5813 371.826 71.0738 371.591 70.3507 371.514C69.4682 371.42 68.205 371.559 66.5006 372.092ZM66.8978 373.354C68.3658 372.895 69.4496 372.748 70.2098 372.829C70.7068 372.882 71.0293 373 71.1371 373.257C71.1968 373.399 71.1712 373.564 71.1102 373.735C71.0167 373.996 70.8321 374.261 70.5821 374.51C69.7947 375.296 68.1099 376.262 66.618 376.641C66.1595 376.758 65.7212 376.819 65.3386 376.788C65.0624 376.765 64.8191 376.7 64.6507 376.532C64.1941 376.076 64.2697 375.493 64.6062 374.967C65.0482 374.275 65.8992 373.667 66.8978 373.354Z" fill="url(#paint59_linear_729_2850)"/>
<path fill-rule="evenodd" clip-rule="evenodd" d="M62.6944 388.801C62.6064 388.856 62.5342 388.933 62.4843 389.024C61.3951 391.004 61.5815 393.573 62.879 394.799C63.7775 395.649 65.2202 395.965 67.2081 394.973C68.4002 394.379 69.0663 392.953 69.0797 391.504C69.0928 390.049 68.4495 388.617 67.1968 388.02C66.1686 387.529 64.6668 387.567 62.6944 388.801ZM63.4799 389.746C64.8803 388.901 65.9292 388.762 66.6715 389.116C67.5124 389.517 67.8702 390.517 67.8614 391.493C67.8523 392.477 67.4728 393.483 66.6632 393.886C65.3116 394.561 64.3278 394.495 63.7169 393.917C63.3535 393.573 63.1342 393.073 63.0371 392.515C62.8854 391.642 63.034 390.628 63.4793 389.746L63.4799 389.746Z" fill="url(#paint60_linear_729_2850)"/>
<path fill-rule="evenodd" clip-rule="evenodd" d="M22.0394 322.532C22.0242 322.536 22.0089 322.54 21.994 322.545C17.0588 324.103 15.4721 327.067 15.8179 329.821C16.3308 333.906 21.3187 337.754 26.7429 336.401C32.4356 334.981 33.7786 329.257 31.4161 325.523C29.8623 323.067 26.6918 321.418 22.0394 322.532ZM22.3716 323.813C26.2844 322.884 28.9864 324.162 30.2946 326.229C32.2294 329.287 31.0833 333.955 26.421 335.118C21.8392 336.26 17.5667 333.107 17.1337 329.656C16.8493 327.391 18.3196 325.1 22.368 323.815L22.3716 323.813Z" fill="url(#paint61_linear_729_2850)"/>
<path fill-rule="evenodd" clip-rule="evenodd" d="M266.142 157.704C273.23 158.119 296.387 158.64 335.846 161.057C365.737 162.887 427.226 154.099 443.647 145.908C443.975 145.744 444.107 145.347 443.945 145.021C443.779 144.694 443.381 144.561 443.053 144.725C426.735 152.864 365.627 161.555 335.929 159.736C296.466 157.32 273.308 156.798 266.219 156.383C265.854 156.362 265.54 156.64 265.519 157.005C265.497 157.369 265.776 157.682 266.142 157.704Z" fill="url(#paint62_linear_729_2850)"/>
<path fill-rule="evenodd" clip-rule="evenodd" d="M458.97 137.542C453.616 136.525 446.819 139.432 442.058 141.015C440.331 141.589 437.742 141.418 435.163 141.267C432.394 141.106 429.639 140.965 427.826 141.567C421.543 143.656 426.274 142.373 395.942 151.002C385.894 153.861 376.929 155.372 367.809 156.094C367.444 156.123 367.169 156.442 367.199 156.806C367.228 157.169 367.547 157.442 367.911 157.413C377.118 156.684 386.165 155.16 396.307 152.274C426.689 143.63 421.951 144.915 428.243 142.823C429.934 142.26 432.507 142.438 435.086 142.588C437.851 142.75 440.626 142.885 442.479 142.27C447.058 140.747 453.573 137.864 458.721 138.841C459.083 138.909 459.431 138.674 459.497 138.315C459.567 137.956 459.331 137.61 458.97 137.542Z" fill="url(#paint63_linear_729_2850)"/>
<path fill-rule="evenodd" clip-rule="evenodd" d="M333.1 145.878C340.019 148.491 348.437 149.194 356.258 150.06C381.236 152.829 403.783 150.751 427.607 142.829C427.955 142.714 428.141 142.339 428.028 141.992C427.912 141.646 427.534 141.459 427.189 141.574C403.554 149.433 381.186 151.492 356.404 148.746C348.696 147.891 340.391 147.217 333.571 144.641C333.23 144.512 332.845 144.684 332.716 145.025C332.587 145.367 332.759 145.749 333.1 145.878Z" fill="url(#paint64_linear_729_2850)"/>
<path fill-rule="evenodd" clip-rule="evenodd" d="M427.62 142.832C429.118 142.43 432.102 142.64 435.258 143.009C440.178 143.585 445.502 144.58 446.613 144.58C446.978 144.58 447.276 144.283 447.276 143.918C447.276 143.553 446.978 143.257 446.613 143.257C445.519 143.257 440.268 142.263 435.411 141.695C432.049 141.302 428.869 141.127 427.275 141.555C426.923 141.65 426.711 142.013 426.807 142.366C426.903 142.718 427.268 142.927 427.62 142.832Z" fill="url(#paint65_linear_729_2850)"/>
<path fill-rule="evenodd" clip-rule="evenodd" d="M225.148 138.433C224.976 138.129 224.593 138.008 224.276 138.165C223.948 138.327 223.814 138.724 223.976 139.052C224.071 139.243 224.252 139.447 224.543 139.628C224.96 139.886 225.679 140.14 226.617 140.364C231.502 141.529 242.768 142.174 244.577 142.174C253.322 142.174 263.796 143.59 274.211 144.297C284.732 145.011 295.191 144.997 303.784 142.14C304.131 142.024 304.319 141.65 304.203 141.303C304.088 140.957 303.712 140.769 303.365 140.885C294.921 143.693 284.64 143.679 274.3 142.977C263.855 142.268 253.348 140.851 244.577 140.851C243.018 140.851 234.332 140.367 228.962 139.477C227.622 139.255 226.495 139.01 225.753 138.737C225.487 138.64 225.186 138.457 225.148 138.433Z" fill="url(#paint66_linear_729_2850)"/>
<path fill-rule="evenodd" clip-rule="evenodd" d="M310.861 137.891C309.032 138.298 308.08 139.083 307.788 139.978C307.595 140.567 307.658 141.238 308.011 141.967C308.442 142.857 309.338 143.869 310.663 144.926C318.689 151.332 343.046 160.035 367.941 157.422C368.306 157.384 368.568 157.058 368.531 156.695C368.491 156.332 368.167 156.068 367.802 156.106C343.335 158.675 319.38 150.19 311.491 143.893C310.537 143.132 309.828 142.411 309.404 141.745C309.08 141.235 308.919 140.784 309.048 140.388C309.127 140.147 309.318 139.945 309.597 139.764C309.972 139.521 310.489 139.329 311.15 139.182C311.507 139.102 311.732 138.748 311.653 138.392C311.573 138.036 311.218 137.811 310.861 137.891Z" fill="url(#paint67_linear_729_2850)"/>
<path fill-rule="evenodd" clip-rule="evenodd" d="M372.698 147.65C372.98 147.045 373.537 146.353 373.537 146.353L372.698 147.65Z" fill="url(#paint68_linear_729_2850)"/>
<path fill-rule="evenodd" clip-rule="evenodd" d="M379.349 147.783L379.405 147.782C393.582 147.981 407.758 147.586 421.566 144.831C421.928 144.76 422.16 144.411 422.087 144.053C422.017 143.695 421.666 143.462 421.308 143.534C407.934 146.203 394.215 146.644 380.483 146.48L380.466 146.501C370.931 146.278 354.491 145.746 345.112 145.746C336.794 145.746 329.71 143.918 321.86 141.681C318.913 140.841 316.32 139.448 313.394 138.475C313.121 138.385 311.574 137.972 311.231 137.887C310.665 137.747 310.401 138.241 310.397 138.252C310.392 138.263 310.201 138.974 310.896 139.172C310.929 139.182 310.963 139.189 310.996 139.193C311.44 139.306 312.733 139.65 312.974 139.73C315.919 140.709 318.53 142.107 321.496 142.953C329.468 145.225 336.664 147.069 345.112 147.069C354.179 147.069 374.509 147.894 379.349 147.783Z" fill="url(#paint69_linear_729_2850)"/>
<path fill-rule="evenodd" clip-rule="evenodd" d="M394.966 144.055C394.94 144.033 394.917 144.011 394.896 143.987C394.602 143.64 394.473 143.116 394.555 142.468C394.653 141.692 395.042 140.701 395.622 139.681C396.471 138.187 397.728 136.619 399.007 135.571C399.98 134.77 400.996 134.272 401.869 134.198C405.2 133.914 406.834 136.516 406.484 138.603C406.335 139.489 405.831 140.265 405.03 140.719C404.466 141.039 403.751 141.214 402.876 141.142C400.694 140.969 399.296 141.227 398.384 141.678C397.058 142.334 396.826 143.369 396.604 143.757C396.372 144.166 396.013 144.297 395.743 144.316C395.534 144.329 395.251 144.298 394.966 144.055ZM396.345 141.543C396.708 141.185 397.189 140.837 397.839 140.55C398.951 140.058 400.597 139.738 403.09 139.937C404.243 140.029 404.826 139.312 404.964 138.491C405.202 137.071 404.238 135.211 401.974 135.403C401.384 135.453 400.748 135.854 400.091 136.392C398.926 137.35 397.79 138.777 397.017 140.139C396.74 140.624 396.51 141.103 396.345 141.543Z" fill="url(#paint70_linear_729_2850)"/>
<path fill-rule="evenodd" clip-rule="evenodd" d="M310.813 137.867C308.16 138.256 304.612 140.178 300.989 142.171C297.51 144.085 293.957 146.062 291.086 146.635C283.184 148.212 264.253 152.728 256.217 154.186C255.857 154.251 255.618 154.595 255.684 154.955C255.749 155.314 256.095 155.553 256.455 155.487C264.496 154.029 283.438 149.51 291.346 147.932C294.324 147.338 298.022 145.315 301.63 143.329C305.094 141.423 308.468 139.547 311.005 139.176C311.368 139.124 311.618 138.787 311.565 138.426C311.512 138.065 311.175 137.814 310.813 137.867Z" fill="url(#paint71_linear_729_2850)"/>
<path fill-rule="evenodd" clip-rule="evenodd" d="M321.028 134.141C320.737 134.196 320.517 134.438 320.491 134.733C320.465 135.028 320.639 135.305 320.917 135.41C322.064 135.843 323.189 136.341 324.24 136.589C325.14 136.801 325.993 136.833 326.774 136.564C327.569 136.291 328.306 135.711 328.931 134.633C329.436 133.762 329.377 133.196 329.197 132.886C329.025 132.59 328.701 132.38 328.222 132.333C327.66 132.279 326.761 132.478 325.926 132.632C325.279 132.751 325.059 132.883 324.871 133.018C324.566 133.236 324.399 133.507 321.028 134.141ZM327.935 133.651C327.896 133.749 327.844 133.865 327.783 133.971C327.358 134.704 326.882 135.127 326.342 135.313C325.788 135.504 325.183 135.452 324.545 135.301C324.192 135.218 323.831 135.104 323.463 134.974H323.464C324.903 134.615 325.279 134.367 325.514 134.191C325.656 134.086 325.719 134.016 326.167 133.933C326.711 133.832 327.285 133.7 327.748 133.657C327.807 133.652 327.873 133.651 327.935 133.651Z" fill="url(#paint72_linear_729_2850)"/>
<path fill-rule="evenodd" clip-rule="evenodd" d="M229.551 145.05C233.469 145.904 239.965 147.366 253.924 148.626C266.719 149.781 283.831 147.782 294.197 145.429C298.766 144.391 302.047 143.249 303.172 142.305C303.452 142.07 303.488 141.652 303.252 141.373C303.017 141.094 302.598 141.058 302.318 141.292C301.267 142.175 298.174 143.169 293.903 144.139C283.643 146.468 266.707 148.451 254.043 147.308C240.178 146.057 233.726 144.606 229.834 143.758C229.477 143.68 229.123 143.906 229.045 144.263C228.967 144.619 229.193 144.972 229.551 145.05Z" fill="url(#paint73_linear_729_2850)"/>
<path fill-rule="evenodd" clip-rule="evenodd" d="M161.95 409.852C160.496 411.302 160.746 413.517 162.282 414.234C163.491 414.798 164.653 414.814 165.437 414.287C165.989 413.916 166.402 413.272 166.499 412.267C166.585 411.383 166.345 410.714 165.956 410.228C165.376 409.503 164.429 409.179 163.569 409.215C162.914 409.244 162.321 409.482 161.95 409.852ZM162.909 410.808C163.07 410.647 163.342 410.579 163.627 410.567C164.08 410.547 164.591 410.69 164.896 411.072C165.098 411.324 165.194 411.678 165.15 412.137C165.102 412.635 164.953 412.982 164.68 413.166C164.225 413.471 163.558 413.336 162.857 413.009C162.087 412.649 162.181 411.535 162.909 410.808Z" fill="url(#paint74_linear_729_2850)"/>
<path fill-rule="evenodd" clip-rule="evenodd" d="M62.3817 406.904C58.359 408.812 61.5057 414.853 65.5403 412.692C66.7986 412.019 67.2644 410.635 67.0505 409.333C66.8603 408.175 66.1305 407.112 65.0366 406.697C64.3108 406.421 63.4115 406.416 62.3817 406.904ZM62.9637 408.126C63.5823 407.833 64.1189 407.796 64.5549 407.961C65.2037 408.207 65.5996 408.865 65.7125 409.552C65.8349 410.299 65.6206 411.114 64.8989 411.501C62.519 412.775 60.5905 409.251 62.9637 408.126Z" fill="url(#paint75_linear_729_2850)"/>
<path fill-rule="evenodd" clip-rule="evenodd" d="M1.6412 408.186C1.02561 408.969 1.11476 409.962 1.62052 410.717C2.06255 411.376 2.8178 411.826 3.60966 411.795C4.14119 411.773 4.70457 411.546 5.20457 410.978C5.62796 410.498 5.79677 410 5.80559 409.539C5.81915 408.833 5.4483 408.189 4.87746 407.772C3.95746 407.101 2.55035 407.029 1.6412 408.186ZM2.70831 409.02C3.07611 408.552 3.63916 408.577 4.02661 408.829C4.26661 408.986 4.45542 409.228 4.45 409.513C4.44661 409.699 4.35712 409.891 4.18627 410.085C3.98356 410.315 3.77 410.434 3.55475 410.443C3.22661 410.456 2.93102 410.238 2.74763 409.965C2.55882 409.683 2.47848 409.313 2.70831 409.02Z" fill="url(#paint76_linear_729_2850)"/>
</g>
<defs>
<linearGradient id="paint0_linear_729_2850" x1="245.997" y1="176.439" x2="245.997" y2="341.343" gradientUnits="userSpaceOnUse">
<stop stop-color="#FFE088"/>
<stop offset="1" stop-color="#FFF0C4"/>
</linearGradient>
<linearGradient id="paint1_linear_729_2850" x1="245.997" y1="176.439" x2="245.997" y2="341.343" gradientUnits="userSpaceOnUse">
<stop stop-color="#FFE088"/>
<stop offset="1" stop-color="#FFF0C4"/>
</linearGradient>
<linearGradient id="paint2_linear_729_2850" x1="245.997" y1="176.439" x2="245.997" y2="341.343" gradientUnits="userSpaceOnUse">
<stop stop-color="#FFE088"/>
<stop offset="1" stop-color="#FFF0C4"/>
</linearGradient>
<linearGradient id="paint3_linear_729_2850" x1="245.997" y1="176.439" x2="245.997" y2="341.343" gradientUnits="userSpaceOnUse">
<stop stop-color="#FFE088"/>
<stop offset="1" stop-color="#FFF0C4"/>
</linearGradient>
<linearGradient id="paint4_linear_729_2850" x1="245.997" y1="176.439" x2="245.997" y2="341.343" gradientUnits="userSpaceOnUse">
<stop stop-color="#FFE088"/>
<stop offset="1" stop-color="#FFF0C4"/>
</linearGradient>
<linearGradient id="paint5_linear_729_2850" x1="245.998" y1="176.438" x2="245.998" y2="341.343" gradientUnits="userSpaceOnUse">
<stop stop-color="#FFE088"/>
<stop offset="1" stop-color="#FFF0C4"/>
</linearGradient>
<linearGradient id="paint6_linear_729_2850" x1="245.997" y1="176.438" x2="245.997" y2="341.343" gradientUnits="userSpaceOnUse">
<stop stop-color="#FFE088"/>
<stop offset="1" stop-color="#FFF0C4"/>
</linearGradient>
<linearGradient id="paint7_linear_729_2850" x1="245.999" y1="176.439" x2="245.999" y2="341.343" gradientUnits="userSpaceOnUse">
<stop stop-color="#FFE088"/>
<stop offset="1" stop-color="#FFF0C4"/>
</linearGradient>
<linearGradient id="paint8_linear_729_2850" x1="245.997" y1="176.439" x2="245.997" y2="341.343" gradientUnits="userSpaceOnUse">
<stop stop-color="#FFE088"/>
<stop offset="1" stop-color="#FFF0C4"/>
</linearGradient>
<linearGradient id="paint9_linear_729_2850" x1="245.997" y1="176.439" x2="245.997" y2="341.343" gradientUnits="userSpaceOnUse">
<stop stop-color="#FFE088"/>
<stop offset="1" stop-color="#FFF0C4"/>
</linearGradient>
<linearGradient id="paint10_linear_729_2850" x1="245.997" y1="176.438" x2="245.997" y2="341.343" gradientUnits="userSpaceOnUse">
<stop stop-color="#FFE088"/>
<stop offset="1" stop-color="#FFF0C4"/>
</linearGradient>
<linearGradient id="paint11_linear_729_2850" x1="245.997" y1="176.439" x2="245.997" y2="341.343" gradientUnits="userSpaceOnUse">
<stop stop-color="#FFE088"/>
<stop offset="1" stop-color="#FFF0C4"/>
</linearGradient>
<linearGradient id="paint12_linear_729_2850" x1="245.997" y1="176.438" x2="245.997" y2="341.343" gradientUnits="userSpaceOnUse">
<stop stop-color="#FFE088"/>
<stop offset="1" stop-color="#FFF0C4"/>
</linearGradient>
<linearGradient id="paint13_linear_729_2850" x1="245.997" y1="176.439" x2="245.997" y2="341.343" gradientUnits="userSpaceOnUse">
<stop stop-color="#FFE088"/>
<stop offset="1" stop-color="#FFF0C4"/>
</linearGradient>
<linearGradient id="paint14_linear_729_2850" x1="245.997" y1="176.438" x2="245.997" y2="341.343" gradientUnits="userSpaceOnUse">
<stop stop-color="#FFE088"/>
<stop offset="1" stop-color="#FFF0C4"/>
</linearGradient>
<linearGradient id="paint15_linear_729_2850" x1="245.997" y1="176.439" x2="245.997" y2="341.343" gradientUnits="userSpaceOnUse">
<stop stop-color="#FFE088"/>
<stop offset="1" stop-color="#FFF0C4"/>
</linearGradient>
<linearGradient id="paint16_linear_729_2850" x1="245.997" y1="176.438" x2="245.997" y2="341.343" gradientUnits="userSpaceOnUse">
<stop stop-color="#FFE088"/>
<stop offset="1" stop-color="#FFF0C4"/>
</linearGradient>
<linearGradient id="paint17_linear_729_2850" x1="245.995" y1="176.439" x2="245.995" y2="341.343" gradientUnits="userSpaceOnUse">
<stop stop-color="#FFE088"/>
<stop offset="1" stop-color="#FFF0C4"/>
</linearGradient>
<linearGradient id="paint18_linear_729_2850" x1="245.998" y1="176.438" x2="245.998" y2="341.343" gradientUnits="userSpaceOnUse">
<stop stop-color="#FFE088"/>
<stop offset="1" stop-color="#FFF0C4"/>
</linearGradient>
<linearGradient id="paint19_linear_729_2850" x1="245.997" y1="176.439" x2="245.997" y2="341.343" gradientUnits="userSpaceOnUse">
<stop stop-color="#FFE088"/>
<stop offset="1" stop-color="#FFF0C4"/>
</linearGradient>
<linearGradient id="paint20_linear_729_2850" x1="245.997" y1="176.439" x2="245.997" y2="341.343" gradientUnits="userSpaceOnUse">
<stop stop-color="#FFE088"/>
<stop offset="1" stop-color="#FFF0C4"/>
</linearGradient>
<linearGradient id="paint21_linear_729_2850" x1="245.997" y1="176.438" x2="245.997" y2="341.343" gradientUnits="userSpaceOnUse">
<stop stop-color="#FFE088"/>
<stop offset="1" stop-color="#FFF0C4"/>
</linearGradient>
<linearGradient id="paint22_linear_729_2850" x1="245.997" y1="176.438" x2="245.997" y2="341.343" gradientUnits="userSpaceOnUse">
<stop stop-color="#FFE088"/>
<stop offset="1" stop-color="#FFF0C4"/>
</linearGradient>
<linearGradient id="paint23_linear_729_2850" x1="245.997" y1="176.438" x2="245.997" y2="341.343" gradientUnits="userSpaceOnUse">
<stop stop-color="#FFE088"/>
<stop offset="1" stop-color="#FFF0C4"/>
</linearGradient>
<linearGradient id="paint24_linear_729_2850" x1="245.997" y1="176.439" x2="245.997" y2="341.343" gradientUnits="userSpaceOnUse">
<stop stop-color="#FFE088"/>
<stop offset="1" stop-color="#FFF0C4"/>
</linearGradient>
<linearGradient id="paint25_linear_729_2850" x1="245.997" y1="176.439" x2="245.997" y2="341.343" gradientUnits="userSpaceOnUse">
<stop stop-color="#FFE088"/>
<stop offset="1" stop-color="#FFF0C4"/>
</linearGradient>
<linearGradient id="paint26_linear_729_2850" x1="245.997" y1="176.439" x2="245.997" y2="341.343" gradientUnits="userSpaceOnUse">
<stop stop-color="#FFE088"/>
<stop offset="1" stop-color="#FFF0C4"/>
</linearGradient>
<linearGradient id="paint27_linear_729_2850" x1="245.997" y1="176.439" x2="245.997" y2="341.343" gradientUnits="userSpaceOnUse">
<stop stop-color="#FFE088"/>
<stop offset="1" stop-color="#FFF0C4"/>
</linearGradient>
<linearGradient id="paint28_linear_729_2850" x1="245.997" y1="176.439" x2="245.997" y2="341.343" gradientUnits="userSpaceOnUse">
<stop stop-color="#FFE088"/>
<stop offset="1" stop-color="#FFF0C4"/>
</linearGradient>
<linearGradient id="paint29_linear_729_2850" x1="245.997" y1="176.438" x2="245.997" y2="341.343" gradientUnits="userSpaceOnUse">
<stop stop-color="#FFE088"/>
<stop offset="1" stop-color="#FFF0C4"/>
</linearGradient>
<linearGradient id="paint30_linear_729_2850" x1="245.997" y1="176.439" x2="245.997" y2="341.343" gradientUnits="userSpaceOnUse">
<stop stop-color="#FFE088"/>
<stop offset="1" stop-color="#FFF0C4"/>
</linearGradient>
<linearGradient id="paint31_linear_729_2850" x1="245.997" y1="176.439" x2="245.997" y2="341.343" gradientUnits="userSpaceOnUse">
<stop stop-color="#FFE088"/>
<stop offset="1" stop-color="#FFF0C4"/>
</linearGradient>
<linearGradient id="paint32_linear_729_2850" x1="245.997" y1="176.439" x2="245.997" y2="341.343" gradientUnits="userSpaceOnUse">
<stop stop-color="#FFE088"/>
<stop offset="1" stop-color="#FFF0C4"/>
</linearGradient>
<linearGradient id="paint33_linear_729_2850" x1="245.997" y1="176.439" x2="245.997" y2="341.343" gradientUnits="userSpaceOnUse">
<stop stop-color="#FFE088"/>
<stop offset="1" stop-color="#FFF0C4"/>
</linearGradient>
<linearGradient id="paint34_linear_729_2850" x1="245.997" y1="176.439" x2="245.997" y2="341.343" gradientUnits="userSpaceOnUse">
<stop stop-color="#FFE088"/>
<stop offset="1" stop-color="#FFF0C4"/>
</linearGradient>
<linearGradient id="paint35_linear_729_2850" x1="245.997" y1="176.439" x2="245.997" y2="341.343" gradientUnits="userSpaceOnUse">
<stop stop-color="#FFE088"/>
<stop offset="1" stop-color="#FFF0C4"/>
</linearGradient>
<linearGradient id="paint36_linear_729_2850" x1="245.997" y1="176.438" x2="245.997" y2="341.343" gradientUnits="userSpaceOnUse">
<stop stop-color="#FFE088"/>
<stop offset="1" stop-color="#FFF0C4"/>
</linearGradient>
<linearGradient id="paint37_linear_729_2850" x1="245.997" y1="176.438" x2="245.997" y2="341.343" gradientUnits="userSpaceOnUse">
<stop stop-color="#FFE088"/>
<stop offset="1" stop-color="#FFF0C4"/>
</linearGradient>
<linearGradient id="paint38_linear_729_2850" x1="245.997" y1="176.439" x2="245.997" y2="341.343" gradientUnits="userSpaceOnUse">
<stop stop-color="#FFE088"/>
<stop offset="1" stop-color="#FFF0C4"/>
</linearGradient>
<linearGradient id="paint39_linear_729_2850" x1="245.998" y1="176.438" x2="245.998" y2="341.343" gradientUnits="userSpaceOnUse">
<stop stop-color="#FFE088"/>
<stop offset="1" stop-color="#FFF0C4"/>
</linearGradient>
<linearGradient id="paint40_linear_729_2850" x1="245.997" y1="176.439" x2="245.997" y2="341.343" gradientUnits="userSpaceOnUse">
<stop stop-color="#FFE088"/>
<stop offset="1" stop-color="#FFF0C4"/>
</linearGradient>
<linearGradient id="paint41_linear_729_2850" x1="245.995" y1="176.438" x2="245.995" y2="341.342" gradientUnits="userSpaceOnUse">
<stop stop-color="#FFE088"/>
<stop offset="1" stop-color="#FFF0C4"/>
</linearGradient>
<linearGradient id="paint42_linear_729_2850" x1="245.998" y1="176.439" x2="245.998" y2="341.343" gradientUnits="userSpaceOnUse">
<stop stop-color="#FFE088"/>
<stop offset="1" stop-color="#FFF0C4"/>
</linearGradient>
<linearGradient id="paint43_linear_729_2850" x1="245.998" y1="176.44" x2="245.998" y2="341.344" gradientUnits="userSpaceOnUse">
<stop stop-color="#FFE088"/>
<stop offset="1" stop-color="#FFF0C4"/>
</linearGradient>
<linearGradient id="paint44_linear_729_2850" x1="245.997" y1="176.438" x2="245.997" y2="341.343" gradientUnits="userSpaceOnUse">
<stop stop-color="#FFE088"/>
<stop offset="1" stop-color="#FFF0C4"/>
</linearGradient>
<linearGradient id="paint45_linear_729_2850" x1="245.997" y1="176.439" x2="245.997" y2="341.343" gradientUnits="userSpaceOnUse">
<stop stop-color="#FFE088"/>
<stop offset="1" stop-color="#FFF0C4"/>
</linearGradient>
<linearGradient id="paint46_linear_729_2850" x1="245.997" y1="176.439" x2="245.997" y2="341.343" gradientUnits="userSpaceOnUse">
<stop stop-color="#FFE088"/>
<stop offset="1" stop-color="#FFF0C4"/>
</linearGradient>
<linearGradient id="paint47_linear_729_2850" x1="245.997" y1="176.439" x2="245.997" y2="341.344" gradientUnits="userSpaceOnUse">
<stop stop-color="#FFE088"/>
<stop offset="1" stop-color="#FFF0C4"/>
</linearGradient>
<linearGradient id="paint48_linear_729_2850" x1="245.997" y1="176.438" x2="245.997" y2="341.343" gradientUnits="userSpaceOnUse">
<stop stop-color="#FFE088"/>
<stop offset="1" stop-color="#FFF0C4"/>
</linearGradient>
<linearGradient id="paint49_linear_729_2850" x1="245.997" y1="176.438" x2="245.997" y2="341.343" gradientUnits="userSpaceOnUse">
<stop stop-color="#FFE088"/>
<stop offset="1" stop-color="#FFF0C4"/>
</linearGradient>
<linearGradient id="paint50_linear_729_2850" x1="245.997" y1="176.439" x2="245.997" y2="341.343" gradientUnits="userSpaceOnUse">
<stop stop-color="#FFE088"/>
<stop offset="1" stop-color="#FFF0C4"/>
</linearGradient>
<linearGradient id="paint51_linear_729_2850" x1="245.998" y1="176.439" x2="245.998" y2="341.343" gradientUnits="userSpaceOnUse">
<stop stop-color="#FFE088"/>
<stop offset="1" stop-color="#FFF0C4"/>
</linearGradient>
<linearGradient id="paint52_linear_729_2850" x1="245.997" y1="176.439" x2="245.997" y2="341.343" gradientUnits="userSpaceOnUse">
<stop stop-color="#FFE088"/>
<stop offset="1" stop-color="#FFF0C4"/>
</linearGradient>
<linearGradient id="paint53_linear_729_2850" x1="245.997" y1="176.439" x2="245.997" y2="341.343" gradientUnits="userSpaceOnUse">
<stop stop-color="#FFE088"/>
<stop offset="1" stop-color="#FFF0C4"/>
</linearGradient>
<linearGradient id="paint54_linear_729_2850" x1="245.997" y1="176.438" x2="245.997" y2="341.343" gradientUnits="userSpaceOnUse">
<stop stop-color="#FFE088"/>
<stop offset="1" stop-color="#FFF0C4"/>
</linearGradient>
<linearGradient id="paint55_linear_729_2850" x1="245.997" y1="176.439" x2="245.997" y2="341.343" gradientUnits="userSpaceOnUse">
<stop stop-color="#FFE088"/>
<stop offset="1" stop-color="#FFF0C4"/>
</linearGradient>
<linearGradient id="paint56_linear_729_2850" x1="245.997" y1="176.439" x2="245.997" y2="341.343" gradientUnits="userSpaceOnUse">
<stop stop-color="#FFE088"/>
<stop offset="1" stop-color="#FFF0C4"/>
</linearGradient>
<linearGradient id="paint57_linear_729_2850" x1="245.996" y1="176.438" x2="245.996" y2="341.343" gradientUnits="userSpaceOnUse">
<stop stop-color="#FFE088"/>
<stop offset="1" stop-color="#FFF0C4"/>
</linearGradient>
<linearGradient id="paint58_linear_729_2850" x1="245.996" y1="176.439" x2="245.996" y2="341.343" gradientUnits="userSpaceOnUse">
<stop stop-color="#FFE088"/>
<stop offset="1" stop-color="#FFF0C4"/>
</linearGradient>
<linearGradient id="paint59_linear_729_2850" x1="245.997" y1="176.439" x2="245.997" y2="341.343" gradientUnits="userSpaceOnUse">
<stop stop-color="#FFE088"/>
<stop offset="1" stop-color="#FFF0C4"/>
</linearGradient>
<linearGradient id="paint60_linear_729_2850" x1="245.997" y1="176.438" x2="245.997" y2="341.343" gradientUnits="userSpaceOnUse">
<stop stop-color="#FFE088"/>
<stop offset="1" stop-color="#FFF0C4"/>
</linearGradient>
<linearGradient id="paint61_linear_729_2850" x1="245.998" y1="176.438" x2="245.998" y2="341.343" gradientUnits="userSpaceOnUse">
<stop stop-color="#FFE088"/>
<stop offset="1" stop-color="#FFF0C4"/>
</linearGradient>
<linearGradient id="paint62_linear_729_2850" x1="245.997" y1="176.439" x2="245.997" y2="341.343" gradientUnits="userSpaceOnUse">
<stop stop-color="#FFE088"/>
<stop offset="1" stop-color="#FFF0C4"/>
</linearGradient>
<linearGradient id="paint63_linear_729_2850" x1="245.997" y1="176.439" x2="245.997" y2="341.343" gradientUnits="userSpaceOnUse">
<stop stop-color="#FFE088"/>
<stop offset="1" stop-color="#FFF0C4"/>
</linearGradient>
<linearGradient id="paint64_linear_729_2850" x1="245.997" y1="176.439" x2="245.997" y2="341.343" gradientUnits="userSpaceOnUse">
<stop stop-color="#FFE088"/>
<stop offset="1" stop-color="#FFF0C4"/>
</linearGradient>
<linearGradient id="paint65_linear_729_2850" x1="245.997" y1="176.439" x2="245.997" y2="341.343" gradientUnits="userSpaceOnUse">
<stop stop-color="#FFE088"/>
<stop offset="1" stop-color="#FFF0C4"/>
</linearGradient>
<linearGradient id="paint66_linear_729_2850" x1="245.997" y1="176.439" x2="245.997" y2="341.343" gradientUnits="userSpaceOnUse">
<stop stop-color="#FFE088"/>
<stop offset="1" stop-color="#FFF0C4"/>
</linearGradient>
<linearGradient id="paint67_linear_729_2850" x1="245.997" y1="176.439" x2="245.997" y2="341.343" gradientUnits="userSpaceOnUse">
<stop stop-color="#FFE088"/>
<stop offset="1" stop-color="#FFF0C4"/>
</linearGradient>
<linearGradient id="paint68_linear_729_2850" x1="246.002" y1="176.439" x2="246.002" y2="341.343" gradientUnits="userSpaceOnUse">
<stop stop-color="#FFE088"/>
<stop offset="1" stop-color="#FFF0C4"/>
</linearGradient>
<linearGradient id="paint69_linear_729_2850" x1="245.997" y1="176.439" x2="245.997" y2="341.343" gradientUnits="userSpaceOnUse">
<stop stop-color="#FFE088"/>
<stop offset="1" stop-color="#FFF0C4"/>
</linearGradient>
<linearGradient id="paint70_linear_729_2850" x1="245.995" y1="176.439" x2="245.995" y2="341.343" gradientUnits="userSpaceOnUse">
<stop stop-color="#FFE088"/>
<stop offset="1" stop-color="#FFF0C4"/>
</linearGradient>
<linearGradient id="paint71_linear_729_2850" x1="245.998" y1="176.439" x2="245.998" y2="341.343" gradientUnits="userSpaceOnUse">
<stop stop-color="#FFE088"/>
<stop offset="1" stop-color="#FFF0C4"/>
</linearGradient>
<linearGradient id="paint72_linear_729_2850" x1="245.997" y1="176.439" x2="245.997" y2="341.343" gradientUnits="userSpaceOnUse">
<stop stop-color="#FFE088"/>
<stop offset="1" stop-color="#FFF0C4"/>
</linearGradient>
<linearGradient id="paint73_linear_729_2850" x1="245.998" y1="176.439" x2="245.998" y2="341.343" gradientUnits="userSpaceOnUse">
<stop stop-color="#FFE088"/>
<stop offset="1" stop-color="#FFF0C4"/>
</linearGradient>
<linearGradient id="paint74_linear_729_2850" x1="245.997" y1="176.439" x2="245.997" y2="341.343" gradientUnits="userSpaceOnUse">
<stop stop-color="#FFE088"/>
<stop offset="1" stop-color="#FFF0C4"/>
</linearGradient>
<linearGradient id="paint75_linear_729_2850" x1="245.997" y1="176.439" x2="245.997" y2="341.343" gradientUnits="userSpaceOnUse">
<stop stop-color="#FFE088"/>
<stop offset="1" stop-color="#FFF0C4"/>
</linearGradient>
<linearGradient id="paint76_linear_729_2850" x1="245.997" y1="176.438" x2="245.997" y2="341.343" gradientUnits="userSpaceOnUse">
<stop stop-color="#FFE088"/>
<stop offset="1" stop-color="#FFF0C4"/>
</linearGradient>
<clipPath id="clip0_729_2850">
<rect width="541" height="541" fill="white"/>
</clipPath>
</defs>
</svg>
